<?xml version="1.0" encoding="UTF-8"?><svg id="_이어_1" xmlns="http://www.w3.org/2000/svg" xmlns:xlink="http://www.w3.org/1999/xlink" viewBox="0 0 991 685"><defs><style>.cls-1,.cls-2,.cls-3,.cls-4,.cls-5,.cls-6{fill:none;}.cls-7,.cls-8,.cls-9,.cls-10{font-family:Poppins-SemiBold, Poppins;}.cls-7,.cls-8,.cls-10{fill:#c7c6d7;}.cls-7,.cls-8,.cls-11{opacity:.2;}.cls-7,.cls-10{font-size:63.35px;}.cls-12{clip-path:url(#clippath);}.cls-8{font-size:118.03px;}.cls-13{fill:#f7f0cd;}.cls-14,.cls-15,.cls-16{fill:#fff;}.cls-17{fill:#ffb80b;}.cls-18{fill:#ff6000;}.cls-19{fill:#d6cef1;}.cls-20{letter-spacing:-.05em;}.cls-20,.cls-21{font-family:Pretendard-Medium-KSCpc-EUC-H, Pretendard;}.cls-9{font-size:63.35px;stroke-width:1.07px;}.cls-9,.cls-2,.cls-3,.cls-4,.cls-5,.cls-22,.cls-23,.cls-24,.cls-16,.cls-6{stroke-miterlimit:10;}.cls-9,.cls-22,.cls-23,.cls-24{fill:#2b2d36;stroke:#2b2d36;}.cls-2{stroke-width:4.67px;}.cls-2,.cls-3,.cls-4,.cls-5{stroke:#d6cef1;}.cls-15{font-size:16.35px;}.cls-3{stroke-width:2.5px;}.cls-25{clip-path:url(#clippath-1);}.cls-4{stroke-width:10.85px;}.cls-5{stroke-width:20.22px;}.cls-21,.cls-26{letter-spacing:-.04em;}.cls-27{opacity:.3;}.cls-28{opacity:.25;}.cls-29{opacity:.5;}.cls-22{stroke-width:.84px;}.cls-23{stroke-width:.77px;}.cls-26{font-family:Poppins-Medium, Poppins;}.cls-24{stroke-width:1.36px;}.cls-16{stroke:#fff;stroke-width:.37px;}.cls-6{stroke:#ffb80b;stroke-width:2.8px;}</style><clipPath id="clippath"><rect class="cls-1" x="0" y="-807.65" width="1199" height="678"/></clipPath><clipPath id="clippath-1"><rect class="cls-1" width="991" height="685"/></clipPath></defs><g class="cls-12"><g class="cls-28"><g class="cls-29"><g><text class="cls-8" transform="translate(603.4 -175.61) rotate(12.52)"><tspan x="0" y="0">Wednesday</tspan></text><g class="cls-11"><path class="cls-19" d="M588.14-305.34c6.41,0,12.86,.71,19.18,2.12l724.59,160.9c47.42,10.53,77.43,57.68,66.9,105.1-4.37,19.68-15.46,37.41-31.23,49.91-15.55,12.33-34.97,19.11-54.68,19.11-6.41,0-12.87-.71-19.19-2.12L569.13-131.22c-47.42-10.53-77.43-57.68-66.9-105.1,4.37-19.68,15.46-37.41,31.23-49.91,15.55-12.32,34.97-19.11,54.69-19.11h0m0-5.97c-43.12,0-82,29.85-91.74,73.69h0c-11.26,50.71,20.72,100.96,71.44,112.22L1292.43,35.51c6.87,1.53,13.72,2.26,20.48,2.26,43.12,0,82-29.85,91.74-73.69h0c11.26-50.71-20.72-100.96-71.44-112.22l-724.59-160.9c-6.87-1.53-13.72-2.26-20.48-2.26h0Z"/></g></g><g><g class="cls-11"><rect class="cls-2" x="-143.51" y="-198.57" width="653.67" height="190.62" rx="91.34" ry="91.34" transform="translate(282.99 -288.56) rotate(147.66)"/></g><g class="cls-11"><line class="cls-5" x1="-2.86" y1="16.14" x2="387.77" y2="-232.06"/></g></g></g></g></g><rect class="cls-24" width="991" height="685"/><g><text class="cls-15" transform="translate(420.89 447.68)"><tspan class="cls-21"><tspan x="0" y="0">직접 해봐야 실력이 는다!</tspan></tspan><tspan class="cls-21" x="-78.63" y="22.83">매주 월요일</tspan><tspan class="cls-20" x="-7.92" y="22.83">,</tspan><tspan class="cls-21" x="-4.37" y="22.83" xml:space="preserve"> 구름</tspan><tspan class="cls-26" x="25.91" y="22.83">LEVEL</tspan><tspan class="cls-21" x="65.65" y="22.83">과 함께 알고리즘 문제 풀기</tspan></text><g><circle class="cls-13" cx="590.07" cy="283.74" r="29.96"/><polygon class="cls-22" points="605.06 290.96 604.76 268.65 582.45 268.96 582.55 276.06 592.63 275.92 572.79 296 577.84 300.99 597.82 280.78 597.96 291.05 605.06 290.96"/></g><rect class="cls-18" x="371.29" y="251.1" width="174.34" height="59.93" rx="29.96" ry="29.96" transform="translate(21.24 -32.02) rotate(4.1)"/><g><path class="cls-16" d="M405.17,270.1c.07-.94,.3-1.79,.7-2.54,.4-.75,.93-1.37,1.6-1.87,.67-.5,1.46-.86,2.36-1.1,.9-.24,1.9-.32,2.98-.24s2.06,.3,2.92,.66c.86,.36,1.59,.84,2.18,1.43,.59,.59,1.03,1.28,1.32,2.08,.29,.8,.4,1.67,.33,2.61s-.3,1.79-.7,2.54c-.4,.75-.93,1.37-1.6,1.87-.67,.5-1.46,.86-2.36,1.1-.9,.24-1.9,.32-2.98,.24s-2.06-.3-2.92-.66c-.86-.36-1.59-.84-2.18-1.43-.59-.59-1.03-1.28-1.32-2.08-.29-.8-.39-1.67-.33-2.61Zm2.65,.19c-.04,.58,.04,1.12,.23,1.62,.2,.5,.48,.93,.86,1.3,.38,.37,.83,.67,1.37,.9,.54,.23,1.14,.37,1.8,.42,.66,.05,1.28,0,1.84-.16,.57-.15,1.06-.38,1.49-.7,.43-.31,.77-.7,1.04-1.17,.26-.47,.42-.99,.46-1.57s-.04-1.12-.23-1.62c-.2-.5-.48-.93-.86-1.3-.38-.37-.83-.67-1.37-.9-.54-.23-1.14-.37-1.8-.42s-1.28,0-1.84,.16c-.57,.15-1.06,.38-1.49,.7-.43,.31-.77,.7-1.04,1.17-.27,.47-.42,.99-.46,1.57Zm-.42,13.44l15.75,1.13,.16-2.26-15.75-1.13,.17-2.41,18.46,1.32-.51,7.07-15.75-1.13-.19,2.62,16.2,1.16-.17,2.41-18.91-1.35,.53-7.44Zm19.89-18.7l-.37,5.15,4.28,.31-.17,2.41-4.28-.31-.46,6.44-2.71-.19,1-14,2.71,.19Z"/><path class="cls-16" d="M440.39,287.45l.75-10.45,2.71,.19-.75,10.45,13.82,.99-.17,2.41-26.37-1.89,.17-2.41,9.84,.7Zm-5.02-20.36l19.57,1.4-.31,4.4c-.13,1.87-.33,3.67-.58,5.42-.26,1.75-.55,3.53-.88,5.34l-2.6-.46c.34-1.71,.62-3.38,.83-5.01,.21-1.63,.37-3.29,.49-4.97l.18-2.5-16.86-1.21,.17-2.41Z"/><path class="cls-16" d="M460.07,288.56l.81-11.32,10.63,.76,.44-6.11-10.63-.76,.17-2.41,13.34,.95-.78,10.93-10.63-.76-.47,6.5,5.51,.39c1.44,.1,2.81,.18,4.1,.23,1.29,.05,2.62,.05,4-.02l.07,2.34c-1.54,.09-3.01,.11-4.41,.06-1.4-.05-2.85-.13-4.36-.24l-7.8-.56Zm23.13-19.53l-1.96,27.31-2.71-.19,1.96-27.31,2.71,.19Z"/><path class="cls-16" d="M512.34,283.86l-.17,2.41-26.37-1.89,.17-2.41,26.37,1.89Zm-12.75-7c-.45,.39-1.07,.76-1.85,1.11-.78,.35-1.65,.67-2.61,.98-.96,.3-1.98,.57-3.07,.81-1.09,.24-2.15,.44-3.19,.6l-.62-2.31c1.2-.2,2.41-.42,3.6-.68,1.2-.26,2.28-.55,3.26-.89,.97-.33,1.77-.71,2.38-1.13,.61-.42,.94-.9,.98-1.44l.06-.84-8.46-.61,.17-2.41,19.57,1.4-.17,2.41-8.46-.61-.06,.84c-.04,.54,.22,1.06,.77,1.57,.55,.5,1.28,.99,2.2,1.46,.91,.47,1.95,.92,3.1,1.34,1.15,.43,2.31,.82,3.47,1.19l-.94,2.2c-1.01-.31-2.03-.66-3.07-1.05-1.04-.39-2.02-.8-2.92-1.24-.91-.44-1.72-.88-2.45-1.34-.72-.46-1.28-.91-1.67-1.36Zm8.15,21.37l-19.27-1.38,.68-9.54,19.27,1.38-.68,9.54Zm-16.39-3.59l13.85,.99,.34-4.73-13.85-.99-.34,4.73Z"/></g><path class="cls-17" d="M604.65,392.56l-69.66-10.59c-6.59-1-11.12-7.16-10.12-13.75l5.38-35.38c1-6.59,7.16-11.12,13.75-10.12l69.66,10.59c16.36,2.49,27.61,17.77,25.12,34.13h0c-2.49,16.36-17.77,27.61-34.13,25.12Z"/><g><path class="cls-23" d="M548.59,343.04l.49-3.2,2.62,.4-.49,3.2,5,.76-.34,2.27-5-.76-.17,1.1c-.09,.62,0,1.22,.27,1.81,.28,.59,.66,1.15,1.16,1.69,.49,.54,1.05,1.06,1.67,1.55,.62,.49,1.22,.94,1.79,1.34l-1.52,1.76c-1.15-.79-2.16-1.62-3.03-2.5-.87-.88-1.56-1.82-2.08-2.83-.77,.89-1.72,1.65-2.84,2.26-1.12,.61-2.36,1.14-3.69,1.6l-1.04-2.15c.69-.23,1.41-.51,2.15-.82,.74-.31,1.43-.67,2.08-1.07,.65-.4,1.19-.85,1.65-1.36,.45-.51,.73-1.07,.82-1.69l.17-1.1-5.15-.78,.34-2.27,5.15,.78Zm-3.31,16.9l15.9,2.42,.32-2.09-15.9-2.42,.35-2.33,18.52,2.82-1.03,6.75-15.9-2.42-.37,2.44,16.34,2.48-.35,2.33-18.96-2.88,1.08-7.09Zm15.43-17.38l-.79,5.18,3.49,.53,.81-5.32,2.53,.38-2.08,13.69-2.53-.38,.92-6.05-3.49-.53-.92,6.05-2.47-.38,2.06-13.55,2.47,.38Z"/><path class="cls-23" d="M569.24,359.47l1.29-8.46,10.61,1.61,.55-3.61-10.61-1.61,.34-2.27,13.23,2.01-1.23,8.08-10.61-1.61-.61,3.98,5.23,.8c1.4,.21,2.72,.39,3.97,.53,1.25,.14,2.55,.21,3.89,.22l-.11,2.27c-1.31,0-2.62-.07-3.94-.21-1.32-.14-2.84-.34-4.56-.6l-7.44-1.13Zm2.3,2.88l2.62,.4-.91,6.02,16.34,2.48-.35,2.33-18.96-2.88,1.27-8.34Zm20.89-15.12l-2.93,19.28-2.62-.4,2.93-19.28,2.62,.4Z"/><path class="cls-23" d="M611.65,353.87l-5.96-.91-.63,4.13c-.17,1.14-.13,2.26,.15,3.34,.27,1.08,.68,2.13,1.22,3.14,.54,1.01,1.18,1.98,1.91,2.91,.73,.92,1.48,1.8,2.25,2.63l-1.85,1.59c-.59-.58-1.17-1.26-1.76-2.04-.59-.77-1.14-1.56-1.66-2.36-.52-.8-.98-1.6-1.36-2.38-.39-.78-.66-1.48-.83-2.1-.37,.64-.89,1.3-1.55,1.98-.66,.68-1.38,1.34-2.16,1.98-.78,.64-1.59,1.23-2.41,1.79-.83,.56-1.61,1.04-2.35,1.44l-1.41-2.09c1.06-.61,2.11-1.27,3.14-1.98,1.03-.71,1.97-1.48,2.81-2.32,.84-.84,1.55-1.75,2.12-2.73,.57-.97,.95-2.04,1.13-3.2l.63-4.13-6.45-.98,.35-2.33,15.03,2.28-.35,2.33Zm7.53-2.57l-4.01,26.37-2.62-.4,4.01-26.37,2.62,.4Z"/></g><g><g><path class="cls-14" d="M385.18,361.2l-.42-2.22-2.22,.42-2.51-13.34,17.78-3.35,1.26,6.67,6.67-1.26-1.26-6.67,4.45-.84,2.93,15.56-4.45,.84-1.26-6.67-6.67,1.26,.84,4.45-2.22,.42,.42,2.22-13.34,2.51Zm6.54,10.28l22.23-4.18,.42,2.22-24.45,4.6-.42-2.22-2.22,.42-1.67-8.89,4.45-.84,1.67,8.89Zm2.07-25.7l-8.89,1.67,2.09,11.11,8.89-1.67-2.09-11.11Z"/><path class="cls-14" d="M431.81,363.93l-11.11,2.09-.42-2.22-2.22,.42-4.18-22.23,15.56-2.93,.42,2.22-11.11,2.09,3.77,20.01,6.67-1.26-.42-2.22,4.45-.84,.42,2.22-2.22,.42,.42,2.22Zm11.53,.13l-4.45,.84-2.51-13.33-4.45,.84-.42-2.22,4.45-.84-2.51-13.34,4.45-.84,5.44,28.89Zm6.67-1.26l-4.45,.84-5.44-28.89,4.45-.84,5.44,28.89Z"/><path class="cls-14" d="M465.24,357.64l-8.89,1.67-.42-2.22-2.22,.42-.42-2.22-2.22,.42-2.93-15.56,2.22-.42-.42-2.22,2.22-.42-.42-2.22,8.89-1.67,.42,2.22,2.22-.42,.42,2.22,2.22-.42,2.93,15.56-2.22,.42,.42,2.22-2.22,.42,.42,2.22Zm-10.43-18.75l-2.22,.42,2.93,15.56,2.22-.42,.42,2.22,4.45-.84-.42-2.22,2.22-.42-2.93-15.56-2.22,.42-.42-2.22-4.45,.84,.42,2.22Zm26.41,18.04l-4.45,.84-5.44-28.89,4.45-.84,5.44,28.89Z"/></g><g><path class="cls-14" d="M359.67,372.35c-.25-1.25-.59-2.1-1-2.54-.42-.44-1.23-.54-2.44-.3l-2.46,.5-1.43-7.03,2.46-.5c1.21-.25,1.92-.65,2.13-1.22,.21-.57,.19-1.48-.07-2.73l-3.12-15.4c-.29-1.41-.42-2.59-.41-3.54,0-.96,.22-1.75,.64-2.39s1.06-1.15,1.91-1.55c.85-.4,1.98-.74,3.39-1.02l8.55-1.73,1.4,6.91-4.39,.89c-1.02,.21-1.63,.46-1.86,.77-.22,.31-.23,.97-.02,1.99l2.66,13.12c.36,1.76,.36,3.25,.02,4.48-.34,1.23-1.04,2.34-2.1,3.32,1.36,.5,2.44,1.24,3.23,2.24,.79,1,1.37,2.38,1.72,4.13l2.64,13c.21,1.01,.47,1.62,.8,1.82,.32,.2,.99,.2,2.01-.01l4.39-.89,1.43,7.03-8.55,1.73c-1.41,.29-2.58,.41-3.52,.38-.94-.03-1.73-.26-2.36-.68-.63-.42-1.14-1.07-1.52-1.95-.38-.88-.71-2.02-1-3.42l-3.12-15.4Z"/><path class="cls-14" d="M505.62,358.77c.29,1.41,.42,2.59,.41,3.54-.01,.96-.22,1.75-.64,2.39-.42,.63-1.06,1.15-1.91,1.55-.85,.4-1.98,.74-3.39,1.02l-8.55,1.73-1.43-7.03,4.39-.89c1.02-.21,1.63-.46,1.86-.77,.22-.31,.23-.97,.02-1.99l-2.64-13c-.36-1.76-.37-3.25-.02-4.48,.34-1.23,1.04-2.33,2.1-3.32-1.36-.5-2.44-1.24-3.23-2.24-.79-1-1.37-2.38-1.72-4.13l-2.66-13.12c-.21-1.02-.47-1.62-.8-1.82-.33-.2-.99-.19-2.01,.01l-4.39,.89-1.4-6.91,8.55-1.73c1.41-.29,2.58-.41,3.52-.38,.94,.03,1.73,.26,2.36,.68s1.14,1.07,1.52,1.95c.38,.88,.71,2.02,1,3.42l3.12,15.4c.25,1.25,.59,2.1,1,2.54,.42,.44,1.23,.54,2.44,.3l2.46-.5,1.43,7.03-2.46,.5c-1.21,.25-1.92,.65-2.13,1.22-.21,.57-.19,1.48,.07,2.73l3.12,15.4Z"/></g></g><polygon class="cls-18" points="650.66 316.01 651.96 320.93 654.72 316.65 654.43 321.73 658.37 318.52 656.53 323.26 661.28 321.42 658.06 325.36 663.14 325.08 658.86 327.83 663.78 329.13 658.86 330.43 663.14 333.19 658.06 332.9 661.28 336.85 656.53 335.01 658.37 339.75 654.43 336.53 654.72 341.61 651.96 337.34 650.66 342.26 649.36 337.34 646.61 341.61 646.89 336.53 642.95 339.75 644.79 335.01 640.04 336.85 643.26 332.9 638.18 333.19 642.46 330.43 637.54 329.13 642.46 327.83 638.18 325.08 643.26 325.36 640.04 321.42 644.79 323.26 642.95 318.52 646.89 321.73 646.61 316.65 649.36 320.93 650.66 316.01"/><g><path class="cls-6" d="M363.32,406.23l-26.87-6.94c-5.33-1.38-8.54-6.82-7.16-12.15h0c1.38-5.33,6.82-8.54,12.15-7.16"/><polygon class="cls-17" points="366.05 406.94 359.89 398.86 356.74 411.03 366.05 406.94"/></g></g><g class="cls-28"><g class="cls-25"><g><g><text class="cls-7" transform="translate(222.27 204.85) rotate(-23.72)"><tspan x="0" y="0">Friday</tspan></text><g class="cls-11"><path class="cls-19" d="M397.97,55.23v2.49c19.05,0,36.31,11.27,43.97,28.7,5.16,11.74,5.44,24.78,.78,36.73-4.65,11.95-13.68,21.37-25.42,26.52l-183.65,80.7c-6.14,2.7-12.63,4.07-19.28,4.07-19.05,0-36.31-11.27-43.97-28.7-5.16-11.74-5.44-24.78-.78-36.73,4.65-11.95,13.68-21.37,25.42-26.52L378.69,61.79c6.14-2.7,12.63-4.07,19.28-4.07v-2.49m0,0c-6.78,0-13.68,1.37-20.28,4.28l-183.65,80.7c-25.53,11.22-37.13,41.01-25.91,66.53h0c8.31,18.92,26.83,30.19,46.25,30.19,6.78,0,13.68-1.37,20.28-4.28l183.65-80.7c25.53-11.22,37.13-41.01,25.91-66.53h0c-8.31-18.92-26.83-30.19-46.25-30.19h0Z"/></g></g><g><text class="cls-7" transform="translate(-19.2 -34.43) rotate(44.38)"><tspan x="0" y="0">Tesday</tspan></text><g class="cls-11"><path class="cls-19" d="M6.86-87.44v2.49c12.62,0,24.54,4.86,33.57,13.69L183.8,69.05c9.16,8.97,14.29,20.97,14.42,33.79,.14,12.82-4.72,24.93-13.69,34.09-9.1,9.3-21.29,14.43-34.31,14.43s-24.54-4.86-33.57-13.69L-26.72-2.64c-18.92-18.51-19.25-48.96-.73-67.88,9.1-9.3,21.29-14.43,34.31-14.43v-2.49m0,0c-13.1,0-26.2,5.07-36.09,15.18h0C-48.73-52.33-48.38-20.37-28.46-.87L114.91,139.44c9.82,9.61,22.57,14.4,35.31,14.4s26.2-5.07,36.09-15.18h0c19.5-19.93,19.16-51.89-.77-71.4L42.17-73.03c-9.82-9.61-22.57-14.4-35.31-14.4h0Z"/></g></g><g><text class="cls-7" transform="translate(574.29 570.81) rotate(12.52)"><tspan x="0" y="0">Wednesday</tspan></text><g class="cls-11"><path class="cls-19" d="M566.1,497.98v3.2h0c3.44,0,6.9,.38,10.3,1.14l388.92,86.36c12.33,2.74,22.86,10.11,29.64,20.77,6.78,10.65,9.01,23.31,6.27,35.64-2.35,10.56-8.3,20.08-16.76,26.79-8.35,6.62-18.77,10.26-29.35,10.26-3.44,0-6.91-.38-10.3-1.14l-388.92-86.36c-25.45-5.65-41.56-30.96-35.91-56.41,2.35-10.56,8.3-20.08,16.76-26.79,8.35-6.62,18.77-10.26,29.35-10.26v-3.2m0,0c-23.15,0-44.01,16.02-49.24,39.55h0c-6.04,27.22,11.12,54.19,38.34,60.23l388.92,86.36c3.69,.82,7.37,1.21,10.99,1.21,23.15,0,44.01-16.02,49.24-39.55h0c6.04-27.22-11.12-54.19-38.34-60.23l-388.92-86.36c-3.69-.82-7.37-1.21-10.99-1.21h0Z"/></g></g><g class="cls-11"><text class="cls-10" transform="translate(-36.12 342.18) rotate(21.86)"><tspan x="0" y="0">Thursday</tspan></text><path class="cls-19" d="M-20.02,276.41v2.82h0c5.96,0,11.82,1.14,17.41,3.38l266.11,106.79c23.95,9.61,35.61,36.91,26,60.86l-.65,1.62c-7.16,17.85-24.22,29.38-43.45,29.38-5.97,0-11.82-1.14-17.41-3.38L-38.12,371.09c-23.95-9.61-35.61-36.91-26-60.86l.65-1.62c7.16-17.85,24.22-29.38,43.45-29.38v-2.82m0,0c-19.67,0-38.29,11.78-46.06,31.15l-.65,1.62c-10.2,25.43,2.14,54.32,27.57,64.52l266.11,106.79c6.06,2.43,12.31,3.58,18.46,3.58,19.67,0,38.29-11.78,46.06-31.15l.65-1.62c10.2-25.43-2.14-54.32-27.57-64.52L-1.56,280c-6.06-2.43-12.31-3.58-18.46-3.58h0Z"/></g><g class="cls-11"><text class="cls-10" transform="translate(806.5 91.93) rotate(-13.31)"><tspan x="0" y="0">Sunday</tspan></text><path class="cls-19" d="M1061.2-36.69c10.35,0,20.58,3.53,28.79,9.95,8.45,6.6,14.23,15.63,16.71,26.09l.4,1.7c2.88,12.16,.85,24.72-5.72,35.36-6.57,10.64-16.88,18.08-29.05,20.96l-279.04,66.02c-3.56,.84-7.2,1.27-10.82,1.27-10.35,0-20.58-3.53-28.79-9.94-8.45-6.6-14.23-15.63-16.71-26.09l-.4-1.7c-2.88-12.16-.85-24.72,5.72-35.36,6.57-10.64,16.88-18.08,29.05-20.96l279.04-66.02c3.56-.84,7.2-1.27,10.82-1.27h0m0-2.82c-3.78,0-7.63,.44-11.46,1.34L770.69,27.86c-26.66,6.31-43.17,33.04-36.86,59.7l.4,1.7c5.4,22.83,25.76,38.2,48.24,38.2,3.78,0,7.63-.44,11.46-1.34l279.04-66.02c26.66-6.31,43.17-33.04,36.86-59.7l-.4-1.7c-5.4-22.83-25.76-38.2-48.24-38.2h0Z"/></g><g class="cls-11"><text class="cls-10" transform="translate(-165.98 676.58) rotate(-1.16)"><tspan x="0" y="0">Sunday</tspan></text><path class="cls-19" d="M100.17,603.44c12.3,0,23.92,4.74,32.72,13.36,8.81,8.62,13.8,20.17,14.05,32.49l.04,1.75c.25,12.5-4.38,24.35-13.03,33.36-8.66,9.02-20.31,14.12-32.81,14.37l-286.68,5.8c-.32,0-.65,0-.97,0-12.3,0-23.92-4.74-32.72-13.36-8.81-8.62-13.8-20.17-14.05-32.5l-.04-1.75c-.25-12.5,4.38-24.35,13.03-33.36,8.66-9.02,20.31-14.12,32.81-14.37l286.68-5.8c.32,0,.65,0,.97,0h0m0-2.82c-.34,0-.68,0-1.02,.01l-286.68,5.8c-27.4,.55-49.15,23.21-48.6,50.61l.04,1.75c.55,27.05,22.65,48.61,49.58,48.61,.34,0,.68,0,1.02-.01l286.68-5.8c27.4-.55,49.15-23.21,48.6-50.61l-.04-1.75c-.55-27.05-22.65-48.61-49.58-48.61h0Z"/></g><g class="cls-27"><rect class="cls-19" x="458.99" y="113.89" width="385.97" height="100.98" rx="49.61" ry="49.61" transform="translate(40.5 -115.25) rotate(10.42)"/><text class="cls-9" transform="translate(518.8 160.31) rotate(10.42)"><tspan x="0" y="0">Monday</tspan></text></g><g><g class="cls-11"><rect class="cls-3" x="190.62" y="615.37" width="350.85" height="102.31" rx="51.16" ry="51.16" transform="translate(1040.69 1017.4) rotate(146.25)"/></g><g class="cls-11"><line class="cls-4" x1="267.73" y1="733.06" x2="474.05" y2="594.71"/><polyline class="cls-4" points="462.06 639.35 474.05 594.71 428.2 588.85"/></g></g><g><g class="cls-11"><path class="cls-19" d="M861.63,317.63v2.14c19.19,0,36.57,11.35,44.29,28.91,10.72,24.41-.41,52.99-24.81,63.71l-111.87,49.16c-6.19,2.72-12.72,4.1-19.42,4.1-19.19,0-36.57-11.35-44.29-28.91-10.72-24.41,.41-52.99,24.81-63.71l111.87-49.16c6.19-2.72,12.72-4.1,19.42-4.1v-2.14m0,0c-6.78,0-13.68,1.37-20.28,4.28l-111.87,49.16c-25.53,11.22-37.13,41.01-25.91,66.53h0c8.31,18.92,26.83,30.19,46.25,30.19,6.78,0,13.68-1.38,20.28-4.28l111.87-49.16c25.53-11.22,37.13-41.01,25.91-66.53h0c-8.31-18.92-26.83-30.19-46.25-30.19h0Z"/></g><g class="cls-27"><path class="cls-19" d="M756.56,417.88l-3.06-6.96,18.93-24.65,3.11,7.08-13.88,17.86,.2,.46,22.54,1.86,3.11,7.08-30.95-2.73Z"/><path class="cls-19" d="M800.72,424.98l-3.8-60.47,6.67-2.93,3.8,60.47-6.67,2.93Z"/><path class="cls-19" d="M829.07,393.91l13.88-17.86-.2-.46-22.54-1.86-3.11-7.08,30.95,2.73,3.06,6.96-18.93,24.65-3.11-7.08Z"/></g></g></g></g></g><g><g><rect class="cls-17" x="343.5" y="287.57" width="4.52" height="29.44" transform="translate(-53.27 74.91) rotate(-11.49)"/><rect class="cls-17" x="343.5" y="287.57" width="4.52" height="29.44" transform="translate(573.14 -96.74) rotate(78.51)"/></g><g><rect class="cls-17" x="343.5" y="287.57" width="4.52" height="29.44" transform="translate(224.38 -140.65) rotate(33.51)"/><rect class="cls-17" x="343.5" y="287.57" width="4.52" height="29.44" transform="translate(788.69 180.91) rotate(123.51)"/></g></g></svg>