<?xml version="1.0" encoding="UTF-8"?><svg id="_이어_1" xmlns="http://www.w3.org/2000/svg" xmlns:xlink="http://www.w3.org/1999/xlink" viewBox="0 0 1920 762"><defs><style>.cls-1,.cls-2,.cls-3,.cls-4,.cls-5{fill:none;}.cls-6{stroke:#fff;stroke-width:.93px;}.cls-6,.cls-2,.cls-7,.cls-8,.cls-9,.cls-3,.cls-10,.cls-4,.cls-5{stroke-miterlimit:10;}.cls-6,.cls-11,.cls-12{fill:#fff;}.cls-2,.cls-3,.cls-4{stroke:#d6cef1;}.cls-2,.cls-4{stroke-width:6px;}.cls-13{clip-path:url(#clippath);}.cls-14{opacity:.05;}.cls-15{font-size:151.79px;}.cls-15,.cls-16,.cls-17,.cls-18{fill:#c7c6d7;}.cls-15,.cls-16,.cls-7,.cls-18{font-family:Poppins-SemiBold, Poppins;}.cls-15,.cls-16,.cls-19{opacity:.2;}.cls-16,.cls-7,.cls-18{font-size:151.79px;}.cls-20,.cls-4{opacity:.1;}.cls-21{fill:#f7f0cd;}.cls-22{fill:#ffb80b;}.cls-23{fill:#ff6000;}.cls-24{fill:#d6cef1;}.cls-25{letter-spacing:-.05em;}.cls-25,.cls-26,.cls-27{font-family:Pretendard-Medium-KSCpc-EUC-H, Pretendard;}.cls-7{stroke-width:2.56px;}.cls-7,.cls-8,.cls-9,.cls-10{fill:#2b2d36;stroke:#2b2d36;}.cls-8{stroke-width:2px;}.cls-9{stroke-width:2.09px;}.cls-3{stroke-width:26px;}.cls-10{stroke-width:1.93px;}.cls-26{letter-spacing:-.04em;}.cls-27,.cls-28{letter-spacing:-.04em;}.cls-29{opacity:.3;}.cls-30{opacity:.25;}.cls-31{opacity:.5;}.cls-12{font-size:30px;}.cls-28{font-family:Poppins-Medium, Poppins;}.cls-5{stroke:#ffb80b;stroke-width:7px;}</style><clipPath id="clippath"><rect class="cls-1" y="0" width="1920" height="762"/></clipPath></defs><rect class="cls-8" y="0" width="1920" height="762"/><rect class="cls-1" y="0" width="1920" height="762"/><g><text class="cls-12" transform="translate(823.11 570.72)"><tspan class="cls-27"><tspan x="0" y="0">직접 해봐야 실력이 는다!</tspan></tspan><tspan class="cls-27" x="-144.25" y="41.89">매주 월요일</tspan><tspan class="cls-25" x="-14.53" y="41.89">,</tspan><tspan class="cls-26" x="-8.02" y="41.89" xml:space="preserve"> 구름</tspan><tspan class="cls-28" x="47.54" y="41.89">LEVEL</tspan><tspan class="cls-27" x="120.43" y="41.89">과 함께 알고리즘 문제 풀기</tspan></text><g><circle class="cls-21" cx="1195.85" cy="239.83" r="74.91"/><polygon class="cls-9" points="1233.32 257.86 1232.56 202.1 1176.8 202.86 1177.04 220.61 1202.26 220.27 1152.64 270.47 1165.27 282.95 1215.22 232.41 1215.57 258.1 1233.32 257.86"/></g><rect class="cls-23" x="648.88" y="158.21" width="435.87" height="149.82" rx="74.91" ry="74.91" transform="translate(18.86 -61.31) rotate(4.1)"/><g><path class="cls-6" d="M733.58,205.72c.17-2.36,.75-4.47,1.74-6.34,.99-1.87,2.33-3.43,4-4.67,1.68-1.24,3.65-2.16,5.91-2.75,2.26-.59,4.75-.8,7.46-.6,2.71,.19,5.14,.75,7.3,1.66,2.15,.91,3.97,2.1,5.46,3.57,1.48,1.47,2.58,3.2,3.3,5.19,.71,1.99,.99,4.17,.82,6.53s-.75,4.47-1.74,6.34c-.99,1.87-2.33,3.43-4,4.67-1.68,1.24-3.65,2.16-5.91,2.75-2.26,.59-4.75,.79-7.46,.6-2.71-.19-5.14-.75-7.3-1.66-2.15-.91-3.97-2.1-5.46-3.57-1.48-1.47-2.58-3.2-3.3-5.19-.72-1.99-.99-4.17-.82-6.53Zm6.62,.47c-.1,1.46,.09,2.81,.58,4.05,.49,1.25,1.21,2.33,2.15,3.26,.94,.93,2.09,1.68,3.43,2.25,1.35,.58,2.85,.92,4.5,1.04,1.66,.12,3.19-.01,4.61-.39,1.41-.38,2.65-.96,3.72-1.74,1.06-.78,1.93-1.75,2.59-2.92,.66-1.16,1.05-2.47,1.15-3.93s-.09-2.81-.58-4.05c-.49-1.25-1.21-2.33-2.15-3.26-.94-.92-2.09-1.67-3.43-2.25-1.35-.58-2.85-.92-4.5-1.04-1.66-.12-3.19,.01-4.6,.39-1.41,.38-2.65,.96-3.72,1.74-1.07,.78-1.93,1.75-2.59,2.92-.66,1.16-1.05,2.47-1.15,3.93Zm-1.04,33.59l39.37,2.82,.4-5.65-39.37-2.82,.43-6.02,46.14,3.3-1.27,17.69-39.37-2.82-.47,6.55,40.49,2.9-.43,6.02-47.27-3.38,1.33-18.59Zm49.72-46.75l-.92,12.87,10.69,.77-.43,6.02-10.69-.77-1.15,16.11-6.77-.49,2.51-35,6.77,.49Z"/><path class="cls-6" d="M821.64,249.1l1.87-26.12,6.77,.49-1.87,26.12,34.55,2.47-.43,6.02-65.94-4.72,.43-6.02,24.61,1.76Zm-12.55-50.91l48.92,3.5-.79,10.99c-.33,4.67-.82,9.18-1.46,13.55-.64,4.37-1.38,8.82-2.2,13.35l-6.5-1.15c.86-4.28,1.55-8.45,2.07-12.52,.52-4.07,.93-8.22,1.23-12.43l.45-6.25-42.15-3.02,.43-6.02Z"/><path class="cls-6" d="M870.84,251.87l2.03-28.3,26.57,1.9,1.09-15.28-26.57-1.9,.43-6.02,33.34,2.39-1.96,27.32-26.57-1.9-1.16,16.26,13.77,.99c3.61,.26,7.03,.45,10.25,.58,3.22,.13,6.55,.12,9.99-.04l.19,5.84c-3.85,.23-7.52,.28-11.02,.16-3.5-.12-7.13-.32-10.89-.59l-19.49-1.4Zm57.82-48.82l-4.89,68.27-6.77-.49,4.89-68.27,6.77,.49Z"/><path class="cls-6" d="M1001.51,240.11l-.43,6.02-65.94-4.72,.43-6.02,65.94,4.72Zm-31.88-17.49c-1.13,.98-2.67,1.9-4.62,2.77-1.95,.87-4.13,1.68-6.53,2.45-2.4,.76-4.96,1.44-7.67,2.02-2.72,.59-5.37,1.09-7.98,1.51l-1.55-5.79c3.01-.49,6.01-1.06,9.01-1.7,3-.64,5.71-1.38,8.14-2.22,2.43-.83,4.41-1.78,5.95-2.83,1.54-1.05,2.36-2.25,2.45-3.61l.15-2.11-21.15-1.51,.43-6.02,48.92,3.5-.43,6.02-21.15-1.51-.15,2.11c-.1,1.35,.54,2.66,1.91,3.92,1.37,1.26,3.2,2.47,5.49,3.65,2.29,1.17,4.87,2.29,7.74,3.35,2.87,1.06,5.77,2.05,8.68,2.97l-2.36,5.51c-2.52-.79-5.08-1.66-7.68-2.63-2.6-.97-5.04-2-7.31-3.09-2.27-1.1-4.31-2.21-6.12-3.35-1.81-1.14-3.2-2.27-4.18-3.4Zm20.38,53.43l-48.17-3.45,1.71-23.86,48.17,3.45-1.71,23.86Zm-40.97-8.99l34.62,2.48,.85-11.82-34.62-2.48-.85,11.82Z"/></g><path class="cls-22" d="M1232.31,511.88l-174.17-26.48c-16.48-2.5-27.8-17.89-25.3-34.37l13.45-88.46c2.5-16.48,17.89-27.8,34.37-25.3l174.17,26.48c40.9,6.22,69.02,44.42,62.8,85.32h0c-6.22,40.9-44.42,69.02-85.32,62.8Z"/><g><path class="cls-10" d="M1092.16,388.07l1.22-8,6.54,.99-1.22,8,12.5,1.9-.86,5.67-12.5-1.9-.42,2.76c-.24,1.55,0,3.06,.69,4.53,.69,1.47,1.66,2.88,2.89,4.23,1.23,1.35,2.62,2.64,4.17,3.87,1.55,1.23,3.04,2.35,4.47,3.36l-3.79,4.41c-2.87-1.97-5.4-4.06-7.57-6.24-2.17-2.19-3.91-4.55-5.21-7.08-1.93,2.24-4.3,4.12-7.11,5.65-2.81,1.53-5.89,2.86-9.23,3.99l-2.6-5.38c1.72-.58,3.51-1.26,5.37-2.05,1.85-.78,3.59-1.67,5.2-2.67,1.61-.99,2.99-2.12,4.12-3.39,1.13-1.27,1.82-2.67,2.06-4.22l.42-2.76-12.87-1.96,.86-5.67,12.87,1.96Zm-8.28,42.25l39.76,6.04,.8-5.23-39.76-6.04,.88-5.82,46.3,7.04-2.56,16.86-39.76-6.04-.93,6.11,40.85,6.21-.88,5.82-47.39-7.2,2.7-17.74Zm38.58-43.44l-1.97,12.94,8.72,1.33,2.02-13.3,6.32,.96-5.2,34.24-6.32-.96,2.3-15.12-8.72-1.33-2.3,15.12-6.18-.94,5.15-33.87,6.18,.94Z"/><path class="cls-10" d="M1143.77,429.15l3.22-21.15,26.53,4.03,1.37-9.01-26.53-4.03,.86-5.67,33.07,5.03-3.07,20.21-26.53-4.03-1.51,9.96,13.08,1.99c3.49,.53,6.79,.97,9.91,1.32,3.12,.35,6.36,.53,9.73,.55l-.27,5.69c-3.27,0-6.55-.18-9.85-.53-3.29-.35-7.1-.86-11.41-1.51l-18.61-2.83Zm5.75,7.2l6.54,.99-2.29,15.05,40.85,6.21-.88,5.82-47.39-7.2,3.17-20.86Zm52.23-37.8l-7.33,48.19-6.54-.99,7.33-48.19,6.54,.99Z"/><path class="cls-10" d="M1249.79,415.15l-14.9-2.27-1.57,10.32c-.43,2.86-.31,5.64,.37,8.35,.68,2.71,1.69,5.33,3.04,7.86,1.35,2.54,2.94,4.96,4.77,7.27,1.83,2.31,3.7,4.5,5.62,6.58l-4.62,3.98c-1.46-1.46-2.93-3.16-4.39-5.09-1.47-1.93-2.85-3.9-4.16-5.91-1.31-2.01-2.44-3.99-3.41-5.95-.97-1.96-1.66-3.71-2.06-5.26-.94,1.59-2.23,3.24-3.88,4.95-1.65,1.71-3.45,3.36-5.4,4.94-1.95,1.59-3.96,3.08-6.04,4.47-2.07,1.4-4.03,2.6-5.87,3.61l-3.52-5.22c2.66-1.53,5.28-3.18,7.85-4.94,2.57-1.77,4.91-3.7,7.02-5.81,2.11-2.11,3.88-4.38,5.31-6.82,1.44-2.43,2.38-5.11,2.82-8.01l1.57-10.32-16.14-2.45,.88-5.82,37.58,5.71-.88,5.82Zm18.83-6.43l-10.02,65.93-6.54-.99,10.02-65.93,6.54,.99Z"/></g><g><g><path class="cls-11" d="M683.61,433.48l-1.05-5.56-5.56,1.05-6.28-33.34,44.45-8.37,3.14,16.67,16.67-3.14-3.14-16.67,11.11-2.09,7.32,38.9-11.11,2.09-3.14-16.68-16.67,3.14,2.09,11.11-5.56,1.05,1.05,5.56-33.34,6.28Zm16.34,25.69l55.57-10.46,1.05,5.56-61.12,11.51-1.05-5.56-5.56,1.05-4.18-22.22,11.11-2.09,4.18,22.22Zm5.16-64.26l-22.23,4.18,5.23,27.78,22.23-4.18-5.23-27.78Z"/><path class="cls-11" d="M800.19,440.3l-27.78,5.23-1.04-5.55-5.56,1.05-10.46-55.57,38.9-7.32,1.04,5.55-27.78,5.23,9.42,50.02,16.67-3.14-1.05-5.56,11.11-2.09,1.04,5.55-5.56,1.05,1.05,5.56Zm28.83,.32l-11.11,2.09-6.27-33.33-11.11,2.09-1.04-5.55,11.11-2.09-6.28-33.35,11.11-2.09,13.6,72.23Zm16.67-3.14l-11.11,2.09-13.6-72.23,11.11-2.09,13.6,72.23Z"/><path class="cls-11" d="M883.76,424.57l-22.23,4.18-1.05-5.56-5.56,1.05-1.05-5.56-5.56,1.05-7.32-38.9,5.56-1.05-1.05-5.56,5.56-1.05-1.05-5.56,22.23-4.18,1.05,5.56,5.56-1.05,1.05,5.56,5.56-1.05,7.32,38.9-5.56,1.05,1.05,5.56-5.56,1.05,1.05,5.56Zm-26.08-46.87l-5.56,1.05,7.32,38.9,5.56-1.05,1.05,5.56,11.11-2.09-1.05-5.56,5.56-1.05-7.32-38.9-5.56,1.05-1.05-5.56-11.11,2.09,1.05,5.56Zm66.02,45.1l-11.11,2.09-13.6-72.23,11.11-2.09,13.6,72.23Z"/></g><g><path class="cls-11" d="M619.83,461.34c-.63-3.12-1.47-5.24-2.51-6.35-1.04-1.11-3.07-1.36-6.1-.74l-6.15,1.25-3.56-17.57,6.15-1.25c3.02-.61,4.8-1.63,5.32-3.06,.52-1.43,.47-3.7-.16-6.83l-7.81-38.51c-.71-3.51-1.06-6.47-1.04-8.86,.02-2.39,.56-4.38,1.61-5.97,1.05-1.58,2.64-2.87,4.78-3.87,2.14-.99,4.96-1.84,8.47-2.56l21.38-4.34,3.5,17.28-10.98,2.23c-2.54,.52-4.09,1.16-4.64,1.93-.56,.77-.57,2.43-.06,4.97l6.65,32.8c.89,4.39,.91,8.12,.06,11.19-.85,3.07-2.6,5.84-5.25,8.31,3.4,1.24,6.09,3.11,8.07,5.6,1.98,2.5,3.41,5.94,4.31,10.33l6.59,32.5c.51,2.54,1.18,4.05,1.99,4.55,.81,.5,2.49,.49,5.03-.03l10.98-2.23,3.56,17.57-21.38,4.34c-3.51,.71-6.45,1.03-8.8,.95-2.36-.08-4.32-.65-5.91-1.7-1.58-1.05-2.86-2.67-3.81-4.87-.95-2.19-1.79-5.05-2.5-8.56l-7.81-38.51Z"/><path class="cls-11" d="M984.72,427.41c.71,3.51,1.06,6.47,1.04,8.86-.03,2.39-.56,4.38-1.61,5.97-1.05,1.59-2.64,2.87-4.78,3.87-2.14,.99-4.96,1.85-8.47,2.56l-21.38,4.34-3.56-17.57,10.98-2.23c2.54-.51,4.08-1.16,4.64-1.93,.55-.77,.57-2.43,.06-4.97l-6.59-32.5c-.89-4.39-.91-8.12-.06-11.19,.85-3.07,2.6-5.84,5.25-8.31-3.4-1.24-6.09-3.11-8.07-5.6-1.98-2.49-3.41-5.94-4.31-10.33l-6.65-32.8c-.51-2.54-1.18-4.05-1.99-4.55-.81-.49-2.49-.49-5.02,.03l-10.98,2.23-3.5-17.28,21.38-4.34c3.51-.71,6.45-1.03,8.8-.95,2.35,.08,4.32,.65,5.91,1.7s2.85,2.67,3.81,4.87c.95,2.2,1.79,5.05,2.5,8.56l7.81,38.51c.63,3.12,1.47,5.24,2.51,6.35,1.04,1.11,3.07,1.36,6.1,.74l6.15-1.25,3.56,17.57-6.15,1.25c-3.03,.61-4.8,1.64-5.32,3.06-.53,1.43-.47,3.7,.16,6.83l7.81,38.51Z"/></g></g><polygon class="cls-23" points="1347.33 320.5 1350.58 332.8 1357.47 322.11 1356.76 334.81 1366.61 326.77 1362.01 338.63 1373.87 334.02 1365.83 343.88 1378.53 343.17 1367.84 350.06 1380.14 353.31 1367.84 356.56 1378.53 363.45 1365.83 362.73 1373.87 372.59 1362.01 367.99 1366.61 379.85 1356.76 371.81 1357.47 384.51 1350.58 373.81 1347.33 386.11 1344.08 373.81 1337.19 384.51 1337.91 371.81 1328.05 379.85 1332.65 367.99 1320.79 372.59 1328.83 362.73 1316.13 363.45 1326.83 356.56 1314.52 353.31 1326.83 350.06 1316.13 343.17 1328.83 343.88 1320.79 334.02 1332.65 338.63 1328.05 326.77 1337.91 334.81 1337.19 322.11 1344.08 332.8 1347.33 320.5"/><g><path class="cls-5" d="M628.96,546.07l-67.17-17.35c-13.33-3.44-21.35-17.04-17.91-30.38h0c3.44-13.33,17.04-21.35,30.38-17.91"/><polygon class="cls-22" points="635.78 547.83 620.37 527.62 612.51 558.05 635.78 547.83"/></g></g><g><g class="cls-30"><g class="cls-13"><g class="cls-31"><g><text class="cls-16" transform="translate(249.92 253.49) rotate(-23.72)"><tspan x="0" y="0">Friday</tspan></text><g class="cls-19"><path class="cls-24" d="M670.98-105.04v5.96c45.64,0,86.99,26.99,105.35,68.77,12.36,28.12,13.02,59.38,1.88,88-11.15,28.63-32.78,51.2-60.9,63.55l-440.02,193.36c-14.72,6.47-30.26,9.75-46.2,9.75-45.64,0-87-26.99-105.35-68.77-12.36-28.12-13.02-59.38-1.88-88,11.15-28.63,32.78-51.2,60.9-63.55L624.77-89.33c14.72-6.47,30.26-9.75,46.2-9.75v-5.96m0,0c-16.25,0-32.77,3.29-48.6,10.25L182.35,98.56c-61.16,26.88-88.96,98.25-62.08,159.41h0c19.92,45.33,64.28,72.33,110.81,72.33,16.25,0,32.77-3.29,48.6-10.25L719.71,126.71c61.16-26.88,88.96-98.25,62.08-159.41h0c-19.92-45.33-64.28-72.33-110.81-72.33h0Z"/></g></g><g><text class="cls-15" transform="translate(972.39 742.7) rotate(12.52)"><tspan x="0" y="0">Wednesday</tspan></text><g class="cls-19"><path class="cls-24" d="M952.76,575.87c8.24,0,16.54,.92,24.67,2.72l931.85,206.93c29.54,6.56,54.76,24.23,71.01,49.76,16.25,25.53,21.59,55.86,15.03,85.4-5.62,25.31-19.88,48.11-40.16,64.18-20,15.85-44.97,24.58-70.32,24.58-8.24,0-16.55-.92-24.67-2.72l-931.85-206.93c-29.54-6.56-54.76-24.23-71.01-49.76-16.25-25.53-21.59-55.86-15.03-85.4,5.62-25.31,19.88-48.11,40.16-64.18,20-15.85,44.97-24.58,70.33-24.58h0m0-7.67c-55.46,0-105.46,38.38-117.98,94.77h0c-14.48,65.22,26.65,129.83,91.87,144.32l931.85,206.93c8.83,1.96,17.65,2.9,26.34,2.9,55.46,0,105.46-38.38,117.98-94.77h0c14.48-65.22-26.65-129.83-91.87-144.32l-931.85-206.93c-8.83-1.96-17.65-2.9-26.34-2.9h0Z"/></g></g><g class="cls-19"><text class="cls-18" transform="translate(-297.64 428.15) rotate(12.52)"><tspan x="0" y="0">Thursday</tspan></text><path class="cls-24" d="M-265.94,271.74c8.16,0,16.37,.91,24.41,2.69L429.17,423.36c29.24,6.49,54.2,23.98,70.28,49.25,16.08,25.27,21.37,55.28,14.87,84.52l-.91,4.09c-5.56,25.05-19.68,47.61-39.75,63.52-19.79,15.69-44.51,24.33-69.6,24.33-8.16,0-16.38-.91-24.42-2.69L-291.05,497.44c-29.24-6.49-54.2-23.98-70.28-49.25-16.08-25.27-21.37-55.28-14.87-84.52l.91-4.09c5.56-25.05,19.68-47.61,39.75-63.52,19.79-15.69,44.51-24.33,69.6-24.33h0m0-6.75c-54.5,0-103.63,37.72-115.94,93.13l-.91,4.09c-14.23,64.09,26.19,127.59,90.28,141.82l670.7,148.94c8.68,1.93,17.34,2.85,25.88,2.85,54.5,0,103.63-37.72,115.94-93.13l.91-4.09c14.23-64.09-26.19-127.59-90.28-141.82L-240.07,267.84c-8.68-1.93-17.34-2.85-25.88-2.85h0Z"/></g><g class="cls-29"><rect class="cls-24" x="1004.83" y="-1.59" width="924.79" height="241.94" rx="118.88" ry="118.88" transform="translate(45.81 -263.49) rotate(10.42)"/><text class="cls-7" transform="translate(1148.09 109.55) rotate(10.42)"><tspan x="0" y="0">Monday</tspan></text></g><g class="cls-19"><path class="cls-24" d="M2168.67,235.59c50.96,0,95.54,34.49,108.41,83.88l1.06,4.05c7.55,28.98,3.37,59.17-11.79,85.01-15.15,25.83-39.46,44.22-68.44,51.78l-664.83,173.26c-9.3,2.42-18.84,3.65-28.36,3.65-50.97,0-95.55-34.49-108.43-83.88l-1.06-4.05c-7.55-28.98-3.37-59.17,11.79-85.01,15.15-25.83,39.46-44.22,68.44-51.78l664.83-173.26c9.3-2.42,18.84-3.65,28.36-3.65h0m-.01-6.75c-9.92,0-20.01,1.25-30.06,3.87l-664.83,173.26c-63.53,16.56-101.61,81.48-85.06,145.01l1.06,4.05c13.94,53.48,62.15,88.93,114.95,88.93,9.92,0,20.01-1.25,30.06-3.87l664.83-173.26c63.53-16.56,101.61-81.48,85.06-145.01l-1.06-4.05c-13.94-53.48-62.15-88.93-114.95-88.93h0Z"/></g><g><g class="cls-19"><rect class="cls-2" x="-5.23" y="719.5" width="840.64" height="245.15" rx="122.57" ry="122.57" transform="translate(1216.22 1331.55) rotate(147.66)"/></g><g class="cls-19"><line class="cls-3" x1="175.66" y1="995.63" x2="678.02" y2="676.43"/><polyline class="cls-3" points="646.67 782.65 678.02 676.43 568.54 659.69"/></g></g></g><rect class="cls-4" x="-84.72" y="-266.04" width="268.55" height="403.63" rx="134.28" ry="134.28" transform="translate(38.75 16.17) rotate(-30)"/><g class="cls-20"><path class="cls-24" d="M-66.93,590.22h0c1.31,0,2.65,.02,3.97,.06l135.01,4.1c34.25,1.04,66.04,15.35,89.52,40.31,23.48,24.95,35.84,57.56,34.8,91.8-1.02,33.56-14.86,64.9-38.97,88.25-24.06,23.3-55.73,36.14-89.17,36.14-1.31,0-2.65-.02-3.97-.06l-135.01-4.1c-34.25-1.04-66.04-15.35-89.52-40.31-23.48-24.95-35.84-57.56-34.8-91.8,1.02-33.56,14.86-64.9,38.97-88.25,24.06-23.3,55.73-36.14,89.17-36.14m0-6c-72.27,0-131.93,57.47-134.14,130.2h0c-2.25,74.13,56.02,136.04,130.14,138.29l135.01,4.1c1.39,.04,2.77,.06,4.15,.06,72.27,0,131.93-57.47,134.14-130.2h0c2.25-74.13-56.02-136.04-130.14-138.29l-135.01-4.1c-1.39-.04-2.77-.06-4.15-.06h0Z"/></g></g></g><g class="cls-14"><g><path class="cls-17" d="M1598.9,506.66l-4.59-17.63,54.13-51.13,4.67,17.92-39.61,36.99,.31,1.17,52.63,12.95,4.67,17.92-72.2-18.2Z"/><path class="cls-17" d="M1700.66,540.22l13.95-144.5,16.89-4.4-13.95,144.5-16.89,4.4Z"/><path class="cls-17" d="M1779.52,477.47l39.62-36.99-.31-1.17-52.63-12.95-4.67-17.92,72.2,18.2,4.59,17.63-54.13,51.13-4.67-17.92Z"/></g></g></g><g><g><rect class="cls-22" x="582.19" y="249.39" width="11.17" height="72.82" transform="translate(-45.14 122.78) rotate(-11.49)"/><rect class="cls-22" x="582.19" y="249.39" width="11.17" height="72.82" transform="translate(750.8 -347.12) rotate(78.51)"/></g><g><rect class="cls-22" x="582.19" y="249.39" width="11.17" height="72.82" transform="translate(255.51 -277.02) rotate(33.51)"/><rect class="cls-22" x="582.19" y="249.39" width="11.17" height="72.82" transform="translate(1150.59 -46.47) rotate(123.51)"/></g></g></svg>