<?xml version="1.0" encoding="UTF-8"?><svg id="_이어_1" xmlns="http://www.w3.org/2000/svg" xmlns:xlink="http://www.w3.org/1999/xlink" viewBox="0 0 1199 678"><defs><style>.cls-1,.cls-2,.cls-3,.cls-4,.cls-5,.cls-6{fill:none;}.cls-2{stroke-width:6px;}.cls-2,.cls-3,.cls-4,.cls-5{stroke:#d6cef1;}.cls-2,.cls-3,.cls-4,.cls-5,.cls-7,.cls-8,.cls-9,.cls-10,.cls-11,.cls-6{stroke-miterlimit:10;}.cls-12{clip-path:url(#clippath);}.cls-13{opacity:.05;}.cls-14{font-size:151.79px;}.cls-14,.cls-15,.cls-16,.cls-17,.cls-18{fill:#c7c6d7;}.cls-14,.cls-15,.cls-16,.cls-8,.cls-18{font-family:Poppins-SemiBold, Poppins;}.cls-14,.cls-15,.cls-16,.cls-19{opacity:.2;}.cls-15,.cls-18{font-size:118.03px;}.cls-16,.cls-8{font-size:118.03px;}.cls-20{fill:#f7f0cd;}.cls-21,.cls-22,.cls-11{fill:#fff;}.cls-23{fill:#ffb80b;}.cls-24{fill:#ff6000;}.cls-25{fill:#d6cef1;}.cls-26{letter-spacing:-.05em;}.cls-26,.cls-27{font-family:Pretendard-Medium-KSCpc-EUC-H, Pretendard;}.cls-3{stroke-width:4.67px;}.cls-28{clip-path:url(#clippath-1);}.cls-4{stroke-width:26px;}.cls-5{stroke-width:20.22px;}.cls-7{stroke-width:1.64px;}.cls-7,.cls-8,.cls-9,.cls-10{fill:#2b2d36;stroke:#2b2d36;}.cls-27,.cls-29{letter-spacing:-.04em;}.cls-8{stroke-width:1.99px;}.cls-30{opacity:.3;}.cls-31{opacity:.25;}.cls-32{opacity:.5;}.cls-9{stroke-width:1.49px;}.cls-10{stroke-width:1.52px;}.cls-29{font-family:Poppins-Medium, Poppins;}.cls-22{font-size:23.6px;}.cls-11{stroke:#fff;stroke-width:.73px;}.cls-6{stroke:#ffb80b;stroke-width:5.51px;}</style><clipPath id="clippath"><rect class="cls-1" x="0" width="1199" height="678"/></clipPath><clipPath id="clippath-1"><rect class="cls-1" y="-911" width="1920" height="762"/></clipPath></defs><g><rect class="cls-9" x="0" width="1199" height="678"/><rect class="cls-1" x="-254.67" width="1708.35" height="678"/><g class="cls-13"><g><path class="cls-17" d="M1006.73,462.12l-4.09-15.68,48.16-45.49,4.16,15.94-35.25,32.91,.27,1.05,46.83,11.52,4.16,15.94-64.24-16.2Z"/><path class="cls-17" d="M1097.27,491.98l12.41-128.57,15.03-3.92-12.41,128.57-15.03,3.92Z"/><path class="cls-17" d="M1167.44,436.15l35.25-32.91-.27-1.05-46.83-11.52-4.16-15.94,64.24,16.2,4.09,15.68-48.16,45.49-4.16-15.94Z"/></g></g><g class="cls-12"><g class="cls-31"><g class="cls-32"><g><text class="cls-16" transform="translate(41.64 227.62) rotate(-23.72)"><tspan x="0" y="0">Friday</tspan></text><g class="cls-19"><path class="cls-25" d="M369.03-51.15v4.64c35.49,0,67.65,20.99,81.92,53.47,19.84,45.14-.75,98.01-45.9,117.85L62.9,275.16c-11.45,5.03-23.53,7.58-35.93,7.58-35.49,0-67.65-20.99-81.92-53.47-9.61-21.87-10.13-46.17-1.46-68.43,8.67-22.26,25.49-39.81,47.35-49.42L333.1-38.93c11.45-5.03,23.53-7.58,35.93-7.58v-4.64m0,0c-12.64,0-25.48,2.56-37.79,7.97L-10.92,107.17c-47.56,20.9-69.17,76.4-48.27,123.96h0c15.49,35.25,49.98,56.25,86.17,56.25,12.64,0,25.48-2.56,37.79-7.97L406.92,129.06c47.56-20.9,69.17-76.4,48.27-123.96h0c-15.49-35.25-49.98-56.25-86.17-56.25h0Z"/></g></g><g><text class="cls-15" transform="translate(603.4 632.05) rotate(12.52)"><tspan x="0" y="0">Wednesday</tspan></text><g class="cls-19"><path class="cls-25" d="M588.14,502.32c6.41,0,12.86,.71,19.18,2.12l724.59,160.9c47.42,10.53,77.43,57.68,66.9,105.1-4.37,19.68-15.46,37.41-31.23,49.91-15.55,12.33-34.97,19.11-54.68,19.11-6.41,0-12.87-.71-19.19-2.12l-724.59-160.9c-47.42-10.53-77.43-57.68-66.9-105.1,4.37-19.68,15.46-37.41,31.23-49.91,15.55-12.32,34.97-19.11,54.69-19.11h0m0-5.97c-43.12,0-82,29.85-91.74,73.69h0c-11.26,50.71,20.72,100.96,71.44,112.22l724.59,160.9c6.87,1.53,13.72,2.26,20.48,2.26,43.12,0,82-29.85,91.74-73.69h0c11.26-50.71-20.72-100.96-71.44-112.22l-724.59-160.9c-6.87-1.53-13.72-2.26-20.48-2.26h0Z"/></g></g><g class="cls-19"><text class="cls-18" transform="translate(-384.16 387.46) rotate(12.52)"><tspan x="0" y="0">Thursday</tspan></text><path class="cls-25" d="M-359.5,265.83c6.34,0,12.73,.7,18.98,2.09L181.01,383.73c46.93,10.42,76.64,57.08,66.22,104.02l-.71,3.18c-4.33,19.48-15.3,37.02-30.91,49.39-15.39,12.2-34.61,18.92-54.12,18.92-6.35,0-12.73-.7-18.99-2.09l-521.52-115.81c-46.93-10.42-76.64-57.08-66.22-104.02l.71-3.18c4.33-19.48,15.3-37.02,30.91-49.39,15.39-12.2,34.61-18.92,54.12-18.92h0m0-5.25c-42.38,0-80.58,29.33-90.15,72.42l-.71,3.18c-11.07,49.84,20.36,99.21,70.2,110.28l521.52,115.81c6.75,1.5,13.49,2.22,20.13,2.22,42.38,0,80.58-29.33,90.15-72.42l.71-3.18c11.07-49.84-20.36-99.21-70.2-110.28l-521.52-115.81c-6.75-1.5-13.49-2.22-20.13-2.22h0Z"/></g><g class="cls-30"><rect class="cls-25" x="552.77" y="9.14" width="719.1" height="188.13" rx="94.06" ry="94.06" transform="translate(33.73 -163.36) rotate(10.42)"/><text class="cls-8" transform="translate(664.19 95.58) rotate(10.42)"><tspan x="0" y="0">Monday</tspan></text></g><g class="cls-19"><path class="cls-25" d="M1281.96,297.06c40.73,0,76.37,27.57,86.65,67.04,6.04,23.17,2.69,47.3-9.42,67.94-12.11,20.65-31.54,35.35-54.7,41.38l-316.68,82.53c-7.43,1.94-15.06,2.92-22.67,2.92-40.74,0-76.37-27.57-86.66-67.04-6.04-23.17-2.69-47.3,9.42-67.94,12.11-20.65,31.54-35.35,54.7-41.38l316.68-82.53c7.43-1.94,15.06-2.92,22.67-2.92h0m0-4.44c-7.85,0-15.84,.99-23.79,3.06l-316.68,82.53c-50.27,13.1-80.4,64.47-67.3,114.74h0c11.03,42.32,49.17,70.37,90.96,70.37,7.85,0,15.84-.99,23.79-3.06l316.68-82.53c50.27-13.1,80.4-64.47,67.3-114.74h0c-11.03-42.32-49.17-70.37-90.96-70.37h0Z"/></g><g><g class="cls-19"><rect class="cls-3" x="-143.51" y="609.09" width="653.67" height="190.62" rx="95.31" ry="95.31" transform="translate(714.98 1201.51) rotate(147.66)"/></g><g class="cls-19"><line class="cls-5" x1="-2.86" y1="823.8" x2="387.77" y2="575.59"/><polyline class="cls-5" points="363.39 658.19 387.77 575.59 302.64 562.58"/></g></g></g><rect class="cls-1" x="-152.71" y="54.53" width="1492.96" height="592.52"/></g></g></g><g><text class="cls-22" transform="translate(491.83 488.74)"><tspan class="cls-27"><tspan x="0" y="0">직접 해봐야 실력이 는다!</tspan></tspan><tspan class="cls-27" x="-113.46" y="32.94">매주 월요일</tspan><tspan class="cls-26" x="-11.43" y="32.94">,</tspan><tspan class="cls-27" x="-6.31" y="32.94" xml:space="preserve"> 구름</tspan><tspan class="cls-29" x="37.39" y="32.94">LEVEL</tspan><tspan class="cls-27" x="94.72" y="32.94">과 함께 알고리즘 문제 풀기</tspan></text><g><circle class="cls-20" cx="785" cy="228.48" r="58.92"/><polygon class="cls-7" points="814.47 242.66 813.88 198.81 770.02 199.4 770.21 213.37 790.04 213.1 751.01 252.58 760.95 262.4 800.23 222.65 800.51 242.85 814.47 242.66"/></g><rect class="cls-24" x="354.8" y="164.28" width="342.82" height="117.84" rx="58.92" ry="58.92" transform="translate(17.28 -37.01) rotate(4.1)"/><g><path class="cls-11" d="M421.42,201.66c.13-1.85,.59-3.52,1.37-4.99,.78-1.47,1.83-2.7,3.15-3.67,1.32-.98,2.87-1.7,4.65-2.17,1.78-.47,3.73-.63,5.87-.47s4.04,.59,5.74,1.3c1.69,.72,3.12,1.65,4.29,2.81,1.17,1.15,2.03,2.52,2.59,4.08,.56,1.57,.78,3.28,.64,5.13s-.59,3.52-1.37,4.99c-.78,1.47-1.83,2.7-3.15,3.67-1.32,.98-2.87,1.7-4.65,2.17-1.78,.47-3.73,.62-5.87,.47-2.13-.15-4.04-.59-5.74-1.3-1.69-.72-3.12-1.65-4.29-2.81-1.17-1.16-2.03-2.52-2.59-4.08-.56-1.57-.78-3.28-.64-5.13Zm5.21,.37c-.08,1.15,.07,2.21,.46,3.19,.39,.98,.95,1.83,1.69,2.56,.74,.73,1.64,1.32,2.7,1.77,1.06,.45,2.24,.73,3.54,.82,1.3,.09,2.51,0,3.62-.31,1.11-.3,2.09-.75,2.92-1.37,.84-.61,1.52-1.38,2.04-2.29,.52-.91,.82-1.94,.91-3.09s-.07-2.21-.46-3.19c-.39-.98-.95-1.83-1.69-2.56-.74-.73-1.64-1.32-2.7-1.77-1.06-.45-2.24-.73-3.54-.82s-2.51,0-3.62,.31c-1.11,.3-2.09,.75-2.92,1.37-.84,.61-1.52,1.38-2.04,2.29-.52,.91-.82,1.94-.91,3.09Zm-.82,26.42l30.96,2.22,.32-4.44-30.96-2.22,.34-4.74,36.29,2.6-1,13.91-30.96-2.22-.37,5.15,31.85,2.28-.34,4.74-37.18-2.66,1.05-14.62Zm39.11-36.77l-.72,10.12,8.41,.6-.34,4.74-8.41-.6-.91,12.67-5.33-.38,1.97-27.53,5.33,.38Z"/><path class="cls-11" d="M490.68,235.77l1.47-20.54,5.33,.38-1.47,20.54,27.17,1.95-.34,4.74-51.86-3.71,.34-4.74,19.36,1.39Zm-9.87-40.04l38.48,2.76-.62,8.64c-.26,3.67-.65,7.22-1.15,10.66-.5,3.44-1.08,6.93-1.73,10.5l-5.11-.9c.68-3.36,1.22-6.65,1.63-9.85,.41-3.2,.73-6.46,.97-9.78l.35-4.91-33.15-2.37,.34-4.74Z"/><path class="cls-11" d="M529.38,237.95l1.59-22.26,20.9,1.5,.86-12.02-20.9-1.5,.34-4.74,26.23,1.88-1.54,21.49-20.9-1.5-.92,12.79,10.83,.78c2.84,.2,5.53,.36,8.06,.46,2.53,.1,5.15,.09,7.86-.03l.15,4.59c-3.03,.18-5.92,.22-8.67,.12-2.75-.1-5.6-.25-8.56-.46l-15.33-1.1Zm45.47-38.4l-3.84,53.69-5.33-.38,3.84-53.69,5.33,.38Z"/><path class="cls-11" d="M632.15,228.71l-.34,4.74-51.86-3.71,.34-4.74,51.86,3.71Zm-25.08-13.76c-.89,.77-2.1,1.5-3.64,2.18-1.54,.68-3.25,1.32-5.14,1.92-1.89,.6-3.9,1.13-6.03,1.59-2.14,.46-4.23,.86-6.27,1.19l-1.22-4.55c2.37-.39,4.73-.83,7.09-1.34,2.36-.51,4.49-1.09,6.4-1.74,1.91-.66,3.47-1.4,4.68-2.22,1.21-.83,1.85-1.77,1.93-2.84l.12-1.66-16.64-1.19,.34-4.74,38.48,2.76-.34,4.74-16.64-1.19-.12,1.66c-.08,1.07,.42,2.09,1.5,3.08,1.08,.99,2.52,1.95,4.32,2.87,1.8,.92,3.83,1.8,6.09,2.64,2.26,.84,4.53,1.61,6.82,2.33l-1.86,4.33c-1.98-.62-3.99-1.31-6.04-2.07-2.05-.76-3.96-1.57-5.75-2.43-1.78-.86-3.39-1.74-4.81-2.64-1.42-.89-2.52-1.79-3.29-2.68Zm16.03,42.03l-37.89-2.71,1.34-18.77,37.89,2.71-1.34,18.77Zm-32.22-7.07l27.23,1.95,.67-9.29-27.23-1.95-.67,9.29Z"/></g><path class="cls-23" d="M813.67,442.46l-136.99-20.82c-12.96-1.97-21.87-14.07-19.9-27.03l10.58-69.58c1.97-12.96,14.07-21.87,27.03-19.9l136.99,20.82c32.17,4.89,54.29,34.93,49.4,67.11h0c-4.89,32.17-34.93,54.29-67.11,49.4Z"/><g><path class="cls-10" d="M703.44,345.07l.96-6.29,5.15,.78-.96,6.29,9.83,1.49-.68,4.46-9.83-1.49-.33,2.17c-.19,1.22,0,2.41,.54,3.56,.55,1.16,1.3,2.27,2.27,3.33,.97,1.06,2.06,2.08,3.28,3.04,1.22,.97,2.39,1.85,3.52,2.64l-2.98,3.47c-2.26-1.55-4.24-3.19-5.95-4.91-1.71-1.72-3.07-3.58-4.1-5.57-1.52,1.76-3.38,3.24-5.59,4.44-2.21,1.2-4.63,2.25-7.26,3.14l-2.05-4.23c1.36-.46,2.76-.99,4.22-1.61,1.46-.62,2.82-1.32,4.09-2.1,1.27-.78,2.35-1.67,3.24-2.67,.89-1,1.43-2.1,1.62-3.32l.33-2.17-10.12-1.54,.68-4.46,10.12,1.54Zm-6.51,33.23l31.27,4.75,.63-4.12-31.27-4.75,.7-4.57,36.42,5.54-2.02,13.26-31.27-4.75-.73,4.8,32.13,4.88-.7,4.57-37.28-5.67,2.12-13.95Zm30.35-34.17l-1.55,10.18,6.86,1.04,1.59-10.46,4.97,.76-4.09,26.93-4.97-.76,1.81-11.89-6.86-1.04-1.81,11.89-4.86-.74,4.05-26.64,4.86,.74Z"/><path class="cls-10" d="M744.04,377.39l2.53-16.64,20.87,3.17,1.08-7.09-20.87-3.17,.68-4.46,26.01,3.95-2.42,15.89-20.87-3.17-1.19,7.83,10.29,1.56c2.74,.42,5.34,.76,7.8,1.04,2.45,.28,5,.42,7.65,.43l-.21,4.47c-2.57,0-5.16-.14-7.75-.42-2.59-.28-5.58-.67-8.97-1.19l-14.64-2.22Zm4.52,5.66l5.15,.78-1.8,11.83,32.13,4.88-.7,4.57-37.28-5.67,2.49-16.41Zm41.08-29.73l-5.76,37.9-5.15-.78,5.76-37.9,5.15,.78Z"/><path class="cls-10" d="M827.42,366.38l-11.72-1.78-1.23,8.12c-.34,2.25-.25,4.44,.29,6.57,.53,2.13,1.33,4.19,2.39,6.18,1.06,2,2.31,3.9,3.75,5.72,1.44,1.82,2.91,3.54,4.42,5.18l-3.63,3.13c-1.15-1.15-2.3-2.48-3.46-4.01-1.15-1.52-2.24-3.07-3.27-4.65-1.03-1.58-1.92-3.14-2.68-4.68-.76-1.54-1.3-2.92-1.62-4.14-.74,1.25-1.75,2.55-3.05,3.89-1.3,1.34-2.71,2.64-4.25,3.89-1.54,1.25-3.12,2.42-4.75,3.52-1.63,1.1-3.17,2.04-4.61,2.84l-2.77-4.11c2.09-1.2,4.15-2.5,6.18-3.89,2.02-1.39,3.86-2.91,5.52-4.57,1.66-1.66,3.05-3.45,4.18-5.36,1.13-1.91,1.87-4.02,2.22-6.3l1.23-8.12-12.69-1.93,.7-4.57,29.56,4.49-.7,4.57Zm14.81-5.06l-7.88,51.85-5.15-.78,7.88-51.85,5.15,.78Z"/></g><g><g><path class="cls-21" d="M382.11,380.79l-.82-4.37-4.37,.82-4.94-26.22,34.96-6.58,2.47,13.11,13.11-2.47-2.47-13.11,8.74-1.65,5.76,30.6-8.74,1.65-2.47-13.12-13.11,2.47,1.65,8.74-4.37,.82,.82,4.37-26.22,4.94Zm12.85,20.21l43.7-8.23,.82,4.37-48.07,9.05-.82-4.37-4.37,.82-3.29-17.47,8.74-1.65,3.29,17.47Zm4.06-50.54l-17.48,3.29,4.11,21.85,17.48-3.29-4.11-21.85Z"/><path class="cls-21" d="M473.81,386.15l-21.85,4.11-.82-4.36-4.37,.82-8.23-43.7,30.59-5.76,.82,4.36-21.85,4.11,7.41,39.34,13.11-2.47-.82-4.37,8.74-1.65,.82,4.36-4.37,.82,.82,4.37Zm22.67,.25l-8.74,1.65-4.93-26.21-8.74,1.65-.82-4.36,8.74-1.65-4.94-26.23,8.74-1.65,10.69,56.81Zm13.11-2.47l-8.74,1.65-10.69-56.81,8.74-1.65,10.69,56.81Z"/><path class="cls-21" d="M539.54,373.78l-17.48,3.29-.82-4.37-4.37,.82-.82-4.37-4.37,.82-5.76-30.59,4.37-.82-.82-4.37,4.37-.82-.82-4.37,17.48-3.29,.82,4.37,4.37-.82,.82,4.37,4.37-.82,5.76,30.59-4.37,.82,.82,4.37-4.37,.82,.82,4.37Zm-20.52-36.86l-4.37,.82,5.76,30.59,4.37-.82,.82,4.37,8.74-1.65-.82-4.37,4.37-.82-5.76-30.59-4.37,.82-.82-4.37-8.74,1.65,.82,4.37Zm51.93,35.47l-8.74,1.65-10.69-56.81,8.74-1.65,10.69,56.81Z"/></g><g><path class="cls-21" d="M331.95,402.71c-.5-2.46-1.16-4.12-1.97-5-.82-.87-2.42-1.07-4.79-.59l-4.84,.98-2.8-13.82,4.84-.98c2.38-.48,3.77-1.28,4.19-2.41,.41-1.12,.37-2.91-.13-5.37l-6.14-30.29c-.56-2.76-.83-5.09-.81-6.97,.02-1.88,.44-3.45,1.27-4.69,.83-1.25,2.08-2.26,3.76-3.04,1.68-.78,3.9-1.45,6.67-2.01l16.81-3.41,2.76,13.59-8.64,1.75c-2,.41-3.21,.91-3.65,1.52-.44,.61-.45,1.91-.05,3.91l5.23,25.79c.7,3.46,.72,6.39,.05,8.8-.67,2.41-2.05,4.59-4.13,6.53,2.68,.98,4.79,2.44,6.35,4.41,1.56,1.96,2.69,4.67,3.39,8.13l5.19,25.56c.4,2,.93,3.19,1.57,3.58,.64,.39,1.96,.38,3.95-.02l8.64-1.75,2.8,13.82-16.81,3.41c-2.76,.56-5.07,.81-6.92,.74-1.85-.06-3.4-.51-4.65-1.34-1.25-.83-2.25-2.1-2.99-3.83-.75-1.73-1.41-3.97-1.97-6.73l-6.14-30.29Z"/><path class="cls-21" d="M618.94,376.01c.56,2.76,.83,5.09,.82,6.97-.02,1.88-.44,3.45-1.27,4.69-.83,1.25-2.08,2.26-3.76,3.04-1.68,.78-3.9,1.45-6.67,2.01l-16.81,3.41-2.8-13.82,8.64-1.75c2-.4,3.21-.91,3.65-1.52,.43-.61,.45-1.91,.05-3.91l-5.19-25.56c-.7-3.46-.72-6.39-.05-8.8,.67-2.41,2.05-4.59,4.13-6.53-2.68-.97-4.79-2.44-6.35-4.41-1.56-1.96-2.69-4.67-3.39-8.13l-5.23-25.79c-.4-2-.93-3.19-1.57-3.58-.64-.39-1.96-.38-3.95,.02l-8.64,1.75-2.76-13.59,16.81-3.41c2.76-.56,5.07-.81,6.92-.75,1.85,.06,3.4,.51,4.65,1.34,1.25,.83,2.24,2.1,3,3.83,.75,1.73,1.4,3.97,1.96,6.73l6.14,30.29c.5,2.46,1.16,4.12,1.97,4.99,.82,.87,2.41,1.07,4.79,.59l4.84-.98,2.8,13.82-4.84,.98c-2.38,.48-3.78,1.29-4.19,2.41-.41,1.12-.37,2.91,.13,5.37l6.14,30.29Z"/></g></g><polygon class="cls-24" points="904.14 291.93 906.7 301.61 912.12 293.19 911.56 303.19 919.31 296.86 915.69 306.19 925.02 302.57 918.69 310.32 928.68 309.76 920.27 315.18 929.95 317.74 920.27 320.29 928.68 325.71 918.69 325.15 925.02 332.9 915.69 329.28 919.31 338.61 911.56 332.29 912.12 342.28 906.7 333.86 904.14 343.54 901.59 333.86 896.17 342.28 896.73 332.29 888.98 338.61 892.6 329.28 883.27 332.9 889.59 325.15 879.6 325.71 888.01 320.29 878.34 317.74 888.01 315.18 879.6 309.76 889.59 310.32 883.27 302.57 892.6 306.19 888.98 296.86 896.73 303.19 896.17 293.19 901.59 301.61 904.14 291.93"/><g><path class="cls-6" d="M339.13,469.34l-52.83-13.64c-10.49-2.71-16.79-13.4-14.08-23.89h0c2.71-10.49,13.4-16.79,23.89-14.08"/><polygon class="cls-23" points="344.49 470.73 332.38 454.83 326.19 478.77 344.49 470.73"/></g></g><g class="cls-31"><g class="cls-28"><g class="cls-32"><g><text class="cls-14" transform="translate(972.39 -168.3) rotate(12.52)"><tspan x="0" y="0">Wednesday</tspan></text><g class="cls-19"><path class="cls-25" d="M952.76-335.14c8.24,0,16.54,.92,24.67,2.72L1909.28-125.49c29.54,6.56,54.76,24.23,71.01,49.76,16.25,25.53,21.59,55.86,15.03,85.4-5.62,25.31-19.88,48.11-40.16,64.18-20,15.85-44.97,24.58-70.32,24.58-8.24,0-16.55-.92-24.67-2.72L928.31-111.21c-29.54-6.56-54.76-24.23-71.01-49.76-16.25-25.53-21.59-55.86-15.03-85.4,5.62-25.31,19.88-48.11,40.16-64.18,20-15.85,44.97-24.58,70.33-24.58h0m0-7.67c-55.46,0-105.46,38.38-117.98,94.77h0c-14.48,65.22,26.65,129.83,91.87,144.32L1858.49,103.21c8.83,1.96,17.65,2.9,26.34,2.9,55.46,0,105.46-38.38,117.98-94.77h0c14.48-65.22-26.65-129.83-91.87-144.32l-931.85-206.93c-8.83-1.96-17.65-2.9-26.34-2.9h0Z"/></g></g><g><g class="cls-19"><rect class="cls-2" x="-5.23" y="-191.5" width="840.64" height="245.15" rx="122.57" ry="122.57" transform="translate(728.95 -349.19) rotate(147.66)"/></g><g class="cls-19"><line class="cls-4" x1="175.66" y1="84.62" x2="678.02" y2="-234.58"/></g></g></g></g></g><g><g><rect class="cls-23" x="300.85" y="236" width="8.7" height="56.69" transform="translate(-46.53 66.07) rotate(-11.49)"/><rect class="cls-23" x="300.85" y="236" width="8.7" height="56.69" transform="translate(503.47 -87.38) rotate(78.51)"/></g><g><rect class="cls-23" x="300.85" y="236" width="8.7" height="56.69" transform="translate(196.69 -124.56) rotate(33.51)"/><rect class="cls-23" x="300.85" y="236" width="8.7" height="56.69" transform="translate(694.1 155.83) rotate(123.51)"/></g></g></svg>