<svg width="295" height="180" viewBox="0 0 295 180" fill="none" xmlns="http://www.w3.org/2000/svg">
<path d="M151.9 39.4502C132.37 39.4502 115.47 52.5202 110.15 71.4802C101.57 71.9702 93.4901 75.6602 87.5001 81.8202C85.9601 83.3802 84.5801 85.0902 83.3601 86.9102C79.5801 92.5502 77.5601 99.1902 77.5601 105.98C77.5501 111.17 78.7201 116.29 80.9801 120.96C81.7101 122.46 82.5401 123.91 83.4801 125.3C86.5701 129.8 90.6801 133.51 95.4901 136.11C100.56 139 106.3 140.53 112.14 140.56H189.1L189.66 140.52H189.86L190.47 140.47C205.86 138.95 217.47 126.31 217.47 111.07C217.47 97.6602 208.21 85.9402 195.21 82.5202V82.4402C195.21 81.2402 195.11 80.0302 194.99 78.8302L194.67 76.3702V76.2502C193.33 68.0102 189.66 60.3302 184.08 54.1202L184.03 54.0602L183.97 54.0002L183.66 53.6602C179.65 49.2302 174.75 45.6802 169.29 43.2502C163.83 40.8202 157.92 39.5502 151.94 39.5202L151.91 39.4602L151.9 39.4502Z" fill="white"/>
<path d="M131.32 91.0498C127.26 91.0498 123.96 94.3398 123.96 98.4098C123.96 102.48 127.25 105.77 131.32 105.77C135.39 105.77 138.68 102.48 138.68 98.4098C138.68 94.3398 135.39 91.0498 131.32 91.0498ZM131.32 102.82C128.88 102.82 126.91 100.84 126.91 98.4098C126.91 95.9798 128.89 93.9998 131.32 93.9998C133.75 93.9998 135.73 95.9798 135.73 98.4098C135.73 100.84 133.75 102.82 131.32 102.82Z" fill="#2B2D36"/>
<path d="M147.87 91.0498C143.81 91.0498 140.51 94.3398 140.51 98.4098C140.51 102.48 143.8 105.77 147.87 105.77C151.94 105.77 155.23 102.48 155.23 98.4098C155.23 94.3398 151.94 91.0498 147.87 91.0498ZM147.87 102.82C145.43 102.82 143.46 100.84 143.46 98.4098C143.46 95.9798 145.44 93.9998 147.87 93.9998C150.3 93.9998 152.28 95.9798 152.28 98.4098C152.28 100.84 150.3 102.82 147.87 102.82Z" fill="#2B2D36"/>
<path d="M164.05 91.4199C160.39 91.4199 157.43 94.3799 157.43 98.0399V105.4H160.37V98.0399C160.37 96.0099 162.02 94.3599 164.05 94.3599H165.52V91.4199H164.05Z" fill="#2B2D36"/>
<path d="M187.59 97.3097C187.59 94.0597 184.96 91.4297 181.71 91.4297C179.95 91.4297 178.38 92.1997 177.3 93.4197C176.22 92.1997 174.64 91.4297 172.89 91.4297C169.64 91.4297 167.01 94.0597 167.01 97.3097V105.4H169.95V97.3097C169.95 95.6897 171.27 94.3697 172.89 94.3697C174.51 94.3697 175.83 95.6897 175.83 97.3097V105.4H178.77V97.3097C178.77 95.6897 180.09 94.3697 181.71 94.3697C183.33 94.3697 184.65 95.6897 184.65 97.3097V105.4H187.59V97.3097Z" fill="#2B2D36"/>
<path d="M122.12 98.4098C122.12 94.3498 118.83 91.0498 114.76 91.0498C110.69 91.0498 107.61 94.1498 107.41 98.0398C107.41 98.1598 107.41 98.2898 107.41 98.4098C107.41 98.5298 107.41 98.6598 107.41 98.7798C107.6 102.57 110.74 105.58 114.57 105.58C116.32 105.58 117.92 104.95 119.17 103.91V105.02C119.14 105.48 119.01 106.67 118.09 107.62C116.79 108.98 114.77 108.95 113.45 108.5C112.07 108.02 111.29 107.02 110.99 106.58L108.25 107.71C109.15 109.42 110.71 110.73 112.58 111.31C112.76 111.37 113.6 111.63 114.76 111.64C115.57 111.64 118.19 111.68 120.18 109.7C121.97 107.91 122.1 105.61 122.12 105.02V98.3998V98.4098ZM114.76 102.82C112.32 102.82 110.35 100.84 110.35 98.4098C110.35 95.9798 112.33 93.9998 114.76 93.9998C117.19 93.9998 119.17 95.9798 119.17 98.4098C119.17 100.84 117.19 102.82 114.76 102.82Z" fill="#2B2D36"/>
</svg>
