<svg width="295" height="180" viewBox="0 0 295 180" fill="none" xmlns="http://www.w3.org/2000/svg">
<path d="M77.5098 43.79H154.51V64.92H77.5098C71.7398 64.92 67.0598 60.24 67.0598 54.47V54.25C67.0598 48.48 71.7398 43.8 77.5098 43.8V43.79Z" fill="white"/>
<path d="M156.38 71.1303H80.1699C70.9199 71.1303 63.3899 63.6003 63.3899 54.3503C63.3899 45.1003 70.9199 37.5703 80.1699 37.5703H156.38C158.4 37.5703 160.05 39.2103 160.05 41.2403C160.05 43.2703 158.41 44.9103 156.38 44.9103H80.1699C74.9599 44.9103 70.7199 49.1503 70.7199 54.3603C70.7199 59.5703 74.9599 63.8103 80.1699 63.8103H156.38C158.4 63.8103 160.05 65.4503 160.05 67.4803C160.05 69.5103 158.41 71.1503 156.38 71.1503V71.1303Z" fill="#FFC107"/>
<path d="M77.5098 77.0898H154.51V98.2198H77.5098C71.7398 98.2198 67.0598 93.5398 67.0598 87.7698V87.5499C67.0598 81.7799 71.7398 77.0998 77.5098 77.0998V77.0898Z" fill="white"/>
<path d="M156.38 104.44H80.1699C70.9199 104.44 63.3899 96.9099 63.3899 87.6599C63.3899 78.4099 70.9199 70.8799 80.1699 70.8799H156.38C158.4 70.8799 160.05 72.5199 160.05 74.5499C160.05 76.5799 158.41 78.2199 156.38 78.2199H80.1699C74.9599 78.2199 70.7199 82.4599 70.7199 87.6699C70.7199 92.8799 74.9599 97.1199 80.1699 97.1199H156.38C158.4 97.1199 160.05 98.7599 160.05 100.79C160.05 102.82 158.41 104.46 156.38 104.46V104.44Z" fill="#2B2D36"/>
<path d="M146.86 131.53H69.8598V110.4L146.86 110.4C152.63 110.4 157.31 115.08 157.31 120.85V121.07C157.31 126.84 152.63 131.52 146.86 131.52V131.53Z" fill="white"/>
<path d="M144.2 137.74H67.9898C65.9698 137.74 64.3198 136.1 64.3198 134.07C64.3198 132.04 65.9598 130.4 67.9898 130.4H144.2C149.41 130.4 153.65 126.16 153.65 120.95C153.65 115.74 149.41 111.5 144.2 111.5H67.9898C65.9698 111.5 64.3198 109.86 64.3198 107.83C64.3198 105.8 65.9598 104.16 67.9898 104.16H144.2C153.45 104.16 160.98 111.69 160.98 120.94C160.98 130.19 153.45 137.72 144.2 137.72V137.74Z" fill="#FFC107"/>
<path d="M94.14 108.31L86.82 104.3L79.5 108.31V88.1201H94.14V108.31Z" fill="#FF6B00"/>
<path d="M144.68 137.05L137.35 133.04L130.03 137.05V116.86H144.68V137.05Z" fill="#2B2D36"/>
<path d="M182.64 126.951L190.53 127.221L192.72 134.801L227.91 89.6205L217.83 81.7705L182.64 126.951Z" fill="#2B2D36"/>
<path d="M180.45 119.37L182.64 126.95L217.83 81.7699L207.75 73.9199L172.57 119.1L180.45 119.37Z" fill="#FFC107"/>
<path d="M218.17 81.3303L217.06 82.7503L227.22 90.4903L230.3 86.5303C232.24 84.0403 231.96 80.5903 229.69 78.8203L217.77 69.5403C215.5 67.7703 212.08 68.3503 210.15 70.8403L207.07 74.8003L217.06 82.7603L218.17 81.3403V81.3303Z" fill="#2B2D36"/>
<path d="M202.821 80.2439L222.979 95.9424L227.231 90.4827L207.072 74.7842L202.821 80.2439Z" fill="white"/>
<path d="M170.38 135.251L175.35 136.321L177.6 140.871L192.72 134.801L190.53 127.221L182.64 126.951L180.45 119.371L172.57 119.101L170.38 135.251Z" fill="white"/>
<path d="M170.38 135.25L169.91 138.7C169.56 141.29 171.94 143.15 174.37 142.17L177.6 140.87L175.35 136.31L170.38 135.24V135.25Z" fill="#2B2D36"/>
</svg>
