<svg width="295" height="180" viewBox="0 0 295 180" fill="none" xmlns="http://www.w3.org/2000/svg">
<path d="M188.72 60.5303C194.67 60.5303 199.5 65.3603 199.5 71.3103V137.68H177.93V71.3103C177.93 65.3603 182.76 60.5303 188.71 60.5303H188.72Z" fill="#FFC107"/>
<path d="M161.24 70.46C167.19 70.46 172.02 75.29 172.02 81.24V137.67H150.45V81.24C150.45 75.29 155.28 70.46 161.23 70.46H161.24Z" fill="#FFC107"/>
<path d="M133.76 83.6504C139.71 83.6504 144.54 88.4804 144.54 94.4304V137.68H122.97V94.4304C122.97 88.4804 127.8 83.6504 133.75 83.6504H133.76Z" fill="#FFC107"/>
<path d="M106.28 94.71C112.23 94.71 117.06 99.54 117.06 105.49V137.68H95.4902V105.49C95.4902 99.54 100.32 94.71 106.27 94.71H106.28Z" fill="#FFC107"/>
<path d="M201.03 136.34H93.9698C90.7003 136.34 88.0498 138.99 88.0498 142.26C88.0498 145.529 90.7003 148.18 93.9698 148.18H201.03C204.299 148.18 206.95 145.529 206.95 142.26C206.95 138.99 204.299 136.34 201.03 136.34Z" fill="white"/>
<path d="M98.6298 85.4908C96.3798 85.4908 94.4298 83.8009 94.1698 81.5109C93.8798 79.0409 95.6498 76.8108 98.1198 76.5208C98.6098 76.4608 147.66 70.3109 185.59 33.3809C187.37 31.6509 190.22 31.6809 191.95 33.4709C193.68 35.2509 193.65 38.1009 191.87 39.8309C151.68 78.9609 101.29 85.2108 99.1598 85.4608C98.9798 85.4809 98.8098 85.4908 98.6398 85.4908H98.6298Z" fill="#2B2D36"/>
<path d="M190.71 52.2404C190.53 52.2404 190.35 52.2304 190.16 52.2004C188.25 51.9004 186.94 50.1104 187.24 48.2004L189.15 36.0204L175.05 38.2104C173.14 38.5004 171.35 37.2004 171.05 35.2904C170.75 33.3804 172.06 31.5904 173.97 31.2904L192.81 28.3604C193.92 28.1804 195.04 28.5604 195.83 29.3504C196.62 30.1404 196.99 31.2604 196.81 32.3704L194.15 49.2904C193.88 51.0204 192.39 52.2504 190.69 52.2504L190.71 52.2404Z" fill="#2B2D36"/>
</svg>
