<svg width="292" height="140" viewBox="0 0 292 140" fill="none" xmlns="http://www.w3.org/2000/svg">
<path d="M146 14.0703C160.45 14.0703 172.18 25.8003 172.18 40.2503V82.9703C172.18 84.7203 170.76 86.1503 169 86.1503H122.99C121.24 86.1503 119.81 84.7303 119.81 82.9703V40.2603C119.81 25.8103 131.54 14.0803 145.99 14.0803L146 14.0703Z" stroke="#CDCED6" stroke-width="10.66" stroke-miterlimit="10"/>
<path d="M146 125.929C169.35 125.929 188.28 107 188.28 83.6491C188.28 60.2985 169.35 41.3691 146 41.3691C122.649 41.3691 103.72 60.2985 103.72 83.6491C103.72 107 122.649 125.929 146 125.929Z" fill="#A9ABB8"/>
<path d="M147.11 50.89L149.26 47.17C149.75 46.32 149.14 45.25 148.15 45.25H143.85C142.87 45.25 142.25 46.31 142.74 47.17L144.89 50.89C145.38 51.74 146.61 51.74 147.1 50.89H147.11Z" fill="#858899"/>
<path d="M188.28 122.85C188.36 115.06 193.71 114.81 193.71 114.81C193.71 114.81 188.36 114.55 188.28 106.77C188.2 114.56 182.85 114.81 182.85 114.81C182.85 114.81 188.2 115.07 188.28 122.85Z" fill="#E8E8EE"/>
<path d="M190.21 58.6691C190.32 48.1191 197.56 47.7691 197.56 47.7691C197.56 47.7691 190.31 47.4191 190.21 36.8691C190.1 47.4191 182.86 47.7691 182.86 47.7691C182.86 47.7691 190.11 48.1191 190.21 58.6691Z" fill="#E8E8EE"/>
<path d="M93.7601 100.879C94.0001 76.9495 110.44 76.1595 110.44 76.1595C110.44 76.1595 94.0001 75.3695 93.7601 51.4395C93.5201 75.3695 77.0801 76.1595 77.0801 76.1595C77.0801 76.1595 93.5201 76.9495 93.7601 100.879V100.879Z" fill="#E8E8EE"/>
<path d="M146 112.81C162.104 112.81 175.16 99.7549 175.16 83.6502C175.16 67.5456 162.104 54.4902 146 54.4902C129.895 54.4902 116.84 67.5456 116.84 83.6502C116.84 99.7549 129.895 112.81 146 112.81Z" fill="#E1E1E8"/>
<path d="M146 93.4496C151.413 93.4496 155.8 89.062 155.8 83.6496C155.8 78.2372 151.413 73.8496 146 73.8496C140.588 73.8496 136.2 78.2372 136.2 83.6496C136.2 89.062 140.588 93.4496 146 93.4496Z" fill="#CDCED6"/>
<path d="M146 60.75V67.64" stroke="#CDCED6" stroke-width="3.85" stroke-linecap="round" stroke-linejoin="round"/>
<path d="M168.9 83.6504H162.01" stroke="#CDCED6" stroke-width="3.85" stroke-linecap="round" stroke-linejoin="round"/>
<path d="M146 106.55V99.6602" stroke="#CDCED6" stroke-width="3.85" stroke-linecap="round" stroke-linejoin="round"/>
<path d="M123.1 83.6504H129.99" stroke="#CDCED6" stroke-width="3.85" stroke-linecap="round" stroke-linejoin="round"/>
<path d="M162.189 67.4492L157.319 72.3292" stroke="#CDCED6" stroke-width="3.85" stroke-linecap="round" stroke-linejoin="round"/>
<path d="M162.189 99.8387L157.319 94.9688" stroke="#CDCED6" stroke-width="3.85" stroke-linecap="round" stroke-linejoin="round"/>
<path d="M129.81 99.8387L134.68 94.9688" stroke="#CDCED6" stroke-width="3.85" stroke-linecap="round" stroke-linejoin="round"/>
<path d="M129.81 67.4492L134.68 72.3292" stroke="#CDCED6" stroke-width="3.85" stroke-linecap="round" stroke-linejoin="round"/>
</svg>
