<svg width="335" height="132" viewBox="0 0 335 132" fill="none" xmlns="http://www.w3.org/2000/svg">
<path d="M173.463 102.415L138.442 67.3941C136.979 65.9308 136.979 63.553 138.442 62.0897L139.252 61.2797L179.571 101.598L178.761 102.408C177.297 103.872 174.919 103.872 173.456 102.408L173.463 102.415Z" fill="#FFC107"/>
<path fill-rule="evenodd" clip-rule="evenodd" d="M180.857 69.337L171.526 60.0063L192.645 22.5262C196.747 16.2349 204.664 13.3987 212.24 15.9116C215.076 16.8539 217.774 18.4798 220.074 20.7802C222.374 23.0805 224 25.7781 224.943 28.6143C227.465 36.1898 224.628 44.107 218.328 48.2089L180.848 69.3278L180.857 69.337Z" fill="white"/>
<path d="M170.218 50.5688L190.293 70.6432C191.423 71.7733 191.423 73.6155 190.293 74.7456L188.882 76.1566L164.705 51.9798L166.116 50.5688C167.246 49.4387 169.088 49.4387 170.218 50.5688V50.5688Z" fill="#FFC107"/>
<path fill-rule="evenodd" clip-rule="evenodd" d="M180.738 102.762L138.112 60.1358C136.301 58.325 135.95 55.5258 137.243 53.3271L141.595 45.9549C143.849 42.1302 148.431 40.1347 152.662 41.4743C154.103 41.9269 155.452 42.7307 156.598 43.867L197.025 84.2941C198.161 85.4304 198.965 86.7884 199.418 88.2296C200.757 92.4608 198.762 97.043 194.937 99.2972L187.565 103.648C185.366 104.951 182.557 104.591 180.756 102.78L180.738 102.762Z" fill="white"/>
<path d="M142.048 117.45C159.747 117.45 174.096 113.901 174.096 109.523C174.096 105.146 159.747 101.597 142.048 101.597C124.348 101.597 110 105.146 110 109.523C110 113.901 124.348 117.45 142.048 117.45Z" fill="#FFC107"/>
</svg>
