<svg width="335" height="132" viewBox="0 0 335 132" fill="none" xmlns="http://www.w3.org/2000/svg">
<path d="M212.99 44.5195H122.01C110.147 44.5195 100.53 54.1365 100.53 65.9995V66.0095C100.53 77.8726 110.147 87.4895 122.01 87.4895H212.99C224.853 87.4895 234.47 77.8726 234.47 66.0095V65.9995C234.47 54.1365 224.853 44.5195 212.99 44.5195Z" fill="#FFC107"/>
<path d="M212.98 87.4795C224.843 87.4795 234.46 77.8626 234.46 65.9995C234.46 54.1365 224.843 44.5195 212.98 44.5195C201.117 44.5195 191.5 54.1365 191.5 65.9995C191.5 77.8626 201.117 87.4795 212.98 87.4795Z" fill="white"/>
<path d="M214.25 66.96L212.89 105.94L226.86 94.97L244.33 91.79L214.25 66.96Z" fill="#2B2D36"/>
<path d="M120.33 70.7304L121.76 69.3604C122.82 70.6104 123.99 71.2104 125.49 71.2104C127.24 71.2104 128.22 70.3704 128.22 68.9004C128.22 67.7004 127.6 67.0904 125.93 66.8104L124.42 66.5704C121.79 66.1304 120.85 64.5604 120.85 62.7104C120.85 60.1004 122.68 58.6904 125.63 58.6904C127.82 58.6904 129.38 59.4504 130.33 60.7004L128.94 62.1004C128.18 61.1604 127.17 60.5504 125.63 60.5504C124 60.5504 123.1 61.2704 123.1 62.6204C123.1 63.7604 123.7 64.3904 125.41 64.6704L126.88 64.9304C129.39 65.3904 130.47 66.8204 130.47 68.7904C130.47 71.3604 128.68 73.0704 125.41 73.0704C123 73.0704 121.39 72.1304 120.33 70.7404V70.7304Z" fill="white"/>
<path d="M137.8 60.7909V72.8209H135.57V60.7909H131.21V58.9209H142.17V60.7909H137.81H137.8Z" fill="white"/>
<path d="M151.07 72.8202L150.01 69.1102H145.59L144.53 72.8202H142.26L146.32 58.9102H149.37L153.43 72.8202H151.06H151.07ZM147.88 61.1702H147.72L146.01 67.2702H149.6L147.89 61.1702H147.88Z" fill="white"/>
<path d="M156.91 72.8202H154.7V58.9102H159.9C162.53 58.9102 163.98 60.5002 163.98 63.0902C163.98 65.2002 162.9 66.6802 160.97 67.0002L164.18 72.8202H161.71L158.76 67.2002H156.91V72.8202V72.8202ZM159.58 65.4102C160.97 65.4102 161.65 64.7902 161.65 63.5202V62.6602C161.65 61.3802 160.97 60.7702 159.58 60.7702H156.91V65.4102H159.58Z" fill="white"/>
<path d="M171.27 60.7909V72.8209H169.04V60.7909H164.68V58.9209H175.64V60.7909H171.28H171.27Z" fill="white"/>
<path d="M179.64 71.6909V71.2109C179.64 70.4509 180.1 69.8809 181.31 69.8809C182.52 69.8809 182.98 70.4609 182.98 71.2109V71.6909C182.98 72.4509 182.52 73.0209 181.31 73.0209C180.1 73.0209 179.64 72.4409 179.64 71.6909ZM180.94 68.1009L180.12 62.9609V58.9209H182.51V62.9609L181.69 68.1009H180.93H180.94Z" fill="white"/>
</svg>
