<svg width="335" height="132" viewBox="0 0 335 132" fill="none" xmlns="http://www.w3.org/2000/svg">
<path d="M165.472 114.944C192.242 114.944 213.944 93.2421 213.944 66.4719C213.944 39.7016 192.242 18 165.472 18C138.702 18 117 39.7016 117 66.4719C117 93.2421 138.702 114.944 165.472 114.944Z" fill="#FF6B00"/>
<path d="M165.471 102.075C185.134 102.075 201.075 86.1342 201.075 66.4705C201.075 46.8068 185.134 30.8662 165.471 30.8662C145.807 30.8662 129.866 46.8068 129.866 66.4705C129.866 86.1342 145.807 102.075 165.471 102.075Z" fill="white"/>
<path d="M165.473 91.6491C179.378 91.6491 190.649 80.3776 190.649 66.4735C190.649 52.5694 179.378 41.2979 165.473 41.2979C151.569 41.2979 140.298 52.5694 140.298 66.4735C140.298 80.3776 151.569 91.6491 165.473 91.6491Z" fill="#2B2D36"/>
<path d="M165.471 81.5673C173.808 81.5673 180.567 74.8083 180.567 66.4707C180.567 58.133 173.808 51.374 165.471 51.374C157.133 51.374 150.374 58.133 150.374 66.4707C150.374 74.8083 157.133 81.5673 165.471 81.5673Z" fill="white"/>
<path d="M218 33.7162L205.998 31.6357L191.47 43.6379L203.113 46.0243L218 33.7162Z" fill="#FFC107"/>
<path d="M206.216 19.459L205.997 31.636L191.469 43.6381L191.329 31.7583L206.216 19.459Z" fill="#FFC107"/>
<path d="M201.671 31.1009L162.743 63.2704C161.47 64.3221 161.291 66.2066 162.343 67.4793L162.393 67.54C163.445 68.8127 165.329 68.9919 166.602 67.9401L205.53 35.7706C206.802 34.7188 206.982 32.8344 205.93 31.5616L205.88 31.501C204.828 30.2282 202.943 30.0491 201.671 31.1009Z" fill="#FFC107"/>
</svg>
