<svg width="262" height="172" viewBox="0 0 262 172" fill="none" xmlns="http://www.w3.org/2000/svg">
<path d="M176.49 64.5195H85.51C73.647 64.5195 64.03 74.1365 64.03 85.9995V86.0095C64.03 97.8726 73.647 107.49 85.51 107.49H176.49C188.353 107.49 197.97 97.8726 197.97 86.0095V85.9995C197.97 74.1365 188.353 64.5195 176.49 64.5195Z" fill="#FFC107"/>
<path d="M176.48 107.48C188.343 107.48 197.96 97.8626 197.96 85.9995C197.96 74.1365 188.343 64.5195 176.48 64.5195C164.617 64.5195 155 74.1365 155 85.9995C155 97.8626 164.617 107.48 176.48 107.48Z" fill="white"/>
<path d="M177.75 86.96L176.39 125.94L190.36 114.97L207.83 111.79L177.75 86.96Z" fill="#2B2D36"/>
<path d="M83.8301 90.7304L85.2601 89.3604C86.3201 90.6104 87.4901 91.2104 88.9901 91.2104C90.7401 91.2104 91.7201 90.3704 91.7201 88.9004C91.7201 87.7004 91.1001 87.0904 89.4301 86.8104L87.9201 86.5704C85.2901 86.1304 84.3501 84.5604 84.3501 82.7104C84.3501 80.1004 86.1801 78.6904 89.1301 78.6904C91.3201 78.6904 92.8801 79.4504 93.8301 80.7004L92.4401 82.1004C91.6801 81.1604 90.6701 80.5504 89.1301 80.5504C87.5001 80.5504 86.6001 81.2704 86.6001 82.6204C86.6001 83.7604 87.2001 84.3904 88.9101 84.6704L90.3801 84.9304C92.8901 85.3904 93.9701 86.8204 93.9701 88.7904C93.9701 91.3604 92.1801 93.0704 88.9101 93.0704C86.5001 93.0704 84.8901 92.1304 83.8301 90.7404V90.7304Z" fill="white"/>
<path d="M101.3 80.7909V92.8209H99.07V80.7909H94.71V78.9209H105.67V80.7909H101.31H101.3Z" fill="white"/>
<path d="M114.57 92.8202L113.51 89.1102H109.09L108.03 92.8202H105.76L109.82 78.9102H112.87L116.93 92.8202H114.56H114.57ZM111.38 81.1702H111.22L109.51 87.2701H113.1L111.39 81.1702H111.38Z" fill="white"/>
<path d="M120.41 92.8202H118.2V78.9102H123.4C126.03 78.9102 127.48 80.5001 127.48 83.0901C127.48 85.2001 126.4 86.6802 124.47 87.0002L127.68 92.8202H125.21L122.26 87.2001H120.41V92.8202ZM123.08 85.4102C124.47 85.4102 125.15 84.7901 125.15 83.5201V82.6602C125.15 81.3802 124.47 80.7701 123.08 80.7701H120.41V85.4102H123.08Z" fill="white"/>
<path d="M134.77 80.7909V92.8209H132.54V80.7909H128.18V78.9209H139.14V80.7909H134.78H134.77Z" fill="white"/>
<path d="M143.14 91.6909V91.2109C143.14 90.4509 143.6 89.8809 144.81 89.8809C146.02 89.8809 146.48 90.4609 146.48 91.2109V91.6909C146.48 92.4509 146.02 93.0209 144.81 93.0209C143.6 93.0209 143.14 92.4409 143.14 91.6909ZM144.44 88.1009L143.62 82.9609V78.9209H146.01V82.9609L145.19 88.1009H144.43H144.44Z" fill="white"/>
</svg>
