<svg width="262" height="172" viewBox="0 0 262 172" fill="none" xmlns="http://www.w3.org/2000/svg">
<path d="M131 141.45C161.624 141.45 186.45 116.624 186.45 85.9998C186.45 55.3756 161.624 30.5498 131 30.5498C100.376 30.5498 75.5498 55.3756 75.5498 85.9998C75.5498 116.624 100.376 141.45 131 141.45Z" fill="#FF6B00"/>
<path d="M131 126.73C153.495 126.73 171.73 108.494 171.73 85.9995C171.73 63.505 153.495 45.2695 131 45.2695C108.505 45.2695 90.27 63.505 90.27 85.9995C90.27 108.494 108.505 126.73 131 126.73Z" fill="white"/>
<path d="M131 114.8C146.906 114.8 159.8 101.906 159.8 86.0002C159.8 70.0944 146.906 57.2002 131 57.2002C115.094 57.2002 102.2 70.0944 102.2 86.0002C102.2 101.906 115.094 114.8 131 114.8Z" fill="#2B2D36"/>
<path d="M131 103.269C140.538 103.269 148.27 95.5374 148.27 85.9995C148.27 76.4615 140.538 68.7295 131 68.7295C121.462 68.7295 113.73 76.4615 113.73 85.9995C113.73 95.5374 121.462 103.269 131 103.269Z" fill="white"/>
<path d="M191.09 48.5294L177.36 46.1494L160.74 59.8794L174.06 62.6094L191.09 48.5294Z" fill="#FFC107"/>
<path d="M177.61 32.2197L177.36 46.1497L160.74 59.8797L160.58 46.2897L177.61 32.2197Z" fill="#FFC107"/>
<path d="M172.406 45.5363L127.874 82.337C126.418 83.5402 126.213 85.6959 127.416 87.1519L127.474 87.2213C128.677 88.6773 130.833 88.8822 132.289 87.679L176.82 50.8783C178.276 49.6751 178.481 47.5194 177.278 46.0634L177.221 45.994C176.018 44.538 173.862 44.3331 172.406 45.5363Z" fill="#FFC107"/>
</svg>
