<svg width="262" height="172" viewBox="0 0 262 172" fill="none" xmlns="http://www.w3.org/2000/svg">
<path d="M143.658 125.172L105.75 87.2644C104.166 85.6804 104.166 83.1066 105.75 81.5227L106.627 80.6458L150.269 124.288L149.392 125.165C147.808 126.749 145.235 126.749 143.651 125.165L143.658 125.172Z" fill="#FFC107"/>
<path fill-rule="evenodd" clip-rule="evenodd" d="M151.66 89.3704L141.56 79.2704L164.42 38.7004C168.86 31.8904 177.43 28.8204 185.63 31.5404C188.7 32.5604 191.62 34.3204 194.11 36.8104C196.6 39.3004 198.36 42.2204 199.38 45.2904C202.11 53.4904 199.04 62.0604 192.22 66.5004L151.65 89.3604L151.66 89.3704Z" fill="white"/>
<path d="M140.142 69.0572L161.872 90.7866C163.095 92.0099 163.095 94.004 161.872 95.2272L160.344 96.7546L134.174 70.5846L135.702 69.0572C136.925 67.8339 138.919 67.8339 140.142 69.0572Z" fill="#FFC107"/>
<path fill-rule="evenodd" clip-rule="evenodd" d="M151.53 125.551L105.39 79.4108C103.43 77.4508 103.05 74.4208 104.45 72.0408L109.16 64.0608C111.6 59.9208 116.56 57.7608 121.14 59.2108C122.7 59.7008 124.16 60.5708 125.4 61.8008L169.16 105.561C170.39 106.791 171.26 108.261 171.75 109.821C173.2 114.401 171.04 119.361 166.9 121.801L158.92 126.511C156.54 127.921 153.5 127.531 151.55 125.571L151.53 125.551Z" fill="white"/>
<path d="M109.65 141.45C128.809 141.45 144.34 137.609 144.34 132.87C144.34 128.131 128.809 124.29 109.65 124.29C90.4912 124.29 74.96 128.131 74.96 132.87C74.96 137.609 90.4912 141.45 109.65 141.45Z" fill="#FFC107"/>
</svg>
