<svg width="148" height="172" viewBox="0 0 148 172" fill="none" xmlns="http://www.w3.org/2000/svg">
<path d="M113.92 68.7305H35.4299C25.1961 68.7305 16.8999 77.0266 16.8999 87.2605V87.2705C16.8999 97.5043 25.1961 105.8 35.4299 105.8H113.92C124.154 105.8 132.45 97.5043 132.45 87.2705V87.2605C132.45 77.0266 124.154 68.7305 113.92 68.7305Z" fill="#FFC107"/>
<path d="M113.92 105.8C124.154 105.8 132.45 97.5041 132.45 87.2702C132.45 77.0364 124.154 68.7402 113.92 68.7402C103.686 68.7402 95.3901 77.0364 95.3901 87.2702C95.3901 97.5041 103.686 105.8 113.92 105.8Z" fill="white"/>
<path d="M115.01 88.0996L113.83 121.72L125.89 112.26L140.96 109.51L115.01 88.0996Z" fill="#2B2D36"/>
<path d="M33.9802 91.35L35.2202 90.16C36.1302 91.24 37.1502 91.76 38.4302 91.76C39.9402 91.76 40.7802 91.04 40.7802 89.77C40.7802 88.74 40.2502 88.21 38.8002 87.97L37.4902 87.76C35.2202 87.38 34.4102 86.02 34.4102 84.43C34.4102 82.18 35.9902 80.96 38.5402 80.96C40.4302 80.96 41.7702 81.61 42.6002 82.7L41.4002 83.9C40.7502 83.09 39.8702 82.56 38.5502 82.56C37.1402 82.56 36.3702 83.18 36.3702 84.35C36.3702 85.33 36.8902 85.88 38.3602 86.12L39.6302 86.34C41.8002 86.74 42.7202 87.97 42.7202 89.67C42.7202 91.89 41.1702 93.37 38.3502 93.37C36.2702 93.37 34.8802 92.56 33.9702 91.36L33.9802 91.35Z" fill="white"/>
<path d="M49.0504 82.7704V93.1504H47.1203V82.7704H43.3604V81.1504H52.8104V82.7704H49.0504V82.7704Z" fill="white"/>
<path d="M60.5004 93.1504L59.5904 89.9504H55.7704L54.8604 93.1504H52.9004L56.4104 81.1504H59.0404L62.5504 93.1504H60.5004V93.1504ZM57.7504 83.1004H57.6104L56.1304 88.3604H59.2204L57.7404 83.1004H57.7504Z" fill="white"/>
<path d="M65.5404 93.1504H63.6304V81.1504H68.1204C70.3904 81.1504 71.6404 82.5304 71.6404 84.7604C71.6404 86.5804 70.7104 87.8504 69.0404 88.1304L71.8104 93.1504H69.6804L67.1404 88.3004H65.5404V93.1504ZM67.8404 86.7604C69.0404 86.7604 69.6304 86.2304 69.6304 85.1304V84.3904C69.6304 83.2904 69.0504 82.7604 67.8404 82.7604H65.5404V86.7704H67.8404V86.7604Z" fill="white"/>
<path d="M77.9302 82.7704V93.1504H76.0002V82.7704H72.2402V81.1504H81.6902V82.7704H77.9302V82.7704Z" fill="white"/>
<path d="M85.1504 92.1702V91.7602C85.1504 91.1102 85.5504 90.6102 86.5904 90.6102C87.6304 90.6102 88.0304 91.1102 88.0304 91.7602V92.1702C88.0304 92.8202 87.6304 93.3202 86.5904 93.3202C85.5504 93.3202 85.1504 92.8202 85.1504 92.1702ZM86.2704 89.0802L85.5704 84.6502V81.1602H87.6304V84.6502L86.9304 89.0802H86.2804H86.2704Z" fill="white"/>
</svg>
