<svg width="148" height="172" viewBox="0 0 148 172" fill="none" xmlns="http://www.w3.org/2000/svg">
<path d="M79.3109 120.748L45.6879 87.1254C44.2808 85.7183 44.2808 83.4414 45.6879 82.0343L46.4657 81.2565L85.1798 119.971L84.402 120.748C82.9949 122.156 80.718 122.156 79.3109 120.748Z" fill="#FFC107"/>
<path fill-rule="evenodd" clip-rule="evenodd" d="M86.4102 88.9899L77.4502 80.0299L97.7302 44.0399C101.67 37.9999 109.27 35.2699 116.54 37.6899C119.26 38.5999 121.86 40.1599 124.06 42.3699C126.27 44.5799 127.83 47.1699 128.74 49.8899C131.16 57.1599 128.44 64.7599 122.39 68.6999L86.4002 88.9799L86.4102 88.9899Z" fill="white"/>
<path d="M76.1972 70.9716L95.4729 90.2473C96.5619 91.3363 96.5619 93.1041 95.4729 94.193L94.1224 95.5436L70.908 72.3293L72.2586 70.9787C73.3476 69.8897 75.1153 69.8897 76.2043 70.9787L76.1972 70.9716Z" fill="#FFC107"/>
<path fill-rule="evenodd" clip-rule="evenodd" d="M86.2898 121.08L45.3598 80.1497C43.6198 78.4097 43.2798 75.7197 44.5298 73.6097L48.6998 66.5297C50.8598 62.8597 55.2598 60.9397 59.3198 62.2297C60.6998 62.6697 61.9998 63.4297 63.0898 64.5297L101.91 103.35C103 104.44 103.77 105.74 104.21 107.12C105.5 111.18 103.58 115.58 99.9098 117.74L92.8298 121.91C90.7098 123.16 88.0198 122.82 86.2898 121.08Z" fill="white"/>
<path d="M49.1401 135.19C66.1339 135.19 79.9101 131.783 79.9101 127.58C79.9101 123.377 66.1339 119.97 49.1401 119.97C32.1463 119.97 18.3701 123.377 18.3701 127.58C18.3701 131.783 32.1463 135.19 49.1401 135.19Z" fill="#FFC107"/>
</svg>
