<svg width="148" height="172" viewBox="0 0 148 172" fill="none" xmlns="http://www.w3.org/2000/svg">
<path d="M74.3601 132.78C100.196 132.78 121.14 111.836 121.14 85.9997C121.14 60.1638 100.196 39.2197 74.3601 39.2197C48.5242 39.2197 27.5801 60.1638 27.5801 85.9997C27.5801 111.836 48.5242 132.78 74.3601 132.78Z" fill="#FF6B00"/>
<path d="M74.36 120.36C93.3365 120.36 108.72 104.976 108.72 85.9996C108.72 67.0231 93.3365 51.6396 74.36 51.6396C55.3835 51.6396 40 67.0231 40 85.9996C40 104.976 55.3835 120.36 74.36 120.36Z" fill="white"/>
<path d="M74.3603 110.29C87.7753 110.29 98.6503 99.415 98.6503 86C98.6503 72.585 87.7753 61.71 74.3603 61.71C60.9453 61.71 50.0703 72.585 50.0703 86C50.0703 99.415 60.9453 110.29 74.3603 110.29Z" fill="#2B2D36"/>
<path d="M74.36 100.57C82.4068 100.57 88.93 94.0465 88.93 85.9997C88.93 77.9529 82.4068 71.4297 74.36 71.4297C66.3132 71.4297 59.79 77.9529 59.79 85.9997C59.79 94.0465 66.3132 100.57 74.36 100.57Z" fill="white"/>
<path d="M125.05 54.3899L113.47 52.3799L99.4502 63.9699L110.69 66.2699L125.05 54.3899Z" fill="#FFC107"/>
<path d="M113.68 40.6299L113.47 52.3799L99.4501 63.9699L99.3101 52.4999L113.68 40.6299Z" fill="#FFC107"/>
<path d="M109.302 51.8606L71.7235 82.9154C70.4974 83.9286 70.3248 85.7439 71.338 86.97L71.3954 87.0394C72.4086 88.2655 74.2239 88.4381 75.45 87.4248L113.029 56.3701C114.255 55.3569 114.427 53.5415 113.414 52.3154L113.357 52.2461C112.344 51.02 110.528 50.8474 109.302 51.8606Z" fill="#FFC107"/>
</svg>
