<svg width="262" height="160" viewBox="0 0 262 160" fill="none" xmlns="http://www.w3.org/2000/svg">
<path d="M131 32.9101C133.077 32.9101 134.76 31.2267 134.76 29.1501C134.76 27.0735 133.077 25.3901 131 25.3901C128.923 25.3901 127.24 27.0735 127.24 29.1501C127.24 31.2267 128.923 32.9101 131 32.9101Z" fill="white"/>
<path d="M133.02 30.23H128.97V65.58H133.02V30.23Z" fill="white"/>
<path d="M160.3 44.9799L133.02 33.4199V58.1499L160.3 46.5899C161.01 46.2899 161.01 45.2899 160.3 44.9899V44.9799Z" fill="#FF6B00"/>
<path d="M125.09 66.8301L81.08 121.04C77.04 126.01 80.58 133.44 86.99 133.44H175.01C181.41 133.44 184.95 126.01 180.92 121.04L136.91 66.8301C133.87 63.0801 128.14 63.0801 125.1 66.8301H125.09Z" fill="#FFC107"/>
</svg>
