<svg width="262" height="160" viewBox="0 0 262 160" fill="none" xmlns="http://www.w3.org/2000/svg">
<path d="M178.67 120.63L174.45 104.65C174.03 103.05 172.09 102.43 170.81 103.48L160.12 112.32C158.84 113.37 159.09 115.4 160.58 116.11L175.48 123.25C177.22 124.09 179.15 122.5 178.65 120.63H178.67Z" fill="white"/>
<path d="M131 123.6C160.426 123.6 184.28 104.08 184.28 79.9999C184.28 55.9203 160.426 36.3999 131 36.3999C101.574 36.3999 77.7202 55.9203 77.7202 79.9999C77.7202 104.08 101.574 123.6 131 123.6Z" fill="white"/>
<path d="M110.13 85.4099C113.118 85.4099 115.54 82.9877 115.54 79.9998C115.54 77.012 113.118 74.5898 110.13 74.5898C107.142 74.5898 104.72 77.012 104.72 79.9998C104.72 82.9877 107.142 85.4099 110.13 85.4099Z" fill="#2B2D36"/>
<path d="M131 85.4099C133.988 85.4099 136.41 82.9877 136.41 79.9998C136.41 77.012 133.988 74.5898 131 74.5898C128.012 74.5898 125.59 77.012 125.59 79.9998C125.59 82.9877 128.012 85.4099 131 85.4099Z" fill="#2B2D36"/>
<path d="M151.87 85.4099C154.858 85.4099 157.28 82.9877 157.28 79.9998C157.28 77.012 154.858 74.5898 151.87 74.5898C148.883 74.5898 146.46 77.012 146.46 79.9998C146.46 82.9877 148.883 85.4099 151.87 85.4099Z" fill="#2B2D36"/>
</svg>
