<svg width="262" height="160" viewBox="0 0 262 160" fill="none" xmlns="http://www.w3.org/2000/svg">
<path d="M120.72 122.17H141.3C143.01 122.17 144.4 123.56 144.4 125.27C144.4 131.68 139.2 136.88 132.79 136.88H129.25C122.84 136.88 117.64 131.68 117.64 125.27C117.64 123.56 119.03 122.17 120.74 122.17H120.72Z" fill="#FF6B00"/>
<path d="M131 112.31C150.198 112.31 165.76 96.7475 165.76 77.55C165.76 58.3526 150.198 42.79 131 42.79C111.803 42.79 96.2402 58.3526 96.2402 77.55C96.2402 96.7475 111.803 112.31 131 112.31Z" fill="white"/>
<path d="M146.04 103.05H115.97V114.61H146.04V103.05Z" fill="white"/>
<path d="M124.79 113.22L120.89 89.8301" stroke="#FFC107" stroke-width="2.8" stroke-linecap="round" stroke-linejoin="round"/>
<path d="M141.11 89.8301L137.21 113.22" stroke="#FFC107" stroke-width="2.8" stroke-linecap="round" stroke-linejoin="round"/>
<path d="M120.89 89.8901L125.94 93.6201L130.99 89.8901L136.05 93.6201L141.11 89.8901" stroke="#FFC107" stroke-width="2.8" stroke-linecap="round" stroke-linejoin="round"/>
<path d="M145.42 113.22H116.6C115.446 113.22 114.51 114.156 114.51 115.31V124.24C114.51 125.394 115.446 126.33 116.6 126.33H145.42C146.575 126.33 147.51 125.394 147.51 124.24V115.31C147.51 114.156 146.575 113.22 145.42 113.22Z" fill="#FF6B00"/>
<path d="M131.01 20.7402V34.1702" stroke="#F1EFF9" stroke-width="3" stroke-linecap="round" stroke-linejoin="round"/>
<path d="M110.31 25.8403L116.31 37.8603" stroke="#F1EFF9" stroke-width="3" stroke-linecap="round" stroke-linejoin="round"/>
<path d="M152.32 25.6704L146.18 37.6104" stroke="#F1EFF9" stroke-width="3" stroke-linecap="round" stroke-linejoin="round"/>
</svg>
