<svg width="260" height="260" viewBox="0 0 260 260" fill="none" xmlns="http://www.w3.org/2000/svg">
<g clip-path="url(#clip0_2622_178603)">
<path d="M13.6616 101.433L43.3104 135.981L58.4095 93.0293L13.6616 101.433Z" fill="#FFC107"/>
<path d="M42.9243 61.1523L51.5057 105.856L85.9351 76.0732L42.9243 61.1523Z" fill="#FFC107"/>
<path d="M80.1894 41.1992L75.29 86.4667L116.935 68.0865L80.1894 41.1992Z" fill="#FFC107"/>
<path d="M121.255 31L101.88 72.2143L147.252 68.3839L121.255 31Z" fill="#FFC107"/>
<path d="M161.594 34.459L129.258 66.5129L173.189 78.4794L161.594 34.459Z" fill="#FFC107"/>
<path d="M200.923 45.5957L162.93 70.6866L203.669 91.0414L200.923 45.5957Z" fill="#FFC107"/>
<path d="M232.145 72.7324L188.169 84.5207L220.372 116.708L232.145 72.7324Z" fill="#FFC107"/>
<path d="M250.986 111.053L206.356 102.041L220.877 145.2L250.986 111.053Z" fill="#FFC107"/>
<path d="M-1.70459 139.275L46.3392 129.402L30.869 175.947L-1.70459 139.275Z" fill="#FFC107"/>
<path d="M-11.1328 176.971L35.7084 162.466L24.8555 210.302L-11.1328 176.971Z" fill="#FFC107"/>
<path d="M-18.2585 220.055L27.5137 202.432L19.8825 250.876L-18.2585 220.055Z" fill="#FFC107"/>
<path d="M-22 261.818L17.7742 233.119L22.733 281.92L-22 261.818Z" fill="#FFC107"/>
<path d="M261.705 139.275L213.661 129.402L229.131 175.947L261.705 139.275Z" fill="#FFC107"/>
<path d="M271.133 176.971L224.292 162.466L235.145 210.302L271.133 176.971Z" fill="#FFC107"/>
<path d="M278.259 220.055L232.487 202.432L240.118 250.876L278.259 220.055Z" fill="#FFC107"/>
<path d="M282.001 261.818L242.226 233.119L237.268 281.92L282.001 261.818Z" fill="#FFC107"/>
<path d="M169.27 342.452H97.1153C44.855 342.452 6.2982 293.651 18.3982 242.801L42.5241 141.443C48.1658 95.6556 87.0641 61.2559 133.193 61.2559C179.336 61.2559 218.22 95.6556 223.861 141.443L247.987 242.801C260.087 293.636 221.53 342.452 169.27 342.452V342.452Z" fill="#FFC107"/>
<path d="M211.048 177.209C189.209 195.218 161.223 206.041 130.698 206.041C100.173 206.041 72.1875 195.218 50.348 177.209L36.4812 235.467C26.5488 277.186 58.1871 317.243 101.079 317.243H160.302C203.194 317.243 234.833 277.186 224.9 235.467L211.033 177.209H211.048Z" fill="#FFC107"/>
<path d="M30.8839 214L22.3174 209.383L38.4706 135.09L47.1559 139.93L30.8839 214Z" fill="#FFC107"/>
<path d="M48.9072 110.147L51.6984 112.122L60.1165 103.867L54.5193 93.7715L48.9072 110.147Z" fill="#FFC107"/>
<path d="M77.3238 124.815C90.2546 124.815 100.737 114.332 100.737 101.401C100.737 88.4707 90.2546 77.9883 77.3238 77.9883C64.3931 77.9883 53.9106 88.4707 53.9106 101.401C53.9106 114.332 64.3931 124.815 77.3238 124.815Z" fill="white"/>
<path d="M77.3241 112.104C83.236 112.104 88.0285 107.312 88.0285 101.4C88.0285 95.4879 83.236 90.6953 77.3241 90.6953C71.4122 90.6953 66.6196 95.4879 66.6196 101.4C66.6196 107.312 71.4122 112.104 77.3241 112.104Z" fill="#2B2D36"/>
<path d="M184.071 124.815C197.002 124.815 207.485 114.332 207.485 101.401C207.485 88.4707 197.002 77.9883 184.071 77.9883C171.141 77.9883 160.658 88.4707 160.658 101.401C160.658 114.332 171.141 124.815 184.071 124.815Z" fill="white"/>
<path d="M184.072 112.104C189.984 112.104 194.776 107.312 194.776 101.4C194.776 95.4879 189.984 90.6953 184.072 90.6953C178.16 90.6953 173.367 95.4879 173.367 101.4C173.367 107.312 178.16 112.104 184.072 112.104Z" fill="#2B2D36"/>
<path d="M211.048 177.208L205.109 152.28C200.477 114.703 168.557 86.4648 130.698 86.4648C92.8388 86.4648 60.9185 114.688 56.2863 152.28L50.3477 177.208C72.1871 195.217 100.173 206.04 130.698 206.04C161.223 206.04 189.209 195.217 211.048 177.208Z" fill="white"/>
<path d="M101.688 159.434C106.345 159.434 110.121 155.659 110.121 151.001C110.121 146.344 106.345 142.568 101.688 142.568C97.0304 142.568 93.2549 146.344 93.2549 151.001C93.2549 155.659 97.0304 159.434 101.688 159.434Z" fill="#2B2D36"/>
<path d="M159.709 159.434C164.366 159.434 168.142 155.659 168.142 151.001C168.142 146.344 164.366 142.568 159.709 142.568C155.051 142.568 151.276 146.344 151.276 151.001C151.276 155.659 155.051 159.434 159.709 159.434Z" fill="#2B2D36"/>
<path d="M130.698 167.912C136.159 167.912 140.586 165.061 140.586 161.543C140.586 158.025 136.159 155.174 130.698 155.174C125.237 155.174 120.81 158.025 120.81 161.543C120.81 165.061 125.237 167.912 130.698 167.912Z" fill="#2B2D36"/>
<path d="M127.892 177.075C132.777 183.355 131.144 192.946 124.166 198.93L104.509 215.781C96.9814 222.239 86.2027 221.972 80.9321 215.202L79.4475 213.286C74.1769 206.516 76.5524 196.005 84.6587 190.274L105.8 175.338C113.313 170.038 123.008 170.795 127.907 177.06L127.892 177.075Z" fill="#2B2D36"/>
<path d="M133.504 177.075C128.619 183.355 130.252 192.946 137.23 198.93L156.887 215.781C164.414 222.239 175.193 221.972 180.464 215.202L181.948 213.286C187.219 206.516 184.843 196.005 176.737 190.274L155.595 175.338C148.083 170.038 138.388 170.795 133.489 177.06L133.504 177.075Z" fill="#2B2D36"/>
</g>
<defs>
<clipPath id="clip0_2622_178603">
<rect width="260" height="260" fill="white"/>
</clipPath>
</defs>
</svg>
