<svg width="260" height="260" viewBox="0 0 260 260" fill="none" xmlns="http://www.w3.org/2000/svg">
<g clip-path="url(#clip0_2622_178487)">
<path d="M166.051 313.975C176.306 323.465 192.056 323.715 202.628 314.574L272.138 254.421C284.508 243.716 298.727 216.329 275.851 195.168C252.958 174.023 226.77 190.356 217.08 203.525L162.588 277.547C154.296 288.802 155.795 304.485 166.067 313.958" fill="#FFC107"/>
<path d="M59.3472 97.0035C67.825 97.0035 74.6976 90.1309 74.6976 81.6531C74.6976 73.1753 67.825 66.3027 59.3472 66.3027C50.8694 66.3027 43.9968 73.1753 43.9968 81.6531C43.9968 90.1309 50.8694 97.0035 59.3472 97.0035Z" fill="#FFC107"/>
<path d="M198.733 97.0035C207.211 97.0035 214.083 90.1309 214.083 81.6531C214.083 73.1753 207.211 66.3027 198.733 66.3027C190.255 66.3027 183.383 73.1753 183.383 81.6531C183.383 90.1309 190.255 97.0035 198.733 97.0035Z" fill="#FFC107"/>
<path d="M240.888 259.431L219.794 163.483C219.145 160.536 218.645 157.54 218.295 154.526C217.713 149.615 216.747 144.836 215.465 140.191C214.1 135.247 212.385 130.452 210.287 125.89C195.836 94.2401 164.885 72.3633 129.024 72.3633C93.1616 72.3633 62.1445 94.29 47.7264 126.006C45.4455 131.034 43.5808 136.295 42.1823 141.756L39.1522 159.005C39.1355 159.121 39.1189 159.221 39.1022 159.338V159.471C38.9857 159.987 38.9524 160.503 38.9524 161.003C38.9524 160.47 38.969 159.92 39.0689 159.371V159.238C38.8525 160.653 38.5861 162.068 38.2698 163.483L17.1755 259.431C15.6105 266.524 14.7947 273.8 15.0444 281.075C16.5761 325.212 51.4558 361.923 95.6423 361.923H162.438C206.625 361.923 241.504 325.212 243.036 281.075C243.286 273.8 242.453 266.524 240.905 259.431H240.888Z" fill="#FFC107"/>
<path d="M39.7848 154.525C39.6183 155.99 39.4018 157.455 39.1521 158.903L42.1656 141.771C41.1 145.917 40.3009 150.163 39.7848 154.508V154.525Z" fill="#FF6B00"/>
<path d="M117.336 38H140.744C181.218 38 214.083 70.8651 214.083 111.339C214.083 140.608 190.309 164.383 161.04 164.383H97.0408C67.7718 164.383 43.9971 140.608 43.9971 111.339C43.9971 70.8651 76.8622 38 117.336 38Z" fill="#FFC107"/>
<path d="M26.3657 137.325C26.3824 137.209 26.4157 137.092 26.4323 136.976L26.3657 137.325Z" fill="black"/>
<path d="M93.8773 101.183C97.5002 101.183 100.437 98.246 100.437 94.6232C100.437 91.0004 97.5002 88.0635 93.8773 88.0635C90.2545 88.0635 87.3176 91.0004 87.3176 94.6232C87.3176 98.246 90.2545 101.183 93.8773 101.183Z" fill="#2B2D36"/>
<path d="M164.203 101.183C167.826 101.183 170.763 98.246 170.763 94.6232C170.763 91.0004 167.826 88.0635 164.203 88.0635C160.58 88.0635 157.643 91.0004 157.643 94.6232C157.643 98.246 160.58 101.183 164.203 101.183Z" fill="#2B2D36"/>
<path d="M107.729 140.171C120.501 140.171 130.854 129.817 130.854 117.045C130.854 104.274 120.501 93.9199 107.729 93.9199C94.9571 93.9199 84.6035 104.274 84.6035 117.045C84.6035 129.817 94.9571 140.171 107.729 140.171Z" fill="white"/>
<path d="M130.854 93.9199H107.729V117.045H130.854V93.9199Z" fill="white"/>
<path d="M150.351 140.171C163.122 140.171 173.476 129.817 173.476 117.045C173.476 104.274 163.122 93.9199 150.351 93.9199C137.579 93.9199 127.225 104.274 127.225 117.045C127.225 129.817 137.579 140.171 150.351 140.171Z" fill="white"/>
<path d="M150.351 93.9199H127.225V117.045H150.351V93.9199Z" fill="white"/>
<path d="M142.792 105.043V107.724C142.792 112.868 138.613 117.031 133.485 117.031H124.611C119.467 117.031 115.304 112.852 115.304 107.724V105.043C115.304 97.7844 121.198 91.8906 128.457 91.8906H129.656C136.915 91.8906 142.809 97.7844 142.809 105.043H142.792Z" fill="#2B2D36"/>
<path d="M129.806 183.312C99.0057 183.312 74.0488 207.103 74.0488 236.472V355.396C82.2734 359.608 91.3138 361.939 100.87 361.939H158.759C168.299 361.939 177.356 359.608 185.581 355.396V236.472C185.581 207.12 160.624 183.312 129.823 183.312H129.806Z" fill="white"/>
<path d="M125.727 222.985H135.966C144.191 222.985 150.867 229.662 150.867 237.886C150.867 241.999 147.521 245.345 143.408 245.345H118.252C114.139 245.345 110.793 241.999 110.793 237.886C110.793 229.662 117.469 222.985 125.694 222.985H125.727Z" fill="#FF6B00"/>
<path d="M165.718 187.623L150.767 177.284C138.796 169.009 122.93 169.009 110.959 177.284L96.0084 187.623C90.1813 191.652 88.916 199.71 93.2114 205.338L112.508 230.594C121.748 242.698 139.978 242.698 149.235 230.594L168.532 205.338C172.827 199.71 171.545 191.652 165.734 187.623H165.718Z" fill="#FF6B00"/>
<path d="M62.3795 202.093L81.0911 197.517L90.8309 237.35L72.1192 241.926C61.1219 244.615 50.0118 237.87 47.3228 226.873C44.6338 215.875 51.3782 204.765 62.3755 202.076L62.3795 202.093Z" fill="#FFC107"/>
<path d="M80.6423 197.534L88.5184 195.608C99.5481 192.911 110.678 199.668 113.375 210.698C116.072 221.728 109.315 232.858 98.2858 235.555L90.4097 237.48L80.6423 197.534Z" fill="#2B2D36"/>
<path d="M186.378 241.938L167.667 237.363L177.406 197.53L196.118 202.105C207.115 204.794 213.86 215.904 211.171 226.902C208.482 237.899 197.372 244.643 186.374 241.954L186.378 241.938Z" fill="#FFC107"/>
<path d="M168.123 237.483L160.247 235.558C149.217 232.861 142.46 221.73 145.157 210.701C147.854 199.671 158.984 192.914 170.014 195.611L177.89 197.537L168.123 237.483Z" fill="#2B2D36"/>
<path d="M111.726 196.949C112.142 196.915 112.558 196.782 112.941 196.566C114.273 195.767 114.723 194.035 113.923 192.703L106.548 180.35L101.903 183.563L109.079 195.6C109.645 196.549 110.694 197.049 111.726 196.965V196.949Z" fill="white"/>
<path d="M145.557 196.564C145.94 196.798 146.356 196.914 146.772 196.947C147.805 197.031 148.853 196.531 149.419 195.582L157.544 181.963L152.899 178.75L144.575 192.685C143.775 194.017 144.208 195.749 145.557 196.548V196.564Z" fill="white"/>
<path d="M128.907 194.668C129.357 194.668 129.773 194.584 130.156 194.401C131.105 193.968 131.771 193.019 131.787 191.904L132.204 171.126C130.322 171.059 128.424 171.126 126.56 171.359L126.143 191.787C126.11 193.352 127.342 194.634 128.907 194.668Z" fill="white"/>
</g>
<defs>
<clipPath id="clip0_2622_178487">
<rect width="260" height="260" fill="white"/>
</clipPath>
</defs>
</svg>
