<svg width="260" height="260" viewBox="0 0 260 260" fill="none" xmlns="http://www.w3.org/2000/svg">
<g clip-path="url(#clip0_2622_178534)">
<path d="M242.875 223.034L221.6 130.179C220.949 127.324 220.446 124.424 220.091 121.524C219.499 116.775 218.523 112.144 217.235 107.646L220.564 125.889C221.319 130.016 218.582 133.967 214.454 134.721C210.326 135.476 206.376 132.739 205.621 128.611L200.694 101.713C199.94 97.5854 202.677 93.6351 206.805 92.8806C208.669 92.5403 210.489 92.9102 212.013 93.7979C197.44 63.1719 166.222 42 130.048 42C93.8734 42 62.4928 63.2902 47.964 94.0494C49.4583 93.2061 51.2337 92.8658 53.0535 93.1913C57.1814 93.9458 59.9185 97.9109 59.1639 102.024L54.2371 128.922C53.4826 133.049 49.5175 135.787 45.4044 135.032C41.2914 134.277 38.5395 130.312 39.294 126.199L39.3236 126.066C39.0869 127.442 38.8058 128.818 38.4951 130.179L17.2196 223.034C15.6513 229.899 14.808 236.941 15.0595 243.969C16.5982 286.682 51.7811 322.206 96.359 322.206H163.721C208.299 322.206 243.467 286.682 245.021 243.969C245.272 236.926 244.444 229.899 242.861 223.034H242.875Z" fill="#FFC107"/>
<path d="M206.804 92.879C202.676 93.6335 199.939 97.5986 200.694 101.712L205.621 128.609C206.375 132.737 210.34 135.474 214.453 134.72C218.581 133.965 221.318 130 220.564 125.887L217.235 107.645C215.859 102.851 214.128 98.22 212.012 93.7963C210.503 92.9086 208.669 92.5387 206.804 92.879Z" fill="#FFC107"/>
<path d="M39.3237 126.079C39.3385 125.976 39.368 125.873 39.3827 125.77L39.3237 126.079Z" fill="black"/>
<path d="M145.612 138.758H114.483V239.631H145.612V138.758Z" fill="white"/>
<path d="M122.383 112.229C122.383 95.8707 109.125 82.6094 92.7707 82.6094C76.4162 82.6094 63.1582 95.8707 63.1582 112.229V208.738C63.1582 225.097 76.4162 238.358 92.7707 238.358C109.125 238.358 122.383 225.097 122.383 208.738V112.229Z" fill="white"/>
<path d="M196.936 112.229C196.936 95.8707 183.679 82.6094 167.324 82.6094C150.969 82.6094 137.711 95.8707 137.711 112.229V208.738C137.711 225.097 150.969 238.358 167.324 238.358C183.679 238.358 196.936 225.097 196.936 208.738V112.229Z" fill="white"/>
<path d="M225.165 216.611L207.233 138.33C206.686 135.918 206.257 133.477 205.961 131.021C204.422 118.549 199.259 106.476 192.468 96.6076L130.047 166.796L69.1502 94.2256C61.1756 104.701 55.8493 117.291 54.1479 131.021C53.852 133.477 53.4229 135.918 52.8755 138.33L34.9438 216.611C33.6122 222.396 32.9168 228.329 33.124 234.262C34.4259 270.273 64.0754 300.219 101.655 300.219H158.454C196.034 300.219 225.683 270.273 226.985 234.262C227.207 228.329 226.497 222.396 225.165 216.611Z" fill="white"/>
<path d="M40.0034 121.527C39.8258 122.947 39.6187 124.352 39.3672 125.773L42.4002 109.202C41.3202 113.212 40.5212 117.325 40.0034 121.541V121.527Z" fill="#FFC107"/>
<path d="M53.1564 93.06C51.3218 92.7197 49.5316 93.06 48.0373 93.9181C45.744 98.7857 43.865 103.875 42.4447 109.157L39.3969 125.846C39.3821 125.95 39.3525 126.053 39.3377 126.157L39.3081 126.29C38.5536 130.447 41.3055 134.427 45.4629 135.197C49.6204 135.951 53.6003 133.199 54.3696 129.042L59.326 101.952C60.0805 97.7944 57.3286 93.8145 53.1712 93.0452L53.1564 93.06Z" fill="#FFC107"/>
<path d="M242.875 223.034L221.599 130.18C221.274 128.774 220.993 127.354 220.741 125.934H220.578C220.578 125.934 220.578 126.037 220.593 126.096C220.623 126.289 220.652 126.496 220.667 126.688C220.667 126.747 220.667 126.792 220.667 126.851C220.667 127.058 220.682 127.25 220.667 127.457C220.667 127.502 220.667 127.546 220.667 127.591C220.667 127.798 220.652 128.005 220.623 128.197C220.623 128.242 220.608 128.286 220.593 128.33C220.564 128.538 220.534 128.73 220.49 128.922C220.49 128.967 220.46 129.011 220.46 129.055C220.416 129.248 220.356 129.44 220.297 129.632C220.282 129.677 220.253 129.736 220.238 129.78C220.179 129.958 220.105 130.135 220.031 130.313C220.001 130.372 219.972 130.431 219.942 130.491C219.868 130.653 219.794 130.816 219.705 130.964C219.661 131.038 219.617 131.097 219.572 131.171C219.483 131.304 219.409 131.437 219.321 131.571C219.262 131.659 219.188 131.733 219.128 131.822C219.04 131.926 218.966 132.044 218.877 132.148C218.803 132.236 218.699 132.325 218.625 132.429C218.551 132.517 218.477 132.606 218.389 132.68C218.27 132.784 218.152 132.887 218.034 132.991C217.974 133.05 217.9 133.109 217.841 133.168C217.693 133.287 217.545 133.39 217.397 133.494C217.353 133.524 217.309 133.568 217.249 133.597C217.072 133.716 216.88 133.834 216.687 133.938C216.658 133.938 216.643 133.967 216.613 133.982C215.947 134.322 215.222 134.589 214.453 134.722C213.935 134.811 213.417 134.855 212.914 134.84C209.378 134.766 206.271 132.222 205.606 128.612L205.117 125.934H157.299C151.352 134.618 141.365 140.329 130.032 140.329C118.699 140.329 108.712 134.618 102.764 125.934H54.9021L54.3399 129.041C53.5853 133.198 49.5906 135.95 45.4332 135.195C41.7788 134.53 39.2044 131.363 39.16 127.783C39.16 127.265 39.1896 126.733 39.2784 126.215L39.308 126.082C39.0713 127.457 38.7902 128.833 38.4795 130.195L17.204 223.049C15.6357 229.914 14.7924 236.957 15.0439 243.984C16.5826 286.698 51.7655 322.221 96.3433 322.221H163.706C208.284 322.221 243.452 286.698 245.005 243.984C245.257 236.942 244.428 229.914 242.845 223.049L242.875 223.034Z" fill="white"/>
<path d="M216.613 133.98C215.947 134.321 215.222 134.587 214.453 134.72C213.935 134.809 213.417 134.853 212.914 134.839C213.417 134.839 213.935 134.809 214.453 134.72C215.222 134.572 215.947 134.321 216.613 133.98Z" fill="#FFC107"/>
<path d="M132.725 148.214L140.73 139.559C142.89 137.221 141.233 133.434 138.052 133.434H122.058C118.877 133.434 117.22 137.221 119.38 139.559L127.384 148.214C128.834 149.782 131.305 149.782 132.755 148.214H132.725Z" fill="#2B2D36"/>
<path d="M101.137 139.854C105.778 139.854 109.541 136.092 109.541 131.451C109.541 126.809 105.778 123.047 101.137 123.047C96.4958 123.047 92.7334 126.809 92.7334 131.451C92.7334 136.092 96.4958 139.854 101.137 139.854Z" fill="black"/>
<path d="M158.957 139.854C163.598 139.854 167.361 136.092 167.361 131.451C167.361 126.809 163.598 123.047 158.957 123.047C154.316 123.047 150.553 126.809 150.553 131.451C150.553 136.092 154.316 139.854 158.957 139.854Z" fill="black"/>
<path d="M205.133 125.933C205.133 125.933 206.701 140.61 202.263 152.623L224.485 241.823V294.953C224.485 294.953 252.182 270.467 242.89 223.019C233.599 175.57 219.218 119.719 219.218 119.719L205.133 125.918V125.933Z" fill="#FFC107"/>
<path d="M17.8851 262.788C18.684 265.895 19.6161 268.78 20.6518 271.443C26.6734 287.022 35.6393 294.967 35.6393 294.967V241.838L35.6689 241.734C24.5133 242.814 17.1749 252.638 17.8999 262.803L17.8851 262.788Z" fill="white"/>
<path d="M242.253 262.787C241.129 267.758 240.789 268.557 239.871 271.265C234.989 285.542 224.218 295.248 224.218 295.248L223.538 292.244V241.822H224.484C235.64 242.888 242.978 252.623 242.253 262.772V262.787Z" fill="white"/>
<path d="M193.296 160.715C200.34 160.715 206.05 149.341 206.05 135.312C206.05 121.282 200.34 109.908 193.296 109.908C186.253 109.908 180.543 121.282 180.543 135.312C180.543 149.341 186.253 160.715 193.296 160.715Z" fill="white"/>
<path d="M35.6541 241.721L57.8468 152.624C53.4083 140.61 54.9174 125.934 54.9174 125.934L40.8916 119.734C40.8916 119.734 26.5107 175.586 17.2193 223.034C14.1123 238.865 15.148 252.122 17.8703 262.789C17.1453 252.625 24.4837 242.801 35.6393 241.721H35.6541Z" fill="#FFC107"/>
<path d="M66.7974 160.715C73.8409 160.715 79.5508 149.341 79.5508 135.312C79.5508 121.282 73.8409 109.908 66.7974 109.908C59.7539 109.908 54.0439 121.282 54.0439 135.312C54.0439 149.341 59.7539 160.715 66.7974 160.715Z" fill="white"/>
<path d="M44.0134 111.995C43.5843 113.859 43.2292 115.753 42.9481 117.647L44.6052 117.203C43.6731 116.034 42.8446 114.421 43.7767 113.075C44.2501 112.409 43.5991 111.64 42.9185 111.581C42.1492 111.522 41.6314 112.32 41.8237 113.016C42.1048 114.081 43.8062 113.889 43.7767 112.75C43.7471 111.891 43.9394 111.092 44.3537 110.353C44.5904 109.924 44.5016 109.361 44.1022 109.066C43.6879 108.755 43.1848 108.814 42.8002 109.139C42.6078 109.302 42.4451 109.509 42.3415 109.746C42.1196 110.234 42.1936 110.811 42.6966 111.107C43.1257 111.359 43.8358 111.24 44.0578 110.752C44.1317 110.589 44.0726 110.663 44.2057 110.545L42.6374 109.347C42.0604 110.397 41.7497 111.566 41.7941 112.75L43.7471 112.483V112.409L43.6287 113.179L43.6583 113.119L43.3032 113.474L43.3624 113.43L42.8594 113.563H42.9333L42.0752 112.069C41.3946 113.045 41.2763 114.303 41.513 115.442C41.7497 116.581 42.4747 117.662 43.2144 118.608C43.6583 119.156 44.7679 118.875 44.8715 118.165C45.1526 116.271 45.5077 114.377 45.9367 112.513C46.0551 111.995 45.774 111.433 45.2414 111.285C44.7383 111.152 44.1317 111.448 44.0134 111.98V111.995Z" fill="#FFC107"/>
<path d="M41.2173 114.969C41.1138 115.517 41.0842 116.079 41.025 116.626L40.877 118.106C40.8475 118.342 41.0102 118.653 41.1729 118.816C41.3505 118.993 41.6316 119.112 41.8831 119.112C42.1346 119.112 42.4009 119.023 42.5933 118.816C42.7856 118.609 42.8596 118.387 42.8892 118.106C42.9779 117.218 43.0519 116.33 43.1703 115.443L43.1407 115.709C43.1407 115.709 43.1555 115.561 43.1703 115.487C43.2147 115.221 43.2147 114.969 43.0667 114.718C42.9484 114.51 42.7116 114.318 42.4749 114.259C42.2234 114.2 41.9275 114.215 41.7056 114.363C41.4984 114.496 41.2913 114.703 41.2469 114.954L41.2173 114.969Z" fill="#FFC107"/>
<path d="M40.7436 117.5C40.64 118.358 40.5512 119.216 40.4921 120.075C40.4625 120.489 40.8176 120.947 41.217 121.036C41.3946 121.081 41.5721 121.081 41.7497 121.036C41.9568 120.992 42.2527 120.785 42.3415 120.578C42.445 120.341 42.519 120.119 42.519 119.867C42.519 119.631 42.445 119.364 42.3119 119.172C42.1047 118.832 41.7201 118.639 41.3206 118.699C40.9655 118.743 40.566 119.024 40.4921 119.409C40.3885 120.001 40.3145 120.607 40.2849 121.214C40.2553 121.732 40.7584 122.235 41.2762 122.205C41.8384 122.175 42.2379 121.761 42.2675 121.214C42.2675 120.962 42.2971 120.726 42.3267 120.474C42.3267 120.415 42.3267 120.356 42.3415 120.296C42.3711 120.104 42.3119 120.444 42.3415 120.311C42.3711 120.178 42.3858 120.06 42.4006 119.927L40.5808 120.163C40.64 120.252 40.6252 120.223 40.5512 120.075C40.4921 119.897 40.5217 119.734 40.6104 119.572L42.4598 120.075C42.519 119.216 42.593 118.358 42.7113 117.5C42.7409 117.263 42.5782 116.953 42.4154 116.79C42.2379 116.612 41.9568 116.494 41.7053 116.494C41.4538 116.494 41.1874 116.583 40.9951 116.79C40.8028 116.997 40.7436 117.219 40.6992 117.5H40.7436Z" fill="#FFC107"/>
<path d="M40.2256 120.472C40.048 121.611 39.9741 122.75 40.0332 123.904C40.0628 124.422 40.4771 124.925 41.0245 124.896C41.5424 124.866 42.0454 124.452 42.0158 123.904C41.9714 122.943 42.0158 121.996 42.1342 121.049L42.1046 121.315C42.1046 121.212 42.1342 121.108 42.1489 121.005C42.1933 120.723 42.1933 120.487 42.0454 120.235C41.927 120.028 41.6903 119.836 41.4536 119.777C41.2021 119.717 40.9062 119.732 40.6842 119.88C40.4771 120.013 40.27 120.22 40.2256 120.472V120.472Z" fill="#FFC107"/>
<path d="M40.0185 122.161C39.9001 122.975 39.841 123.789 39.8853 124.603C39.9001 124.869 39.9889 125.12 40.1813 125.313C40.3588 125.49 40.6399 125.609 40.8914 125.609C41.1429 125.609 41.4092 125.52 41.6016 125.313C41.7939 125.106 41.9123 124.869 41.8975 124.603C41.8531 123.952 41.8679 123.286 41.9567 122.635L41.9271 122.901C41.9271 122.901 41.9419 122.753 41.9567 122.694C42.0011 122.561 42.0011 122.428 41.9715 122.295C41.9715 122.161 41.9271 122.043 41.8531 121.925C41.7347 121.718 41.498 121.525 41.2613 121.466C41.0098 121.407 40.7139 121.422 40.4919 121.57C40.2848 121.703 40.0777 121.91 40.0333 122.161H40.0185Z" fill="#FFC107"/>
<path d="M39.8699 123.342V123.387L39.8403 123.12C39.8699 123.342 39.8847 123.564 39.8699 123.771C39.8699 123.905 39.8995 124.038 39.9587 124.156C40.0031 124.274 40.0623 124.393 40.1658 124.482C40.2546 124.585 40.3582 124.644 40.4913 124.689C40.6097 124.748 40.7428 124.778 40.876 124.778L41.1423 124.748C41.3051 124.704 41.453 124.615 41.5862 124.496L41.7489 124.289C41.8377 124.141 41.8821 123.964 41.8821 123.786C41.8821 123.461 41.8525 123.15 41.8081 122.825C41.7785 122.691 41.7193 122.588 41.6305 122.484C41.5566 122.381 41.4678 122.292 41.3494 122.233C41.2311 122.159 41.1127 122.114 40.9796 122.114C40.8464 122.085 40.7132 122.085 40.5801 122.129L40.3434 122.233C40.1954 122.322 40.0771 122.44 39.9883 122.588L39.8847 122.825C39.8403 123.002 39.8403 123.18 39.8847 123.357L39.8699 123.342Z" fill="#FFC107"/>
<path d="M39.7522 123.565L39.8706 125.207C39.8854 125.473 39.9741 125.71 40.1665 125.917C40.344 126.095 40.6251 126.213 40.8767 126.213C41.1282 126.213 41.3945 126.124 41.5868 125.917C41.7792 125.71 41.8975 125.473 41.8827 125.207L41.7644 123.565C41.7496 123.298 41.6608 123.062 41.4685 122.854C41.2909 122.677 41.0098 122.559 40.7583 122.559C40.5068 122.559 40.2405 122.647 40.0481 122.854C39.8558 123.062 39.7374 123.298 39.7522 123.565Z" fill="#FFC107"/>
<path d="M219.159 115.693L221.792 129.926L217.665 129.482L219.159 115.693Z" fill="#FFC107"/>
<path d="M40.9211 115.693L37.6958 132.471L43.6878 123.905L40.9211 115.693Z" fill="#FFC107"/>
<path d="M130.137 214.25C129.59 211.098 131.809 208.154 134.99 207.799C143.187 206.882 158.736 206.601 170.055 215.108C186.093 227.166 188.682 250.809 187.528 252.347C185.072 255.602 162.938 257.969 146.9 245.911C135.582 237.404 131.543 222.372 130.137 214.25V214.25Z" fill="#FF6B00"/>
<path d="M201.332 250.01L183.415 247.835C182.409 247.716 181.639 248.722 182.039 249.655L189.111 266.255C189.51 267.187 190.768 267.35 191.374 266.536L202.219 252.111C202.826 251.297 202.338 250.128 201.332 250.01Z" fill="#FF6B00"/>
<path d="M151.454 219.168L151.264 217.373L141.157 218.444L141.347 220.239L151.454 219.168Z" fill="white"/>
<path d="M145.988 223.95L147.783 223.76L146.711 213.652L144.916 213.842L145.988 223.95Z" fill="white"/>
<path d="M147.891 238.157C147.521 237.861 147.373 237.343 147.565 236.87C147.802 236.308 148.438 236.027 149.015 236.263C153.779 238.187 159.135 236.811 162.361 232.816C165.586 228.821 165.823 223.288 162.938 219.042C162.597 218.539 162.73 217.843 163.233 217.503C163.736 217.163 164.432 217.296 164.772 217.799C168.205 222.859 167.938 229.458 164.092 234.222C160.245 238.986 153.853 240.628 148.187 238.335C148.083 238.29 147.994 238.231 147.906 238.172L147.891 238.157Z" fill="white"/>
<path d="M77.9982 239.162L35.5952 241.722L57.8175 152.521L89.4348 218.049C92.1275 227.045 87.0084 236.499 78.013 239.162H77.9982Z" fill="#FFC107"/>
<path d="M182.349 239.28L224.752 241.84L202.263 152.64L170.912 218.167C168.219 227.163 173.338 236.617 182.334 239.28H182.349Z" fill="#FFC107"/>
</g>
<defs>
<clipPath id="clip0_2622_178534">
<rect width="260" height="260" fill="white"/>
</clipPath>
</defs>
</svg>
