<svg width="260" height="260" viewBox="0 0 260 260" fill="none" xmlns="http://www.w3.org/2000/svg">
<g clip-path="url(#clip0_2622_178656)">
<path d="M130 333.364C194.065 333.364 246 281.428 246 217.363C246 153.298 194.065 101.363 130 101.363C65.935 101.363 14 153.298 14 217.363C14 281.428 65.935 333.364 130 333.364Z" fill="#2B2D36"/>
<path d="M130.001 320.7C185.835 320.7 231.098 275.438 231.098 219.603C231.098 163.769 185.835 118.506 130.001 118.506C74.1661 118.506 28.9033 163.769 28.9033 219.603C28.9033 275.438 74.1661 320.7 130.001 320.7Z" fill="white"/>
<path d="M129.999 303.62C132.381 303.62 134.311 276.281 134.311 242.556C134.311 208.831 132.381 181.492 129.999 181.492C127.618 181.492 125.688 208.831 125.688 242.556C125.688 276.281 127.618 303.62 129.999 303.62Z" fill="#F4F0FF"/>
<path d="M192.487 217.471C191.412 224.067 168.536 227.29 162.484 228.228C137.596 231.496 92.2215 232.131 69.9505 220.708C68.8763 219.952 67.4692 218.938 67.5297 217.486C67.7869 218.863 69.2394 219.407 70.3892 219.891C79.7395 225.202 190.943 227.154 192.487 217.486V217.471Z" fill="#F4F0FF"/>
<path d="M192.487 255.566C191.412 262.163 168.536 265.386 162.484 266.324C137.596 269.592 92.2215 270.227 69.9505 258.804C68.8763 258.048 67.4692 257.034 67.5297 255.582C67.7869 256.958 69.2394 257.503 70.3892 257.987C79.7395 263.298 190.943 265.249 192.487 255.582V255.566Z" fill="#F4F0FF"/>
<path d="M60.4032 175.155C53.2771 182.281 53.4284 194.173 60.7512 202.267L81.3428 225.037C89.2406 233.767 102.343 234.645 110.029 226.959L112.208 224.78C119.894 217.094 119.016 203.992 110.286 196.094L87.5158 175.503C79.4365 168.195 67.5293 168.044 60.4032 175.155V175.155Z" fill="#FFC107"/>
<path d="M199.598 175.155C206.724 182.281 206.572 194.173 199.25 202.267L178.658 225.037C170.76 233.767 157.658 234.645 149.972 226.959L147.793 224.78C140.107 217.094 140.985 203.992 149.715 196.094L172.485 175.503C180.564 168.195 192.471 168.044 199.598 175.155V175.155Z" fill="#FFC107"/>
<path d="M114.614 230.603L113.706 224.733C113.524 223.583 112.163 223.053 111.255 223.78L106.625 227.502C105.717 228.243 105.944 229.68 107.034 230.104L112.571 232.252C113.66 232.676 114.81 231.753 114.629 230.603H114.614Z" fill="#2B2D36"/>
<path d="M104.991 236.445L105.324 230.514C105.384 229.349 104.159 228.547 103.115 229.077L97.8043 231.755C96.7604 232.284 96.6847 233.737 97.653 234.387L102.631 237.64C103.614 238.276 104.915 237.625 104.976 236.445H104.991Z" fill="#2B2D36"/>
<path d="M121.8 220.77L118.835 215.626C118.245 214.612 116.792 214.612 116.202 215.626L113.237 220.77C112.647 221.783 113.388 223.054 114.553 223.054H120.499C121.664 223.054 122.405 221.783 121.815 220.77H121.8Z" fill="#2B2D36"/>
<path d="M145.387 230.317L146.294 224.447C146.476 223.297 147.838 222.767 148.746 223.493L153.375 227.215C154.283 227.957 154.056 229.394 152.967 229.818L147.429 231.966C146.34 232.39 145.19 231.467 145.372 230.317H145.387Z" fill="#2B2D36"/>
<path d="M155.009 236.16L154.676 230.229C154.616 229.064 155.841 228.262 156.885 228.792L162.196 231.47C163.24 231.999 163.316 233.452 162.347 234.102L157.37 237.355C156.386 237.99 155.085 237.34 155.024 236.16H155.009Z" fill="#2B2D36"/>
<path d="M138.2 220.483L141.166 215.339C141.756 214.326 143.208 214.326 143.798 215.339L146.764 220.483C147.354 221.497 146.613 222.768 145.448 222.768H139.502C138.337 222.768 137.595 221.497 138.185 220.483H138.2Z" fill="#2B2D36"/>
<path d="M130 178.89C170.719 178.89 203.727 147.575 203.727 108.945C203.727 70.3155 170.719 39 130 39C89.2814 39 56.2725 70.3155 56.2725 108.945C56.2725 147.575 89.2814 178.89 130 178.89Z" fill="#FFC107"/>
<path d="M127.343 120.395C127.851 119.807 127.252 118.458 126.006 117.383C124.759 116.308 123.338 115.913 122.83 116.501C122.322 117.089 122.921 118.438 124.167 119.514C125.414 120.589 126.835 120.984 127.343 120.395Z" fill="#2B2D36"/>
<path d="M135.84 119.506C137.086 118.43 137.685 117.082 137.178 116.493C136.67 115.905 135.248 116.3 134.002 117.375C132.755 118.45 132.157 119.799 132.664 120.388C133.172 120.976 134.594 120.581 135.84 119.506Z" fill="#2B2D36"/>
<path d="M102.328 114.18C107.074 114.18 110.921 110.332 110.921 105.586C110.921 100.84 107.074 96.9922 102.328 96.9922C97.5814 96.9922 93.7339 100.84 93.7339 105.586C93.7339 110.332 97.5814 114.18 102.328 114.18Z" fill="#2B2D36"/>
<path d="M157.673 114.18C162.419 114.18 166.267 110.332 166.267 105.586C166.267 100.84 162.419 96.9922 157.673 96.9922C152.927 96.9922 149.079 100.84 149.079 105.586C149.079 110.332 152.927 114.18 157.673 114.18Z" fill="#2B2D36"/>
</g>
<defs>
<clipPath id="clip0_2622_178656">
<rect width="260" height="260" fill="white"/>
</clipPath>
</defs>
</svg>
