<svg width="312" height="180" viewBox="0 0 312 180" fill="none" xmlns="http://www.w3.org/2000/svg">
<g clip-path="url(#clip0_2628_182590)">
<path d="M182.538 225.48C190.23 232.598 202.042 232.785 209.971 225.93L262.103 180.815C271.381 172.786 282.045 152.245 264.888 136.375C247.719 120.517 228.077 132.766 220.81 142.643L179.94 198.159C173.722 206.6 174.846 218.363 182.55 225.468" fill="#FFC107"/>
<path d="M102.51 62.7521C108.869 62.7521 114.023 57.5977 114.023 51.2393C114.023 44.881 108.869 39.7266 102.51 39.7266C96.152 39.7266 90.9976 44.881 90.9976 51.2393C90.9976 57.5977 96.152 62.7521 102.51 62.7521Z" fill="#FFC107"/>
<path d="M207.05 62.7521C213.408 62.7521 218.563 57.5977 218.563 51.2393C218.563 44.881 213.408 39.7266 207.05 39.7266C200.692 39.7266 195.537 44.881 195.537 51.2393C195.537 57.5977 200.692 62.7521 207.05 62.7521Z" fill="#FFC107"/>
<path d="M238.666 184.573L222.845 112.611C222.358 110.401 221.984 108.154 221.722 105.894C221.285 102.21 220.56 98.6263 219.599 95.1425C218.575 91.4339 217.289 87.8378 215.715 84.4164C204.877 60.6791 181.664 44.2715 154.768 44.2715C127.871 44.2715 104.608 60.7165 93.7948 84.5038C92.0841 88.2748 90.6856 92.2206 89.6367 96.3163L87.3641 109.253C87.3517 109.34 87.3392 109.415 87.3267 109.502V109.602C87.2393 109.989 87.2143 110.376 87.2143 110.751C87.2143 110.351 87.2268 109.939 87.3017 109.527V109.427C87.1394 110.489 86.9396 111.55 86.7023 112.611L70.8816 184.573C69.7079 189.892 69.096 195.349 69.2833 200.805C70.4321 233.908 96.5918 261.441 129.732 261.441H179.829C212.968 261.441 239.128 233.908 240.277 200.805C240.464 195.349 239.84 189.892 238.679 184.573H238.666Z" fill="#FFC107"/>
<path d="M87.8388 105.893C87.7139 106.992 87.5516 108.091 87.3643 109.177L89.6244 96.3281C88.8252 99.4373 88.2258 102.621 87.8388 105.88V105.893Z" fill="#FF6B00"/>
<path d="M146.002 18.5H163.559C193.914 18.5 218.563 43.1488 218.563 73.5041C218.563 95.4559 200.732 113.287 178.78 113.287H130.781C108.829 113.287 90.998 95.4559 90.998 73.5041C90.998 43.1488 115.647 18.5 146.002 18.5V18.5Z" fill="#FFC107"/>
<path d="M77.7744 92.9946C77.7869 92.9072 77.8119 92.8198 77.8244 92.7324L77.7744 92.9946Z" fill="black"/>
<path d="M128.408 65.8864C131.125 65.8864 133.327 63.6838 133.327 60.9667C133.327 58.2495 131.125 56.0469 128.408 56.0469C125.69 56.0469 123.488 58.2495 123.488 60.9667C123.488 63.6838 125.69 65.8864 128.408 65.8864Z" fill="#2B2D36"/>
<path d="M181.152 65.8864C183.869 65.8864 186.072 63.6838 186.072 60.9667C186.072 58.2495 183.869 56.0469 181.152 56.0469C178.435 56.0469 176.232 58.2495 176.232 60.9667C176.232 63.6838 178.435 65.8864 181.152 65.8864Z" fill="#2B2D36"/>
<path d="M138.797 95.1296C148.376 95.1296 156.141 87.3644 156.141 77.7855C156.141 68.2066 148.376 60.4414 138.797 60.4414C129.218 60.4414 121.453 68.2066 121.453 77.7855C121.453 87.3644 129.218 95.1296 138.797 95.1296Z" fill="white"/>
<path d="M156.141 60.4414H138.797V77.7855H156.141V60.4414Z" fill="white"/>
<path d="M170.763 95.1296C180.342 95.1296 188.107 87.3644 188.107 77.7855C188.107 68.2066 180.342 60.4414 170.763 60.4414C161.184 60.4414 153.419 68.2066 153.419 77.7855C153.419 87.3644 161.184 95.1296 170.763 95.1296Z" fill="white"/>
<path d="M170.763 60.4414H153.419V77.7855H170.763V60.4414Z" fill="white"/>
<path d="M165.094 68.7825V70.7929C165.094 74.6513 161.96 77.773 158.114 77.773H151.458C147.6 77.773 144.478 74.6388 144.478 70.7929V68.7825C144.478 63.3383 148.899 58.918 154.343 58.918H155.242C160.686 58.918 165.106 63.3383 165.106 68.7825H165.094Z" fill="#2B2D36"/>
<path d="M155.355 127.484C132.254 127.484 113.537 145.328 113.537 167.355V256.547C119.705 259.707 126.485 261.455 133.653 261.455H177.069C184.224 261.455 191.017 259.707 197.185 256.547V167.355C197.185 145.34 178.468 127.484 155.367 127.484H155.355Z" fill="white"/>
<path d="M152.295 157.238H159.975C166.143 157.238 171.15 162.245 171.15 168.414C171.15 171.498 168.641 174.008 165.556 174.008H146.689C143.605 174.008 141.095 171.498 141.095 168.414C141.095 162.245 146.102 157.238 152.27 157.238H152.295Z" fill="#FF6B00"/>
<path d="M182.288 130.717L171.075 122.963C162.097 116.757 150.197 116.757 141.219 122.963L130.006 130.717C125.636 133.739 124.687 139.783 127.909 144.003L142.381 162.946C149.311 172.023 162.984 172.023 169.926 162.946L184.399 144.003C187.62 139.783 186.659 133.739 182.301 130.717H182.288Z" fill="#FF6B00"/>
<path d="M104.785 141.569L118.819 138.138L126.123 168.013L112.09 171.444C103.842 173.461 95.509 168.402 93.4923 160.154C91.4755 151.906 96.5338 143.574 104.782 141.557L104.785 141.569Z" fill="#FFC107"/>
<path d="M118.482 138.15L124.389 136.706C132.661 134.683 141.009 139.751 143.032 148.023C145.054 156.295 139.987 164.643 131.715 166.666L125.807 168.11L118.482 138.15V138.15Z" fill="#2B2D36"/>
<path d="M197.784 171.451L183.75 168.02L191.055 138.145L205.088 141.576C213.336 143.593 218.395 151.926 216.378 160.174C214.361 168.422 206.029 173.48 197.781 171.463L197.784 171.451Z" fill="#FFC107"/>
<path d="M184.092 168.111L178.185 166.667C169.913 164.644 164.845 156.297 166.868 148.024C168.89 139.752 177.238 134.685 185.51 136.707L191.417 138.152L184.092 168.111V168.111Z" fill="#2B2D36"/>
<path d="M141.794 137.711C142.107 137.686 142.419 137.586 142.706 137.424C143.705 136.824 144.042 135.526 143.443 134.527L137.911 125.262L134.427 127.672L139.809 136.7C140.234 137.411 141.02 137.786 141.794 137.724V137.711Z" fill="white"/>
<path d="M167.168 137.423C167.455 137.598 167.767 137.686 168.079 137.711C168.854 137.773 169.64 137.398 170.065 136.687L176.158 126.472L172.674 124.062L166.431 134.514C165.832 135.513 166.156 136.811 167.168 137.411V137.423Z" fill="white"/>
<path d="M154.681 136.001C155.018 136.001 155.33 135.938 155.617 135.801C156.329 135.476 156.828 134.765 156.841 133.928L157.153 118.345C155.742 118.295 154.319 118.345 152.92 118.519L152.608 133.841C152.583 135.014 153.507 135.976 154.681 136.001Z" fill="white"/>
</g>
<defs>
<clipPath id="clip0_2628_182590">
<rect width="312" height="180" fill="white"/>
</clipPath>
</defs>
</svg>
