<svg width="312" height="180" viewBox="0 0 312 180" fill="none" xmlns="http://www.w3.org/2000/svg">
<g clip-path="url(#clip0_2751_182334)">
<path d="M64.6665 73.1957L87.8154 100.17L99.6042 66.6348L64.6665 73.1957Z" fill="#FFC107"/>
<path d="M87.5137 41.7461L94.2137 76.6491L121.095 53.3959L87.5137 41.7461Z" fill="#FFC107"/>
<path d="M116.609 26.168L112.784 61.5114L145.299 47.1608L116.609 26.168Z" fill="#FFC107"/>
<path d="M148.672 18.2031L133.545 50.382L168.97 47.3913L148.672 18.2031Z" fill="#FFC107"/>
<path d="M180.168 20.9043L154.921 45.931L189.221 55.274L180.168 20.9043Z" fill="#FFC107"/>
<path d="M210.874 29.5996L181.211 49.1898L213.019 65.0822L210.874 29.5996Z" fill="#FFC107"/>
<path d="M235.252 50.7871L200.917 59.991L226.06 85.1221L235.252 50.7871Z" fill="#FFC107"/>
<path d="M249.962 80.7062L215.117 73.6699L226.454 107.367L249.962 80.7062Z" fill="#FFC107"/>
<path d="M52.6699 102.742L90.1811 95.0332L78.1024 131.374L52.6699 102.742Z" fill="#FFC107"/>
<path d="M45.3086 132.171L81.8808 120.846L73.4072 158.195L45.3086 132.171Z" fill="#FFC107"/>
<path d="M39.7446 165.812L75.4822 152.053L69.524 189.877L39.7446 165.812Z" fill="#FFC107"/>
<path d="M36.8237 198.419L67.8782 176.012L71.7499 214.114L36.8237 198.419Z" fill="#FFC107"/>
<path d="M258.331 102.742L220.82 95.0332L232.899 131.374L258.331 102.742Z" fill="#FFC107"/>
<path d="M265.692 132.171L229.12 120.846L237.594 158.195L265.692 132.171Z" fill="#FFC107"/>
<path d="M271.257 165.812L235.519 152.053L241.477 189.877L271.257 165.812Z" fill="#FFC107"/>
<path d="M274.178 198.419L243.123 176.012L239.251 214.114L274.178 198.419Z" fill="#FFC107"/>
<path d="M186.161 261.377H129.825C89.0214 261.377 58.9174 223.275 68.3648 183.573L87.2015 104.436C91.6064 68.6864 121.977 41.8281 157.993 41.8281C194.02 41.8281 224.379 68.6864 228.784 104.436L247.621 183.573C257.068 223.263 226.964 261.377 186.161 261.377V261.377Z" fill="#FFC107"/>
<path d="M218.78 132.359C201.728 146.42 179.878 154.871 156.045 154.871C132.212 154.871 110.362 146.42 93.31 132.359L82.4832 177.846C74.7283 210.419 99.4304 241.693 132.919 241.693H179.159C212.648 241.693 237.35 210.419 229.595 177.846L218.768 132.359H218.78Z" fill="#FFC107"/>
<path d="M78.1133 161.085L71.4248 157.48L84.0367 99.4746L90.8179 103.254L78.1133 161.085Z" fill="#FFC107"/>
<path d="M92.1851 79.9987L94.3643 81.5404L100.937 75.0953L96.5668 67.2129L92.1851 79.9987Z" fill="#FFC107"/>
<path d="M114.372 91.4512C124.468 91.4512 132.652 83.2669 132.652 73.1709C132.652 63.075 124.468 54.8906 114.372 54.8906C104.276 54.8906 96.0918 63.075 96.0918 73.1709C96.0918 83.2669 104.276 91.4512 114.372 91.4512Z" fill="white"/>
<path d="M114.372 81.5279C118.988 81.5279 122.73 77.786 122.73 73.1702C122.73 68.5544 118.988 64.8125 114.372 64.8125C109.757 64.8125 106.015 68.5544 106.015 73.1702C106.015 77.786 109.757 81.5279 114.372 81.5279Z" fill="#2B2D36"/>
<path d="M197.717 91.4512C207.813 91.4512 215.998 83.2669 215.998 73.1709C215.998 63.075 207.813 54.8906 197.717 54.8906C187.621 54.8906 179.437 63.075 179.437 73.1709C179.437 83.2669 187.621 91.4512 197.717 91.4512Z" fill="white"/>
<path d="M197.718 81.5279C202.333 81.5279 206.075 77.786 206.075 73.1702C206.075 68.5544 202.333 64.8125 197.718 64.8125C193.102 64.8125 189.36 68.5544 189.36 73.1702C189.36 77.786 193.102 81.5279 197.718 81.5279Z" fill="#2B2D36"/>
<path d="M218.779 132.359L214.143 112.896C210.526 83.5574 185.604 61.5098 156.045 61.5098C126.485 61.5098 101.563 83.5458 97.9463 112.896L93.3096 132.359C110.361 146.42 132.212 154.87 156.045 154.87C179.877 154.87 201.728 146.42 218.779 132.359Z" fill="white"/>
<path d="M133.395 118.481C137.031 118.481 139.979 115.533 139.979 111.897C139.979 108.26 137.031 105.312 133.395 105.312C129.758 105.312 126.811 108.26 126.811 111.897C126.811 115.533 129.758 118.481 133.395 118.481Z" fill="#2B2D36"/>
<path d="M178.696 118.481C182.332 118.481 185.28 115.533 185.28 111.897C185.28 108.26 182.332 105.312 178.696 105.312C175.06 105.312 172.112 108.26 172.112 111.897C172.112 115.533 175.06 118.481 178.696 118.481Z" fill="#2B2D36"/>
<path d="M156.045 125.1C160.309 125.1 163.765 122.874 163.765 120.127C163.765 117.381 160.309 115.154 156.045 115.154C151.781 115.154 148.325 117.381 148.325 120.127C148.325 122.874 151.781 125.1 156.045 125.1Z" fill="#2B2D36"/>
<path d="M153.854 132.256C157.668 137.159 156.393 144.647 150.945 149.319L135.597 162.475C129.72 167.518 121.304 167.309 117.189 162.023L116.03 160.528C111.915 155.242 113.77 147.035 120.099 142.561L136.605 130.899C142.471 126.761 150.04 127.352 153.866 132.244L153.854 132.256Z" fill="#2B2D36"/>
<path d="M158.235 132.256C154.422 137.159 155.697 144.647 161.145 149.319L176.493 162.475C182.37 167.518 190.785 167.309 194.9 162.023L196.06 160.528C200.175 155.242 198.32 147.035 191.991 142.561L175.484 130.899C169.619 126.761 162.049 127.352 158.224 132.244L158.235 132.256Z" fill="#2B2D36"/>
</g>
<defs>
<clipPath id="clip0_2751_182334">
<rect width="312" height="180" fill="white"/>
</clipPath>
</defs>
</svg>
