<svg width="312" height="180" viewBox="0 0 312 180" fill="none" xmlns="http://www.w3.org/2000/svg">
<g clip-path="url(#clip0_2751_182387)">
<path d="M155.786 268.605C209.24 268.605 252.572 225.273 252.572 171.819C252.572 118.366 209.24 75.0332 155.786 75.0332C102.333 75.0332 59 118.366 59 171.819C59 225.273 102.333 268.605 155.786 268.605Z" fill="#2B2D36"/>
<path d="M155.787 258.041C202.373 258.041 240.139 220.276 240.139 173.69C240.139 127.103 202.373 89.3379 155.787 89.3379C109.201 89.3379 71.4351 127.103 71.4351 173.69C71.4351 220.276 109.201 258.041 155.787 258.041Z" fill="white"/>
<path d="M155.786 243.789C157.773 243.789 159.384 220.979 159.384 192.84C159.384 164.701 157.773 141.891 155.786 141.891C153.799 141.891 152.188 164.701 152.188 192.84C152.188 220.979 153.799 243.789 155.786 243.789Z" fill="#F4F0FF"/>
<path d="M207.923 171.91C207.027 177.414 187.94 180.103 182.89 180.886C162.124 183.612 124.266 184.143 105.683 174.612C104.787 173.98 103.613 173.135 103.664 171.923C103.878 173.072 105.09 173.526 106.05 173.93C113.851 178.361 206.635 179.989 207.923 171.923V171.91Z" fill="#F4F0FF"/>
<path d="M97.7184 136.606C91.7726 142.552 91.8988 152.474 98.0087 159.228L115.19 178.226C121.779 185.51 132.711 186.242 139.124 179.83L140.942 178.012C147.355 171.599 146.623 160.667 139.339 154.077L120.34 136.896C113.599 130.799 103.664 130.673 97.7184 136.606V136.606Z" fill="#FFC107"/>
<path d="M213.857 136.606C219.803 142.552 219.676 152.474 213.566 159.228L196.386 178.226C189.796 185.51 178.864 186.242 172.451 179.83L170.633 178.012C164.22 171.599 164.953 160.667 172.236 154.077L191.235 136.896C197.976 130.799 207.911 130.673 213.857 136.606V136.606Z" fill="#FFC107"/>
<path d="M142.949 182.867L142.192 177.969C142.04 177.01 140.904 176.568 140.146 177.174L136.284 180.279C135.526 180.898 135.716 182.097 136.624 182.45L141.245 184.243C142.154 184.597 143.113 183.826 142.962 182.867H142.949Z" fill="#2B2D36"/>
<path d="M148.944 174.663L146.47 170.371C145.978 169.525 144.766 169.525 144.274 170.371L141.799 174.663C141.307 175.509 141.926 176.569 142.898 176.569H147.859C148.831 176.569 149.449 175.509 148.957 174.663H148.944Z" fill="#2B2D36"/>
<path d="M168.625 182.631L169.382 177.733C169.534 176.773 170.67 176.332 171.427 176.937L175.29 180.043C176.047 180.661 175.858 181.861 174.949 182.214L170.329 184.007C169.42 184.36 168.461 183.59 168.612 182.631H168.625Z" fill="#2B2D36"/>
<path d="M162.629 174.426L165.103 170.134C165.596 169.289 166.807 169.289 167.3 170.134L169.774 174.426C170.266 175.272 169.648 176.333 168.676 176.333H163.715C162.743 176.333 162.124 175.272 162.616 174.426H162.629Z" fill="#2B2D36"/>
<path d="M155.786 139.719C189.76 139.719 217.301 113.591 217.301 81.3595C217.301 49.1284 189.76 23 155.786 23C121.812 23 94.2705 49.1284 94.2705 81.3595C94.2705 113.591 121.812 139.719 155.786 139.719Z" fill="#FFC107"/>
<path d="M153.569 90.9151C153.993 90.4242 153.493 89.2989 152.453 88.4016C151.414 87.5044 150.227 87.1749 149.804 87.6658C149.38 88.1567 149.88 89.2821 150.919 90.1793C151.959 91.0766 153.146 91.406 153.569 90.9151Z" fill="#2B2D36"/>
<path d="M160.659 90.1726C161.699 89.2753 162.198 88.15 161.775 87.6591C161.351 87.1682 160.165 87.4976 159.125 88.3949C158.085 89.2922 157.586 90.4175 158.009 90.9084C158.433 91.3993 159.619 91.0699 160.659 90.1726Z" fill="#2B2D36"/>
<path d="M132.698 85.7292C136.658 85.7292 139.868 82.519 139.868 78.559C139.868 74.5989 136.658 71.3887 132.698 71.3887C128.738 71.3887 125.528 74.5989 125.528 78.559C125.528 82.519 128.738 85.7292 132.698 85.7292Z" fill="#2B2D36"/>
<path d="M178.876 85.7292C182.836 85.7292 186.046 82.519 186.046 78.559C186.046 74.5989 182.836 71.3887 178.876 71.3887C174.916 71.3887 171.706 74.5989 171.706 78.559C171.706 82.519 174.916 85.7292 178.876 85.7292Z" fill="#2B2D36"/>
</g>
<defs>
<clipPath id="clip0_2751_182387">
<rect width="312" height="180" fill="white"/>
</clipPath>
</defs>
</svg>
