<svg width="312" height="180" viewBox="0 0 312 180" fill="none" xmlns="http://www.w3.org/2000/svg">
<g clip-path="url(#clip0_2628_182629)">
<path d="M242.762 161.422L226.314 89.638C225.811 87.4305 225.422 85.1887 225.147 82.9469C224.69 79.2754 223.935 75.6954 222.94 72.2183L225.513 86.3211C226.097 89.5122 223.981 92.5661 220.79 93.1494C217.598 93.7328 214.545 91.6168 213.961 88.4256L210.152 67.6317C209.569 64.4406 211.685 61.3867 214.876 60.8033C216.317 60.5403 217.724 60.8262 218.902 61.5125C207.636 37.8362 183.502 21.4688 155.537 21.4688C127.572 21.4688 103.312 37.9277 92.08 61.7069C93.2352 61.055 94.6078 60.7919 96.0146 61.0435C99.2058 61.6269 101.322 64.6922 100.738 67.8719L96.9296 88.6658C96.3463 91.857 93.281 93.973 90.1013 93.3896C86.9216 92.8063 84.7941 89.741 85.3775 86.5613L85.4003 86.4583C85.2173 87.522 85 88.5858 84.7598 89.638L68.3123 161.422C67.0999 166.729 66.4479 172.173 66.6423 177.606C67.8319 210.627 95.031 238.089 129.493 238.089H181.569C216.031 238.089 243.219 210.627 244.42 177.606C244.615 172.162 243.974 166.729 242.75 161.422H242.762Z" fill="#FFC107"/>
<path d="M214.876 60.8018C211.685 61.3851 209.569 64.4504 210.152 67.6301L213.961 88.4241C214.544 91.6152 217.609 93.7312 220.789 93.1479C223.98 92.5645 226.096 89.4992 225.513 86.3195L222.939 72.2167C221.876 68.5108 220.537 64.9308 218.902 61.5109C217.735 60.8246 216.317 60.5387 214.876 60.8018Z" fill="#FFC107"/>
<path d="M85.4004 86.47C85.4118 86.3902 85.4346 86.3103 85.446 86.2305L85.4004 86.47Z" fill="black"/>
<path d="M167.569 96.2695H143.504V174.252H167.569V96.2695Z" fill="white"/>
<path d="M149.612 75.7618C149.612 63.1153 139.362 52.8633 126.719 52.8633C114.076 52.8633 103.826 63.1153 103.826 75.7618V150.371C103.826 163.017 114.076 173.269 126.719 173.269C139.362 173.269 149.612 163.017 149.612 150.371V75.7618Z" fill="white"/>
<path d="M207.247 75.7618C207.247 63.1153 196.998 52.8633 184.354 52.8633C171.711 52.8633 161.461 63.1153 161.461 75.7618V150.371C161.461 163.017 171.711 173.269 184.354 173.269C196.998 173.269 207.247 163.017 207.247 150.371V75.7618Z" fill="white"/>
<path d="M229.07 156.457L215.208 95.9398C214.784 94.0755 214.453 92.1882 214.224 90.2896C213.034 80.6475 209.043 71.3142 203.793 63.6852L155.537 117.946L108.459 61.8438C102.294 69.9417 98.1759 79.6753 96.8606 90.2896C96.6318 92.1882 96.3001 94.0755 95.8769 95.9398L82.0143 156.457C80.9849 160.929 80.4473 165.516 80.6075 170.103C81.614 197.942 104.535 221.092 133.587 221.092H177.497C206.549 221.092 229.47 197.942 230.477 170.103C230.649 165.516 230.1 160.929 229.07 156.457Z" fill="white"/>
<path d="M85.9259 82.9496C85.7887 84.0476 85.6285 85.1342 85.4341 86.2322L87.7788 73.4219C86.9439 76.5215 86.3262 79.7012 85.9259 82.961V82.9496Z" fill="#FFC107"/>
<path d="M96.094 60.9425C94.6758 60.6794 93.2918 60.9425 92.1366 61.6059C90.3637 65.3689 88.9111 69.3035 87.8131 73.3868L85.4569 86.2887C85.4455 86.3687 85.4226 86.4488 85.4111 86.5289L85.3883 86.6318C84.8049 89.8458 86.9324 92.9226 90.1464 93.5174C93.3604 94.1007 96.4372 91.9733 97.0319 88.7592L100.864 67.8166C101.447 64.6026 99.3195 61.5258 96.1055 60.9311L96.094 60.9425Z" fill="#FFC107"/>
<path d="M242.761 161.424L226.313 89.6401C226.062 88.5535 225.844 87.4555 225.65 86.3574H225.524C225.524 86.3574 225.524 86.4375 225.535 86.4832C225.558 86.6319 225.581 86.7921 225.593 86.9408C225.593 86.9865 225.593 87.0208 225.593 87.0666C225.593 87.2267 225.604 87.3754 225.593 87.5355C225.593 87.5698 225.593 87.6041 225.593 87.6385C225.593 87.7986 225.581 87.9587 225.558 88.1074C225.558 88.1417 225.547 88.176 225.535 88.2103C225.513 88.3705 225.49 88.5192 225.455 88.6679C225.455 88.7022 225.433 88.7365 225.433 88.7708C225.398 88.9195 225.352 89.0682 225.307 89.2169C225.295 89.2512 225.272 89.2969 225.261 89.3312C225.215 89.4685 225.158 89.6058 225.101 89.743C225.078 89.7888 225.055 89.8345 225.032 89.8803C224.975 90.0061 224.918 90.1319 224.849 90.2463C224.815 90.3035 224.781 90.3492 224.746 90.4064C224.678 90.5093 224.62 90.6123 224.552 90.7152C224.506 90.7838 224.449 90.841 224.403 90.9097C224.335 90.9897 224.277 91.0812 224.209 91.1613C224.152 91.2299 224.071 91.2986 224.014 91.3786C223.957 91.4472 223.9 91.5159 223.831 91.5731C223.74 91.6531 223.648 91.7332 223.557 91.8133C223.511 91.859 223.454 91.9048 223.408 91.9505C223.294 92.042 223.179 92.1221 223.065 92.2021C223.031 92.225 222.996 92.2593 222.951 92.2822C222.813 92.3737 222.665 92.4652 222.516 92.5453C222.493 92.5453 222.482 92.5682 222.459 92.5796C221.944 92.8427 221.384 93.0485 220.789 93.1515C220.388 93.2201 219.988 93.2544 219.599 93.243C216.866 93.1858 214.464 91.2185 213.949 88.4277L213.572 86.3574H176.605C172.007 93.0714 164.286 97.4864 155.525 97.4864C146.763 97.4864 139.043 93.0714 134.445 86.3574H97.4436L97.0089 88.7594C96.4256 91.9734 93.3374 94.1008 90.1234 93.5175C87.2982 93.0028 85.3081 90.5551 85.2738 87.7871C85.2738 87.3868 85.2966 86.9751 85.3653 86.5747L85.3881 86.4718C85.2051 87.5355 84.9878 88.5992 84.7476 89.6515L68.3001 161.435C67.0877 166.742 66.4357 172.187 66.6301 177.62C67.8197 210.641 95.0188 238.103 129.481 238.103H181.557C216.019 238.103 243.207 210.641 244.408 177.62C244.602 172.175 243.962 166.742 242.738 161.435L242.761 161.424Z" fill="white"/>
<path d="M222.459 92.5781C221.944 92.8412 221.383 93.0471 220.789 93.15C220.388 93.2186 219.988 93.253 219.599 93.2415C219.988 93.2415 220.388 93.2186 220.789 93.15C221.383 93.0356 221.944 92.8412 222.459 92.5781Z" fill="#FFC107"/>
<path d="M157.607 103.581L163.795 96.8895C165.464 95.0824 164.183 92.1543 161.724 92.1543H149.36C146.901 92.1543 145.62 95.0824 147.29 96.8895L153.478 103.581C154.599 104.793 156.509 104.793 157.63 103.581H157.607Z" fill="#2B2D36"/>
<path d="M133.187 97.1183C136.775 97.1183 139.683 94.2097 139.683 90.6217C139.683 87.0337 136.775 84.125 133.187 84.125C129.599 84.125 126.69 87.0337 126.69 90.6217C126.69 94.2097 129.599 97.1183 133.187 97.1183Z" fill="black"/>
<path d="M177.886 97.1183C181.474 97.1183 184.383 94.2097 184.383 90.6217C184.383 87.0337 181.474 84.125 177.886 84.125C174.298 84.125 171.389 87.0337 171.389 90.6217C171.389 94.2097 174.298 97.1183 177.886 97.1183Z" fill="black"/>
<path d="M213.584 86.3566C213.584 86.3566 214.796 97.7029 211.365 106.99L228.544 175.949V217.022C228.544 217.022 249.956 198.092 242.773 161.411C235.59 124.73 224.472 81.5527 224.472 81.5527L213.584 86.3452V86.3566Z" fill="#FFC107"/>
<path d="M68.8265 192.155C69.4441 194.557 70.1647 196.787 70.9653 198.846C75.6205 210.89 82.5518 217.032 82.5518 217.032V175.959L82.5747 175.879C73.9506 176.714 68.2774 184.309 68.8379 192.166L68.8265 192.155Z" fill="white"/>
<path d="M242.28 192.155C241.411 195.998 241.148 196.615 240.439 198.708C236.664 209.746 228.338 217.249 228.338 217.249L227.812 214.927V175.947H228.544C237.168 176.771 242.841 184.297 242.28 192.143V192.155Z" fill="white"/>
<path d="M204.433 113.244C209.878 113.244 214.292 104.452 214.292 93.6055C214.292 82.7594 209.878 73.9668 204.433 73.9668C198.988 73.9668 194.574 82.7594 194.574 93.6055C194.574 104.452 198.988 113.244 204.433 113.244Z" fill="white"/>
<path d="M82.5633 175.869L99.72 106.991C96.2887 97.7032 97.4554 86.3569 97.4554 86.3569L86.6123 81.5645C86.6123 81.5645 75.4948 124.742 68.3119 161.423C65.9099 173.662 66.7106 183.91 68.8151 192.157C68.2547 184.299 73.9278 176.704 82.5519 175.869H82.5633Z" fill="#FFC107"/>
<path d="M106.64 113.244C112.085 113.244 116.499 104.452 116.499 93.6055C116.499 82.7594 112.085 73.9668 106.64 73.9668C101.194 73.9668 96.7803 82.7594 96.7803 93.6055C96.7803 104.452 101.194 113.244 106.64 113.244Z" fill="white"/>
<path d="M89.0256 75.5807C88.6939 77.0219 88.4194 78.4859 88.2021 79.95L89.4831 79.6068C88.7626 78.7033 88.122 77.4565 88.8426 76.4157C89.2086 75.901 88.7054 75.3062 88.1792 75.2605C87.5845 75.2147 87.1841 75.8324 87.3328 76.3699C87.5502 77.1935 88.8655 77.0448 88.8426 76.1641C88.8198 75.5007 88.9684 74.883 89.2887 74.3111C89.4717 73.9794 89.4031 73.5448 89.0943 73.3161C88.774 73.0759 88.3851 73.1216 88.0877 73.3732C87.939 73.4991 87.8132 73.6592 87.7332 73.8422C87.5616 74.2196 87.6188 74.6657 88.0077 74.8945C88.3394 75.0889 88.8884 74.9974 89.0599 74.62C89.1171 74.4941 89.0714 74.5513 89.1743 74.4598L87.9619 73.5334C87.5158 74.3455 87.2756 75.249 87.31 76.1641L88.8197 75.9582V75.901L88.7282 76.4958L88.7511 76.45L88.4766 76.7245L88.5224 76.6902L88.1335 76.7931H88.1907L87.5273 75.6379C87.0011 76.3928 86.9096 77.365 87.0926 78.2457C87.2757 79.1265 87.8361 79.9614 88.408 80.6934C88.7511 81.1166 89.609 80.8993 89.689 80.3503C89.9063 78.8863 90.1809 77.4222 90.5125 75.9811C90.604 75.5807 90.3867 75.1461 89.975 75.0317C89.5861 74.9288 89.1171 75.1575 89.0256 75.5693V75.5807Z" fill="#FFC107"/>
<path d="M86.8639 77.8807C86.7839 78.3039 86.761 78.7385 86.7152 79.1617L86.6009 80.3055C86.578 80.4885 86.7038 80.7287 86.8296 80.8545C86.9669 80.9918 87.1842 81.0833 87.3786 81.0833C87.5731 81.0833 87.7789 81.0147 87.9276 80.8545C88.0763 80.6944 88.1335 80.5228 88.1564 80.3055C88.225 79.6193 88.2822 78.933 88.3737 78.2467L88.3508 78.4526C88.3508 78.4526 88.3623 78.3382 88.3737 78.281C88.408 78.0752 88.408 77.8807 88.2936 77.6863C88.2021 77.5261 88.0191 77.3775 87.8361 77.3317C87.6417 77.2859 87.4129 77.2974 87.2414 77.4118C87.0812 77.5147 86.9211 77.6748 86.8868 77.8693L86.8639 77.8807Z" fill="#FFC107"/>
<path d="M86.4981 79.8364C86.418 80.4998 86.3494 81.1631 86.3037 81.8265C86.2808 82.1468 86.5553 82.5014 86.8641 82.57C87.0014 82.6043 87.1386 82.6043 87.2759 82.57C87.436 82.5357 87.6648 82.3756 87.7334 82.2154C87.8135 82.0324 87.8706 81.8609 87.8706 81.6664C87.8706 81.4834 87.8135 81.2775 87.7105 81.1288C87.5504 80.8658 87.253 80.7171 86.9442 80.7628C86.6697 80.7971 86.3609 81.0145 86.3037 81.3118C86.2236 81.7694 86.1664 82.2383 86.1435 82.7072C86.1207 83.1076 86.5095 83.4965 86.9099 83.4736C87.3445 83.4507 87.6533 83.1304 87.6762 82.7072C87.6762 82.5128 87.6991 82.3298 87.722 82.1354C87.722 82.0896 87.722 82.0439 87.7334 81.9981C87.7563 81.8494 87.7105 82.1125 87.7334 82.0095C87.7563 81.9066 87.7677 81.8151 87.7791 81.7122L86.3723 81.8952C86.418 81.9638 86.4066 81.9409 86.3494 81.8265C86.3037 81.6893 86.3265 81.5635 86.3952 81.4377L87.8249 81.8265C87.8706 81.1631 87.9278 80.4998 88.0193 79.8364C88.0422 79.6534 87.9164 79.4132 87.7906 79.2873C87.6533 79.1501 87.436 79.0586 87.2416 79.0586C87.0471 79.0586 86.8412 79.1272 86.6925 79.2873C86.5439 79.4475 86.4981 79.619 86.4638 79.8364H86.4981Z" fill="#FFC107"/>
<path d="M86.0973 82.1349C85.9601 83.0156 85.9029 83.8963 85.9486 84.7885C85.9715 85.1888 86.2917 85.5777 86.7149 85.5548C87.1153 85.5319 87.5042 85.2117 87.4813 84.7885C87.447 84.045 87.4813 83.313 87.5728 82.581L87.5499 82.7869C87.5499 82.7068 87.5728 82.6267 87.5842 82.5467C87.6185 82.3293 87.6185 82.1463 87.5042 81.9519C87.4126 81.7918 87.2296 81.6431 87.0466 81.5973C86.8522 81.5516 86.6234 81.563 86.4519 81.6774C86.2917 81.7803 86.1316 81.9405 86.0973 82.1349V82.1349Z" fill="#FFC107"/>
<path d="M85.9376 83.4396C85.8461 84.0687 85.8003 84.6977 85.8346 85.3268C85.8461 85.5327 85.9147 85.7271 86.0634 85.8758C86.2006 86.0131 86.418 86.1046 86.6124 86.1046C86.8068 86.1046 87.0127 86.036 87.1614 85.8758C87.3101 85.7157 87.4016 85.5327 87.3902 85.3268C87.3559 84.8236 87.3673 84.3089 87.4359 83.8056L87.4131 84.0115C87.4131 84.0115 87.4245 83.8971 87.4359 83.8513C87.4702 83.7484 87.4702 83.6455 87.4474 83.5425C87.4474 83.4396 87.4131 83.3481 87.3559 83.2566C87.2644 83.0965 87.0814 82.9478 86.8983 82.902C86.7039 82.8563 86.4752 82.8677 86.3036 82.9821C86.1435 83.085 85.9833 83.2451 85.949 83.4396H85.9376Z" fill="#FFC107"/>
<path d="M85.8227 84.354V84.3883L85.7998 84.1824C85.8227 84.354 85.8341 84.5255 85.8227 84.6857C85.8227 84.7886 85.8456 84.8915 85.8913 84.983C85.9256 85.0745 85.9714 85.166 86.0514 85.2347C86.1201 85.3147 86.2001 85.3605 86.3031 85.3948C86.3946 85.4405 86.4975 85.4634 86.6005 85.4634L86.8063 85.4405C86.9322 85.4062 87.0465 85.3376 87.1495 85.2461L87.2753 85.086C87.3439 84.9716 87.3782 84.8343 87.3782 84.6971C87.3782 84.4455 87.3553 84.2053 87.321 83.9536C87.2982 83.8507 87.2524 83.7706 87.1838 83.6906C87.1266 83.6105 87.058 83.5419 86.9665 83.4961C86.875 83.4389 86.7835 83.4046 86.6805 83.4046C86.5776 83.3817 86.4746 83.3817 86.3717 83.4161L86.1887 83.4961C86.0743 83.5647 85.9828 83.6562 85.9142 83.7706L85.8341 83.9536C85.7998 84.0909 85.7998 84.2281 85.8341 84.3654L85.8227 84.354Z" fill="#FFC107"/>
<path d="M85.7314 84.5258L85.8229 85.7954C85.8344 86.0013 85.903 86.1843 86.0517 86.3444C86.1889 86.4817 86.4063 86.5732 86.6007 86.5732C86.7951 86.5732 87.001 86.5046 87.1497 86.3444C87.2984 86.1843 87.3899 86.0013 87.3785 85.7954L87.287 84.5258C87.2755 84.3199 87.2069 84.1369 87.0582 83.9768C86.921 83.8395 86.7036 83.748 86.5092 83.748C86.3148 83.748 86.1089 83.8167 85.9602 83.9768C85.8115 84.1369 85.72 84.3199 85.7314 84.5258Z" fill="#FFC107"/>
<path d="M224.427 78.4395L226.463 89.4426L223.271 89.0995L224.427 78.4395Z" fill="#FFC107"/>
<path d="M86.635 78.4395L84.1416 91.4099L88.7739 84.7874L86.635 78.4395Z" fill="#FFC107"/>
<path d="M155.606 154.634C155.183 152.198 156.898 149.922 159.357 149.648C165.694 148.938 177.715 148.721 186.465 155.298C198.863 164.62 200.865 182.897 199.973 184.087C198.074 186.603 180.963 188.433 168.565 179.111C159.815 172.535 156.692 160.914 155.606 154.634V154.634Z" fill="#FF6B00"/>
<path d="M172.086 158.435L171.939 157.047L164.125 157.875L164.272 159.263L172.086 158.435Z" fill="white"/>
<path d="M167.859 162.133L169.247 161.986L168.419 154.172L167.031 154.319L167.859 162.133Z" fill="white"/>
<path d="M169.331 173.115C169.045 172.886 168.93 172.486 169.079 172.12C169.262 171.685 169.754 171.468 170.2 171.651C173.883 173.138 178.023 172.074 180.517 168.986C183.01 165.898 183.193 161.62 180.963 158.337C180.7 157.948 180.803 157.411 181.192 157.148C181.58 156.885 182.118 156.988 182.381 157.376C185.035 161.288 184.829 166.389 181.855 170.072C178.881 173.755 173.94 175.025 169.559 173.252C169.479 173.218 169.411 173.172 169.342 173.126L169.331 173.115Z" fill="white"/>
<path d="M115.298 173.892L82.5176 175.871L99.6971 106.912L124.14 157.57C126.221 164.524 122.264 171.833 115.31 173.892H115.298Z" fill="#FFC107"/>
<path d="M195.97 173.982L228.75 175.96L211.365 107.002L187.128 157.66C185.046 164.614 189.004 171.923 195.958 173.982H195.97Z" fill="#FFC107"/>
</g>
<defs>
<clipPath id="clip0_2628_182629">
<rect width="312" height="180" fill="white"/>
</clipPath>
</defs>
</svg>
